<?xml version="1.0" encoding="UTF-8"?>
<svg id="Layer_1" xmlns="http://www.w3.org/2000/svg" xmlns:xlink="http://www.w3.org/1999/xlink" xmlns:ev="http://www.w3.org/2001/xml-events" version="1.1" viewBox="0 0 640 591.1">
  <!-- Generator: Adobe Illustrator 29.2.1, SVG Export Plug-In . SVG Version: 2.1.0 Build 116)  -->
  <defs>
    <style>
      .st0, .st1, .st2, .st3, .st4, .st5, .st6, .st7, .st8, .st9, .st10, .st11, .st12, .st13, .st14, .st15, .st16, .st17 {
        fill: none;
        stroke-miterlimit: 6.4;
      }

      .st0, .st1, .st2, .st3, .st4, .st5, .st6, .st8, .st9, .st10, .st11, .st12, .st13, .st15, .st16, .st17 {
        stroke-linecap: round;
      }

      .st0, .st6, .st8, .st10, .st11, .st12, .st13, .st14 {
        stroke: #e31a1c;
      }

      .st0, .st16 {
        stroke-width: 3px;
      }

      .st1, .st2, .st3, .st4, .st5, .st7, .st9, .st16, .st17 {
        stroke: #0570b0;
      }

      .st1, .st10 {
        stroke-width: .8px;
      }

      .st2, .st11 {
        stroke-width: .5px;
      }

      .st3 {
        stroke-width: 1.1px;
      }

      .st4, .st12 {
        stroke-width: .4px;
      }

      .st5, .st13 {
        stroke-width: .3px;
      }

      .st6, .st9 {
        stroke-width: .1px;
      }

      .st7, .st14 {
        stroke-linecap: square;
      }

      .st18 {
        stroke: #231f20;
        stroke-miterlimit: 10;
        stroke-width: .5px;
      }

      .st18, .st19 {
        fill: #ccc;
      }

      .st20, .st21 {
        isolation: isolate;
      }

      .st22 {
        fill: #fff;
      }

      .st23 {
        fill: #666;
      }

      .st8, .st15 {
        stroke-width: 1.3px;
      }

      .st15 {
        stroke: #000;
      }

      .st21 {
        font-family: Helvetica, Helvetica;
        font-size: 7.6px;
      }

      .st17 {
        stroke-width: 9.9px;
      }
    </style>
  </defs>
  <path class="st22" d="M0-4.6h640v595.7H0V-4.6Z"/>
  <path class="st6" d="M399.2,51.8c-.3,0-43,107.3-95.4,239.7s-103.2,239.7-113.4,239.7"/>
  <path class="st7" d="M404.9,51.8c.3,0-41.9,107.3-94.3,239.7s-86.6,239.7-76.4,239.7"/>
  <path class="st7" d="M404.9,51.8c.6,0,41,55,90.3,122.8,49.3,67.8,102,122.8,117.7,122.8"/>
  <path class="st7" d="M404.9,51.8c1.2,0-73.1,62.2-165.9,139-92.8,76.8-155.7,139-140.6,139"/>
  <path class="st12" d="M402,48.9c0-.2-14.2-3.1-31.8-6.4-17.6-3.3-31.8-19.1-31.8-35.3"/>
  <path class="st9" d="M402,54.6c0,.2-14.2-2.3-31.8-5.7-17.6-3.3-31.8,7-31.8,23.1"/>
  <path class="st16" d="M402.4,54.3l56,443"/>
  <path class="st6" d="M399.2,51.8c-.6,0,38.9,55,88.2,122.8,49.3,67.8,76.5,122.8,60.7,122.8"/>
  <path class="st6" d="M399.2,51.8c-1.2,0-77.4,62.2-170.2,139S48.7,329.8,33.5,329.8"/>
  <path class="st2" d="M401.7,54.3l-60.7,480.8"/>
  <path class="st7" d="M400.1,52.7L100.2,193.8"/>
  <path class="st6" d="M399.6,52.2l-223.9,42.7"/>
  <path class="st14" d="M545.9,173.1l-445.7,28"/>
  <path class="st14" d="M545.7,173c-.2,0,6.7,27.9,15.6,62.2,8.8,34.4,2.9,62.2-13.2,62.2"/>
  <path class="st9" d="M546.1,172.5L175.7,101.8"/>
  <path class="st11" d="M547.5,174.8l-198.1,360.3"/>
  <path class="st9" d="M548.6,175.8c0,.3-108,35.6-241.3,78.9-133.3,43.3-241.3,91.4-241.3,107.5"/>
  <path class="st14" d="M548.6,170.1c0-.3-108,34.6-241.3,77.9-133.3,43.3-241.3,65.4-241.3,49.3"/>
  <path class="st0" d="M548,175.2l-82.7,322.1"/>
  <path class="st4" d="M548.6,170.1c0-.5-47-30.8-105.1-67.6-58-36.8-105.1-79.5-105.1-95.3"/>
  <path class="st9" d="M551.4,173c.2,0,7.6,27.9,16.4,62.2,8.8,34.4,29,62.2,45.1,62.2"/>
  <path class="st5" d="M547.2,174.4L231.9,510.2"/>
  <path class="st6" d="M548.6,175.8c0,.5-47-28.9-105.1-65.8-58-36.8-105.1-53.8-105.1-38"/>
  <path class="st11" d="M115.2,450.1l203.2,95.6"/>
  <path class="st9" d="M113.6,446.7l41.7-330.2"/>
  <path class="st0" d="M115.7,449.7l326.8,62.3"/>
  <path class="st4" d="M110.4,449.2c-.4,0,49.6-91.7,111.8-204.8s99.7-204.8,83.8-204.8"/>
  <path class="st5" d="M114.8,450.5l75.7,62.6"/>
  <path class="st14" d="M113.3,452.1c0,.3,104.6-33.5,233.6-75.4,129-41.9,233.6-62.9,233.6-46.8"/>
  <path class="st14" d="M113,446.7l-28.6-226.2"/>
  <path class="st14" d="M116.1,449.2c.3,0-10-26.7-23.1-59.7s-10.7-59.7,5.4-59.7"/>
  <path class="st6" d="M116.1,449.2c.4,0,51.2-91.7,113.3-204.8,62.2-113.1,125.5-204.8,141.4-204.8"/>
  <path class="st9" d="M113.3,446.3c0-.3,104.6-34.5,233.6-76.4,129-41.9,233.6-88.9,233.6-105"/>
  <path class="st9" d="M110.4,449.2c-.3,0-11.1-26.7-24.2-59.7-13.1-33-36.6-59.7-52.6-59.7"/>
  <path class="st12" d="M86,265c-9.1,0,4.1-37.3,29.4-83.3,25.3-46,52.3-83.3,60.3-83.3"/>
  <path class="st11" d="M46,265c9.1,0,49.1,59.6,89.5,133,40.4,73.5,64.9,133,54.8,133"/>
  <path class="st4" d="M86,265c-9.3,0-16.8,14.5-16.8,32.4s13.1,32.4,29.2,32.4"/>
  <path class="st4" d="M86,265c-9.1,0,16.3,59.6,56.7,133,40.4,73.5,81.3,133,91.4,133"/>
  <path class="st11" d="M66,285c0-9.3,115.2-9.6,257.3-.7,142.1,8.9,257.3,29.3,257.3,45.4"/>
  <path class="st8" d="M86,265c-8.3,0,46-50.5,121.2-112.7s148.5-112.7,163.7-112.7"/>
  <path class="st0" d="M66,285c0-9,88.3,39.8,197.3,109,109,69.2,197.3,131.6,197.3,139.6"/>
  <path class="st14" d="M46,265c9.2,0,20.3-14,24.8-31.4,4.4-17.3,1.4-31.4-6.8-31.4"/>
  <path class="st11" d="M46,265c9.3,0,16.8,14.5,16.8,32.4s-13.1,32.4-29.2,32.4"/>
  <path class="st11" d="M46,265c8.7,0,76.7,64.9,151.9,145.1,75.2,80.1,129.2,145.1,120.6,145.1"/>
  <path class="st9" d="M86,265c-9.2,0-13.1-14-8.7-31.4,4.4-17.3,14.7-31.4,22.9-31.4"/>
  <path class="st1" d="M46,265c8.3,0,76-50.5,151.3-112.7,75.2-62.2,123.9-112.7,108.8-112.7"/>
  <path class="st17" d="M66,245c0,9,88.3,72.3,197.3,141.5,109,69.2,197.3,118.8,197.3,110.9"/>
  <path class="st4" d="M66,245c0,9.3,115.2,24.1,257.3,33,142.1,8.9,257.3,3.1,257.3-13.1"/>
  <path class="st3" d="M86,265c-8.7,0,45.3,64.9,120.6,145.1,75.2,80.1,143.2,145.1,151.9,145.1"/>
  <path class="st9" d="M46,265c9.1,0,36.9-37.3,62.2-83.3,25.3-46,39.3-83.3,31.3-83.3"/>
  <path class="st14" d="M91.6,392.5c-3.5,0-6.4-42.6-6.4-95.1s6.7-95.1,14.9-95.1"/>
  <path class="st5" d="M82.1,382.9c0,3.5,111.6-15,249.2-41.2,137.6-26.2,249.2-60.6,249.2-76.7"/>
  <path class="st5" d="M72.5,392.5c3.5,0,2.6-14-1.8-31.4s-21.1-31.4-37.2-31.4"/>
  <path class="st0" d="M82.1,402c0-3.4,84.7,21.3,189.3,55.3,104.5,34,189.3,68.1,189.3,76.3"/>
  <path class="st13" d="M82.1,402c0-3.5,111.6-27.6,249.2-53.8,137.6-26.2,249.2-34.5,249.2-18.4"/>
  <path class="st2" d="M82.1,382.9c0,3.2,57.4,42.2,128.2,87.1,70.8,44.9,128.2,74.1,128.2,65.1"/>
  <path class="st13" d="M72.5,392.5c2.9,0,34.3,31,70.3,69.3,35.9,38.3,57.2,69.3,47.5,69.3"/>
  <path class="st9" d="M72.5,392.5c3.5,0,23.2-65.8,44-147,20.9-81.2,31.1-147,22.9-147"/>
  <path class="st11" d="M82.1,402c0-3.2,57.4,30.6,128.2,75.6,70.8,44.9,128.2,88.6,128.2,97.6"/>
  <path class="st2" d="M72.5,392.5c3.1,0,63-79,133.8-176.4,70.8-97.4,115.4-176.4,99.7-176.4"/>
  <path class="st16" d="M82.1,382.9c0,3.4,84.7,33.7,189.3,67.7,104.5,34,189.3,54.9,189.3,46.7"/>
  <path class="st13" d="M91.6,392.5c-3.5,0-9.9-14-14.3-31.4-4.4-17.3,5-31.4,21.1-31.4"/>
  <path class="st6" d="M91.6,392.5c-3.5,0,10.6-65.8,31.5-147,20.9-81.2,44.4-147,52.6-147"/>
  <path class="st5" d="M91.6,392.5c-2.9,0,24,31,59.9,69.3,35.9,38.3,73,69.3,82.7,69.3"/>
  <path class="st10" d="M91.6,392.5c-3.1,0,51.8-79,122.6-176.4,70.8-97.4,140.9-176.4,156.7-176.4"/>
  <path class="st7" d="M72.5,392.5c3.5,0,6.4-42.6,6.4-95.1s-6.7-95.1-14.9-95.1"/>
  <path class="st13" d="M570.8,234.5l-336.8,278.7"/>
  <path class="st7" d="M572.4,236c0,.2-113.4,22-253.2,48.7-139.8,26.7-253.2,61.4-253.2,77.5"/>
  <path class="st16" d="M571.6,235.2l-103.8,262.1"/>
  <path class="st4" d="M575.2,233.2c.6,0-51.3,72.1-115.9,161-64.6,88.9-109.8,161-100.9,161"/>
  <path class="st14" d="M569.5,233.2c-.6,0-53.4,72.1-118,161-64.6,88.9-124.2,161-133.1,161"/>
  <path class="st6" d="M572.4,230.3c0-.2-113.4,21.2-253.2,47.9-139.8,26.7-253.2,35.2-253.2,19.1"/>
  <path class="st7" d="M569.5,233.2c-1.2,0-54.5-43.3-119.1-96.8-64.6-53.4-129.3-96.8-144.4-96.8"/>
  <path class="st6" d="M570.2,232.5L175.7,104.3"/>
  <path class="st11" d="M575.2,233.2c1.2,0-50.2-43.3-114.8-96.8-64.6-53.4-104.7-96.8-89.5-96.8"/>
  <path class="st6" d="M569.5,233.2c-.2,0,1.5,14.4,3.7,32.1,2.2,17.7-9,32.1-25.2,32.1"/>
  <path class="st7" d="M575.2,233.2c.2,0,2.2,14.4,4.4,32.1,2.2,17.7,17.1,32.1,33.3,32.1"/>
  <path class="st7" d="M569.7,233l-469.5-29.5"/>
  <path class="st7" d="M572.4,364.5c0,.4-80.6,38.6-180.1,85.4-99.4,46.8-180.1,93-180.1,103.2"/>
  <path class="st2" d="M570.8,362.9l-212.6,175.8"/>
  <path class="st9" d="M569.5,361.6c-.6,0-53.4-72.1-118-161-64.6-88.9-129.7-161-145.5-161"/>
  <path class="st12" d="M575.2,361.6c.6,0-51.3-72.1-115.9-161-64.6-88.9-104.2-161-88.5-161"/>
  <path class="st7" d="M570.2,360.9L100.2,208.2"/>
  <path class="st6" d="M575.2,361.6c.2,0,2.2-14.4,4.4-32.1s17.1-32.1,33.3-32.1"/>
  <path class="st6" d="M570.6,360.5L175.7,109.9"/>
  <path class="st7" d="M569.5,361.6c-.2,0,1.5-14.4,3.7-32.1s-9-32.1-25.2-32.1"/>
  <path class="st6" d="M572.4,358.8c0-.2-113.4-7.5-253.2-16.3-139.8-8.8-253.2-29-253.2-45.2"/>
  <path class="st16" d="M571.2,363.3l-97.4,134.1"/>
  <path class="st7" d="M572.4,364.5c0,.2-113.4-6.8-253.2-15.6-139.8-8.8-253.2-2.8-253.2,13.3"/>
  <path class="st6" d="M572.4,358.8c0-.4-80.6,37.3-180.1,84.1-99.4,46.8-180.1,76.5-180.1,66.3"/>
  <path class="st7" d="M510.5,123.5c0,.4-99.5,47.5-222.3,105.2-122.7,57.8-222.3,117.5-222.3,133.5"/>
  <path class="st6" d="M507.6,120.6c-.6,0-67.8,91.9-150.2,205.2s-157.2,205.2-167.1,205.2"/>
  <path class="st7" d="M508.1,121.1L100.2,198.9"/>
  <path class="st6" d="M510.5,117.7c0-.4-99.5,46.2-222.3,103.9-122.7,57.8-222.3,91.6-222.3,75.7"/>
  <path class="st16" d="M510.2,123.1l-47.3,374.2"/>
  <path class="st12" d="M510.5,123.5c0,.4-38.5-17.5-86-39.8-47.5-22.4-86-27.5-86-11.6"/>
  <path class="st7" d="M513.4,120.6c.3,0,16.2,39.6,35.6,88.4,19.3,48.8,48,88.4,64,88.4"/>
  <path class="st7" d="M513.4,120.6c.6,0-65.7,91.9-148.1,205.2-82.4,113.4-141.1,205.2-131.1,205.2"/>
  <path class="st6" d="M507.6,120.6c-.3,0,15.1,39.6,34.4,88.4,19.3,48.8,22,88.4,6,88.4"/>
  <path class="st9" d="M510.5,117.7c0-.4-38.5-18.8-86-41.1-47.5-22.4-86-53.4-86-69.4"/>
  <path class="st6" d="M507.8,120.4l-332.1-20.9"/>
  <path class="st2" d="M509.7,122.6l-163.3,412.5"/>
  <path class="st14" d="M160.5,496.4c.3,0,41-102.3,91-228.4,49.9-126.1,103.4-228.4,119.4-228.4"/>
  <path class="st14" d="M157,494.1L86.7,220.4"/>
  <path class="st2" d="M154.7,496.4c-.3,0,39.9-102.3,89.9-228.4,49.9-126.1,77.4-228.4,61.4-228.4"/>
  <path class="st14" d="M157.6,499.3c0,.4,94.7-43.9,211.5-98.9,116.8-55,211.5-86.6,211.5-70.6"/>
  <path class="st0" d="M160.3,496.6l282.2,17.8"/>
  <path class="st9" d="M154.7,496.4c-.4,0-21.3-37.3-46.6-83.3-25.3-46-58.7-83.3-74.6-83.3"/>
  <path class="st9" d="M157.6,493.5c0-.4,94.7-45.2,211.5-100.2,116.8-55,211.5-112.4,211.5-128.4"/>
  <path class="st11" d="M159.8,497.1l158.7,51.6"/>
  <path class="st14" d="M160.5,496.4c.4,0-19.7-37.3-45-83.3-25.3-46-32.9-83.3-17-83.3"/>
  <path class="st5" d="M159.3,497.5l31,19.7"/>
  <path class="st9" d="M157.6,493.5V116.5"/>
  <path class="st7" d="M215.1,63.7c.4,0-32,59.6-72.4,133-40.4,73.5-60.2,133-44.3,133"/>
  <path class="st9" d="M212.3,60.8c0-.2,28.2-5.8,63.1-12.4,34.8-6.6,63.1-25.1,63.1-41.2"/>
  <path class="st7" d="M210.9,65.2l-112.6,119.9"/>
  <path class="st6" d="M212.3,66.6c0,.5,82.4,53.2,184.1,117.8,101.7,64.5,184.1,129.7,184.1,145.5"/>
  <path class="st2" d="M212.8,66l120.5,469.2"/>
  <path class="st6" d="M209.4,63.7c-.4,0-33.5,59.6-73.9,133-40.4,73.5-86,133-101.9,133"/>
  <path class="st16" d="M213.3,65.5l237.4,431.8"/>
  <path class="st7" d="M212.3,60.8c0-.5,82.4,51.4,184.1,115.9s184.1,104,184.1,88.2"/>
  <path class="st13" d="M212.3,66.6v442.6"/>
  <path class="st6" d="M210.5,64.8l-34.8,22.1"/>
  <path class="st12" d="M212.3,66.6c0,.2,28.2-5,63.1-11.7,34.8-6.6,63.1,1,63.1,17.1"/>
  <path class="st6" d="M276.7,551.1c.8,0-45-49.5-102.4-110.7-57.4-61.1-91.4-110.7-75.9-110.7"/>
  <path class="st7" d="M271,551.1c-.2,0,14.1-114.5,32-255.7,17.8-141.2,19.2-255.7,3.1-255.7"/>
  <path class="st7" d="M271,551.1c-.8,0-48-49.5-105.4-110.7-57.4-61.1-116.5-110.7-132-110.7"/>
  <path class="st7" d="M271,551.1c-1.2,0,66.5-56.8,151.2-126.9s141.1-126.9,125.9-126.9"/>
  <path class="st7" d="M272.8,549.3L92,220.4"/>
  <path class="st6" d="M273.2,548.8L162.2,116.5"/>
  <path class="st6" d="M276.7,551.1c1.2,0,70.8-56.8,155.5-126.9s165.6-126.9,180.8-126.9"/>
  <path class="st16" d="M276.2,550.6l166.3-31.7"/>
  <path class="st2" d="M276.5,551.3l41.9,2.6"/>
  <path class="st11" d="M276.7,551.1c.2,0,14.8-114.5,32.6-255.7,17.8-141.2,45.4-255.7,61.5-255.7"/>
  <path class="st13" d="M271.7,550.4l-37.5-12.2"/>
  <path class="st14" d="M402,540.2c0-.5-75.2-48.6-168-107.5-92.8-58.9-168-119.5-168-135.3"/>
  <path class="st9" d="M399.2,543c-.6,0,38.9-55,88.2-122.8,49.3-67.8,76.5-122.8,60.7-122.8"/>
  <path class="st14" d="M404.9,543c.2,0-13.9-112.7-31.5-251.7s-18.7-251.7-2.6-251.7"/>
  <path class="st9" d="M402,545.9c0,.5-75.2-46.8-168-105.7-92.8-58.9-168-93.8-168-78"/>
  <path class="st11" d="M399.6,543.5l-41.2,7.9"/>
  <path class="st0" d="M404,542.1l38.5-18.1"/>
  <path class="st14" d="M404.9,543c.6,0,41-55,90.3-122.8,49.3-67.8,102-122.8,117.7-122.8"/>
  <path class="st5" d="M399.3,542.9l-165.2-10.4"/>
  <path class="st9" d="M401,541.2L167.6,116.5"/>
  <path class="st2" d="M399.2,543c-.2,0-14.6-112.7-32.1-251.7-17.6-139-44.9-251.7-61-251.7"/>
  <path class="st14" d="M400.6,541.6L98.3,219.6"/>
  <path class="st9" d="M546.5,420.1L175.5,113.2"/>
  <path class="st9" d="M548.6,425.6c0-.3-108-21.2-241.3-46.6s-241.3-33-241.3-16.8"/>
  <path class="st0" d="M546.7,423.8l-69.9,74.4"/>
  <path class="st14" d="M548.6,418c0,.3-108-20-241.3-45.4-133.3-25.4-241.3-59.1-241.3-75.2"/>
  <path class="st4" d="M548.6,425.6s-47,29.8-105.1,66.6c-58,36.8-105.1,74-105.1,82.9"/>
  <path class="st7" d="M544.7,421.8c.3,0,7.7-27.9,16.5-62.2,8.8-34.4,2.9-62.2-13.2-62.2"/>
  <path class="st6" d="M552.4,421.8c-.3,0,6.6-27.9,15.4-62.2,8.8-34.4,29-62.2,45.1-62.2"/>
  <path class="st6" d="M552.4,421.8c0,0-47.2-85.6-105.2-191.1s-92.2-191.1-76.3-191.1"/>
  <path class="st4" d="M544.7,421.8c0,0-46.8-85.6-104.9-191.1-58-105.5-117.9-191.1-133.8-191.1"/>
  <path class="st14" d="M546,420.6L100.2,210.8"/>
  <path class="st9" d="M548.6,425.6c0-.3-75.3,24-168.1,54.2-92.9,30.2-168.1,63-168.1,73.2"/>
  <path class="st14" d="M548.6,418c0,.3-75.3,24.9-168.1,55.1-92.9,30.2-168.1,46.3-168.1,36"/>
  <path class="st14" d="M548.6,418s-47,29.9-105.1,66.7c-58,36.8-105.1,59.4-105.1,50.4"/>
  <path class="st7" d="M458.5,80L100.2,196.4"/>
  <path class="st7" d="M463.5,79.3c.4,0,27.6,48.8,60.7,109,33.1,60.2,72.8,109,88.7,109"/>
  <path class="st6" d="M460.6,76.5c0-.5-88.3,55.2-197.3,124.3-109,69.2-197.3,112.4-197.3,96.6"/>
  <path class="st6" d="M457.8,79.3c-.4,0,26.1,48.8,59.2,109,33.1,60.2,47.1,109,31.1,109"/>
  <path class="st13" d="M459.6,81.2l-235.3,428"/>
  <path class="st6" d="M457.9,79.5l-282.2,17.8"/>
  <path class="st7" d="M460.6,82.2c0,.5-88.3,57-197.3,126.1-109,69.2-197.3,138-197.3,153.9"/>
  <path class="st2" d="M460,81.6l-116.4,453.5"/>
  <path class="st9" d="M460.6,82.2c0,.3-27.3-8.4-61.1-19.4-33.7-11-61.1-6.8-61.1,9.2"/>
  <path class="st12" d="M460.6,76.5c0-.3-27.3-9.4-61.1-20.3-33.7-11-61.1-32.9-61.1-48.9"/>
  <path class="st16" d="M460.6,82.2v415.2"/>
  <path class="st7" d="M508.1,472.7L100.2,213.8"/>
  <path class="st14" d="M112.3,147.4l-20.2,36.8"/>
  <path class="st14" d="M272.3,45L100,187.5"/>
  <path class="st6" d="M508.5,472.1L173.8,115.7"/>
  <path class="st9" d="M271.9,44.6l-96.2,45.3"/>
  <path class="st9" d="M114.7,144.1l26.7-28.5"/>
  <path class="st5" d="M113.9,147.9l92.8,361.3"/>
  <path class="st13" d="M507.7,474.7l-273.5,52.2"/>
  <path class="st5" d="M273.5,46.2l-58.5,462.9"/>
  <path class="st14" d="M273.8,46.6c0,.2,14.5-.6,32.3-1.7,17.8-1.1,32.3,11.1,32.3,27.2"/>
  <path class="st2" d="M273.8,40.8c0-.2,14.5-1.2,32.3-2.4,17.8-1.1,32.3-15.1,32.3-31.3"/>
  <path class="st11" d="M513.4,474.2c.3,0-38-97.3-85.5-217.3s-73-217.3-57-217.3"/>
  <path class="st4" d="M113.3,142.7c0-.4,50.4-24.4,112.6-53.6,62.2-29.3,112.6-65.9,112.6-81.9"/>
  <path class="st7" d="M507.6,474.2c-.3,0-39.1-97.3-86.6-217.3s-99-217.3-115-217.3"/>
  <path class="st6" d="M113.3,148.4c0,.4,50.4-23.1,112.6-52.3s112.6-40,112.6-24.1"/>
  <path class="st7" d="M507.6,474.2c-.3,0,15.1-39.6,34.4-88.4s22-88.4,6-88.4"/>
  <path class="st9" d="M276.7,43.7c1.2,0,70.8,56.8,155.5,126.9s165.6,126.9,180.8,126.9"/>
  <path class="st14" d="M113.3,148.4c0,.3,104.6,34.5,233.6,76.4s233.6,88.9,233.6,105"/>
  <path class="st6" d="M513.4,474.2c.3,0,16.2-39.6,35.6-88.4,19.3-48.8,48-88.4,64-88.4"/>
  <path class="st14" d="M271,43.7c-1.2,0,66.5,56.8,151.2,126.9s141.1,126.9,125.9,126.9"/>
  <path class="st9" d="M113.3,142.7c0-.3,104.6,33.5,233.6,75.4,129,41.9,233.6,62.9,233.6,46.8"/>
  <path class="st7" d="M510.5,477.1c0,.3-99.5-31.9-222.3-71.7-122.7-39.9-222.3-59.2-222.3-43.1"/>
  <path class="st6" d="M510.5,471.3c0-.3-99.5-32.8-222.3-72.7-122.7-39.9-222.3-85.2-222.3-101.3"/>
  <path class="st14" d="M271,43.7c-.6,0-47.6,64-105,143-57.4,79-116.7,143-132.4,143"/>
  <path class="st9" d="M276.7,43.7c.6,0-45.5,64-102.9,143-57.4,79-91.2,143-75.4,143"/>
  <path class="st9" d="M110.4,145.6c-.2,0-11,41.2-24.1,92.1-13.1,50.9-36.7,92.1-52.8,92.1"/>
  <path class="st14" d="M116.1,145.6c.2,0-10.2,41.2-23.2,92.1-13.1,50.9-10.6,92.1,5.5,92.1"/>
  <path class="st0" d="M114.7,147.1l329.7,351.1"/>
  <path class="st0" d="M274.6,45.7l178.8,451.6"/>
  <path class="st16" d="M508.3,476l-29.8,24.6"/>
  <path class="st11" d="M114.3,147.4l213.1,387.7"/>
  <path class="st11" d="M274.1,46.2l61.8,488.9"/>
  <path class="st2" d="M507.9,475.4l-149.4,70.3"/>
  <path class="st15" d="M402,49.5l2.2,2.2-2.2,2.2-2.2-2.2,2.2-2.2Z"/>
  <path class="st23" d="M402,49.5l2.2,2.2-2.2,2.2-2.2-2.2,2.2-2.2Z"/>
  <g class="st20">
    <text class="st21" transform="translate(402.4 43.7)"><tspan x="0" y="0">Lauroylcarnitine</tspan></text>
  </g>
  <path class="st15" d="M548.6,170.7l2.2,2.2-2.2,2.2-2.2-2.2,2.2-2.2Z"/>
  <path class="st23" d="M548.6,170.7l2.2,2.2-2.2,2.2-2.2-2.2,2.2-2.2Z"/>
  <g class="st20">
    <text class="st21" transform="translate(555.5 168.4)"><tspan x="0" y="0">Isovalerylcarnitine</tspan></text>
  </g>
  <path class="st15" d="M113.3,447l2.2,2.2-2.2,2.2-2.2-2.2,2.2-2.2Z"/>
  <path class="st23" d="M113.3,447l2.2,2.2-2.2,2.2-2.2-2.2,2.2-2.2Z"/>
  <g class="st20">
    <text class="st21" transform="translate(72.8 461.8)"><tspan x="0" y="0">CARNITINE</tspan></text>
  </g>
  <path class="st15" d="M66,245.6l19.4,19.4-19.4,19.4-19.4-19.4,19.4-19.4Z"/>
  <path class="st23" d="M66,245.6l19.4,19.4-19.4,19.4-19.4-19.4,19.4-19.4Z"/>
  <g class="st20">
    <text class="st21" transform="translate(7.3 248.6)"><tspan x="0" y="0">Butyrylcarnitine</tspan></text>
  </g>
  <path class="st15" d="M82.1,383.6l8.9,8.9-8.9,8.9-8.9-8.9,8.9-8.9Z"/>
  <path class="st23" d="M82.1,383.6l8.9,8.9-8.9,8.9-8.9-8.9,8.9-8.9Z"/>
  <g class="st20">
    <text class="st21" transform="translate(28.3 408.8)"><tspan x="0" y="0">Acetylcarnitine</tspan></text>
  </g>
  <path class="st15" d="M572.4,230.9l2.2,2.2-2.2,2.2-2.2-2.2,2.2-2.2Z"/>
  <path class="st23" d="M572.4,230.9l2.2,2.2-2.2,2.2-2.2-2.2,2.2-2.2Z"/>
  <g class="st20">
    <text class="st21" transform="translate(560.3 236)"><tspan x="0" y="0">14140</tspan></text>
  </g>
  <path class="st15" d="M572.4,359.4l2.2,2.2-2.2,2.2-2.2-2.2,2.2-2.2Z"/>
  <path class="st23" d="M572.4,359.4l2.2,2.2-2.2,2.2-2.2-2.2,2.2-2.2Z"/>
  <g class="st20">
    <text class="st21" transform="translate(575.2 366.2)"><tspan x="0" y="0">10826</tspan></text>
  </g>
  <path class="st15" d="M510.5,118.4l2.2,2.2-2.2,2.2-2.2-2.2,2.2-2.2Z"/>
  <path class="st23" d="M510.5,118.4l2.2,2.2-2.2,2.2-2.2-2.2,2.2-2.2Z"/>
  <g class="st20">
    <text class="st21" transform="translate(519.7 117.7)"><tspan x="0" y="0">9256</tspan></text>
  </g>
  <path class="st15" d="M157.6,494.2l2.2,2.2-2.2,2.2-2.2-2.2,2.2-2.2Z"/>
  <path class="st23" d="M157.6,494.2l2.2,2.2-2.2,2.2-2.2-2.2,2.2-2.2Z"/>
  <g class="st20">
    <text class="st21" transform="translate(134.5 505.5)"><tspan x="0" y="0">8443</tspan></text>
  </g>
  <path class="st15" d="M212.3,61.5l2.2,2.2-2.2,2.2-2.2-2.2,2.2-2.2Z"/>
  <path class="st23" d="M212.3,61.5l2.2,2.2-2.2,2.2-2.2-2.2,2.2-2.2Z"/>
  <g class="st20">
    <text class="st21" transform="translate(191 56.7)"><tspan x="0" y="0">7462</tspan></text>
  </g>
  <path class="st15" d="M273.8,548.9l2.2,2.2-2.2,2.2-2.2-2.2,2.2-2.2Z"/>
  <path class="st23" d="M273.8,548.9l2.2,2.2-2.2,2.2-2.2-2.2,2.2-2.2Z"/>
  <g class="st20">
    <text class="st21" transform="translate(228 558.7)"><tspan x="0" y="0">phenylpropionyl-carnitine</tspan></text>
  </g>
  <path class="st15" d="M402,540.8l2.2,2.2-2.2,2.2-2.2-2.2,2.2-2.2Z"/>
  <path class="st23" d="M402,540.8l2.2,2.2-2.2,2.2-2.2-2.2,2.2-2.2Z"/>
  <g class="st20">
    <text class="st21" transform="translate(406.8 551.1)"><tspan x="0" y="0">3124</tspan></text>
  </g>
  <path class="st15" d="M548.6,418.6l3.2,3.2-3.2,3.2-3.2-3.2,3.2-3.2Z"/>
  <path class="st23" d="M548.6,418.6l3.2,3.2-3.2,3.2-3.2-3.2,3.2-3.2Z"/>
  <g class="st20">
    <text class="st21" transform="translate(552.6 425.6)"><tspan x="0" y="0">phenylacetyl-carnitine</tspan></text>
  </g>
  <path class="st15" d="M460.6,77.1l2.2,2.2-2.2,2.2-2.2-2.2,2.2-2.2Z"/>
  <path class="st23" d="M460.6,77.1l2.2,2.2-2.2,2.2-2.2-2.2,2.2-2.2Z"/>
  <g class="st20">
    <text class="st21" transform="translate(467.8 75.8)"><tspan x="0" y="0">benzoyl-carnitine</tspan></text>
  </g>
  <path class="st15" d="M64.6,189.2v26.2c0,2.4,2,4.4,4.4,4.4h26.2c2.4,0,4.4-2,4.4-4.4v-26.2c0-2.4-2-4.4-4.4-4.4h-26.2c-2.4,0-4.4,2-4.4,4.4Z"/>
  <path class="st19" d="M64.6,189.2v26.2c0,2.4,2,4.4,4.4,4.4h26.2c2.4,0,4.4-2,4.4-4.4v-26.2c0-2.4-2-4.4-4.4-4.4h-26.2c-2.4,0-4.4,2-4.4,4.4Z"/>
  <g class="st20">
    <text class="st21" transform="translate(54.1 203.5)"><tspan x="0" y="0"> Mucispirillum</tspan></text>
  </g>
  <path class="st15" d="M140.1,85.3v26.2c0,2.4,2,4.4,4.4,4.4h26.2c2.4,0,4.4-2,4.4-4.4v-26.2c0-2.4-2-4.4-4.4-4.4h-26.2c-2.4,0-4.4,2-4.4,4.4Z"/>
  <path class="st19" d="M140.1,85.3v26.2c0,2.4,2,4.4,4.4,4.4h26.2c2.4,0,4.4-2,4.4-4.4v-26.2c0-2.4-2-4.4-4.4-4.4h-26.2c-2.4,0-4.4,2-4.4,4.4Z"/>
  <g class="st20">
    <text class="st21" transform="translate(132.6 99.5)"><tspan x="0" y="0"> Helicobacter G</tspan></text>
  </g>
  <path class="st15" d="M191,515.1v31.9c0,2.9,2.4,5.3,5.3,5.3h31.9c2.9,0,5.3-2.4,5.3-5.3v-31.9c0-2.9-2.4-5.3-5.3-5.3h-31.9c-2.9,0-5.3,2.4-5.3,5.3Z"/>
  <path class="st19" d="M191,515.1v31.9c0,2.9,2.4,5.3,5.3,5.3h31.9c2.9,0,5.3-2.4,5.3-5.3v-31.9c0-2.9-2.4-5.3-5.3-5.3h-31.9c-2.9,0-5.3,2.4-5.3,5.3Z"/>
  <g class="st20">
    <text class="st21" transform="translate(177.1 534)"><tspan x="0" y="0"> Helicobacter D</tspan></text>
  </g>
  <path class="st15" d="M306.7,15.8v47.7c0,4.4,3.6,7.9,7.9,7.9h47.7c4.4,0,7.9-3.6,7.9-7.9V15.8c0-4.4-3.6-7.9-7.9-7.9h-47.7c-4.4,0-7.9,3.6-7.9,7.9Z"/>
  <path class="st19" d="M306.7,15.8v47.7c0,4.4,3.6,7.9,7.9,7.9h47.7c4.4,0,7.9-3.6,7.9-7.9V15.8c0-4.4-3.6-7.9-7.9-7.9h-47.7c-4.4,0-7.9,3.6-7.9,7.9Z"/>
  <g class="st20">
    <text class="st21" transform="translate(317.3 39.7)"><tspan x="0" y="0"> Helicobacter C</tspan></text>
  </g>
  <path class="st15" d="M548.7,273.6v47.7c0,4.4,3.6,7.9,7.9,7.9h47.7c4.4,0,7.9-3.6,7.9-7.9v-47.7c0-4.4-3.6-7.9-7.9-7.9h-47.7c-4.4,0-7.9,3.6-7.9,7.9Z"/>
  <path class="st19" d="M548.7,273.6v47.7c0,4.4,3.6,7.9,7.9,7.9h47.7c4.4,0,7.9-3.6,7.9-7.9v-47.7c0-4.4-3.6-7.9-7.9-7.9h-47.7c-4.4,0-7.9,3.6-7.9,7.9Z"/>
  <g class="st20">
    <text class="st21" transform="translate(552.4 300.3)"><tspan x="0" y="0"> Helicobacter B</tspan></text>
  </g>
  <path class="st15" d="M34.2,305.9v47.7c0,4.4,3.6,7.9,7.9,7.9h47.7c4.4,0,7.9-3.6,7.9-7.9v-47.7c0-4.4-3.6-7.9-7.9-7.9h-47.7c-4.4,0-7.9,3.6-7.9,7.9Z"/>
  <path class="st19" d="M34.2,305.9v47.7c0,4.4,3.6,7.9,7.9,7.9h47.7c4.4,0,7.9-3.6,7.9-7.9v-47.7c0-4.4-3.6-7.9-7.9-7.9h-47.7c-4.4,0-7.9,3.6-7.9,7.9Z"/>
  <g class="st20">
    <text class="st21" transform="translate(38.6 333.6)"><tspan x="0" y="0"> Helicobacter A</tspan></text>
  </g>
  <path class="st15" d="M443.1,502.4v26.2c0,2.4,2,4.4,4.4,4.4h26.2c2.4,0,4.4-2,4.4-4.4v-26.2c0-2.4-2-4.4-4.4-4.4h-26.2c-2.4,0-4.4,2-4.4,4.4h0Z"/>
  <path class="st18" d="M441.4,501.1v28.8c0,2.6,2.6,4.8,8,4.8h33.8c.8,0,3.3-2.2,3.3-4.8v-28.8c0-2.6-2.6-4.8-5.7-4.8h-33.8c-3.1,0-5.7,2.2-5.7,4.8h0Z"/>
  <g class="st20">
    <text class="st21" transform="translate(443.4 518.9)"><tspan x="0" y="0"> Escherichia</tspan></text>
  </g>
  <path class="st15" d="M319.1,540.6v29.1c0,2.7,2.2,4.8,4.8,4.8h29.1c2.7,0,4.8-2.2,4.8-4.8v-29.1c0-2.7-2.2-4.8-4.8-4.8h-29.1c-2.7,0-4.8,2.2-4.8,4.8Z"/>
  <path class="st19" d="M319.1,540.6v29.1c0,2.7,2.2,4.8,4.8,4.8h29.1c2.7,0,4.8-2.2,4.8-4.8v-29.1c0-2.7-2.2-4.8-4.8-4.8h-29.1c-2.7,0-4.8,2.2-4.8,4.8Z"/>
  <g class="st20">
    <text class="st21" transform="translate(316.8 558.6)"><tspan x="0" y="0"> Akkermansia</tspan></text>
  </g>
  <path class="st15" d="M273.8,41.5l2.2,2.2-2.2,2.2-2.2-2.2,2.2-2.2Z"/>
  <path class="st23" d="M273.8,41.5l2.2,2.2-2.2,2.2-2.2-2.2,2.2-2.2Z"/>
  <g class="st20">
    <text class="st21" transform="translate(263.3 38.2)"><tspan x="0" y="0">810</tspan></text>
  </g>
  <path class="st15" d="M512.7,474.2c0,1.2-1,2.2-2.2,2.2s-2.2-1-2.2-2.2,1-2.2,2.2-2.2,2.2,1,2.2,2.2Z"/>
  <path class="st22" d="M512.7,474.2c0,1.2-1,2.2-2.2,2.2s-2.2-1-2.2-2.2,1-2.2,2.2-2.2,2.2,1,2.2,2.2Z"/>
  <g class="st20">
    <text class="st21" transform="translate(513.4 477.6)"><tspan x="0" y="0">Palmitoylcarnitine</tspan></text>
  </g>
  <path class="st15" d="M113.3,143.4l2.2,2.2-2.2,2.2-2.2-2.2,2.2-2.2Z"/>
  <path class="st23" d="M113.3,143.4l2.2,2.2-2.2,2.2-2.2-2.2,2.2-2.2Z"/>
  <g class="st20">
    <text class="st21" transform="translate(46 144.5)"><tspan x="0" y="0">Propionylcarnitine</tspan></text>
  </g>
</svg>