<?xml version="1.0" encoding="UTF-8"?>
<svg id="Layer_1" xmlns="http://www.w3.org/2000/svg" xmlns:xlink="http://www.w3.org/1999/xlink" xmlns:ev="http://www.w3.org/2001/xml-events" version="1.1" viewBox="0 0 951 589">
  <!-- Generator: Adobe Illustrator 29.2.1, SVG Export Plug-In . SVG Version: 2.1.0 Build 116)  -->
  <defs>
    <style>
      .st0, .st1, .st2, .st3, .st4, .st5, .st6, .st7, .st8, .st9, .st10, .st11, .st12, .st13, .st14, .st15, .st16, .st17, .st18, .st19, .st20, .st21, .st22, .st23, .st24, .st25, .st26, .st27, .st28, .st29, .st30, .st31, .st32, .st33, .st34 {
        fill: none;
        stroke-miterlimit: 7;
      }

      .st0, .st1, .st2, .st3, .st4, .st5, .st6, .st8, .st9, .st10, .st11, .st12, .st13, .st14, .st15, .st16, .st17, .st18, .st19, .st20, .st21, .st22, .st23, .st24, .st25, .st26, .st27, .st28, .st29, .st30, .st31, .st32, .st33, .st34 {
        stroke-linecap: round;
      }

      .st0, .st1, .st2, .st3, .st4, .st5, .st7, .st19, .st20, .st21, .st22, .st24, .st25, .st28, .st29, .st30, .st32, .st33 {
        stroke: #cb181d;
      }

      .st0, .st18 {
        stroke-width: .6px;
      }

      .st1, .st27 {
        stroke-width: 1.7px;
      }

      .st2 {
        stroke-width: 1.3px;
      }

      .st3, .st23 {
        stroke-width: 1.1px;
      }

      .st4, .st26 {
        stroke-width: .8px;
      }

      .st5, .st31 {
        stroke-width: 1.5px;
      }

      .st35, .st36 {
        font-size: 10px;
      }

      .st35, .st36, .st37, .st38, .st39 {
        isolation: isolate;
      }

      .st35, .st36, .st39 {
        font-family: Helvetica, Helvetica;
      }

      .st35, .st37 {
        fill: #fff;
      }

      .st40, .st41 {
        fill: #ccc;
      }

      .st40, .st42 {
        stroke: #231f20;
        stroke-miterlimit: 10;
        stroke-width: .5px;
      }

      .st6 {
        stroke-width: 1.9px;
      }

      .st6, .st8, .st9, .st10, .st11, .st12, .st13, .st14, .st15, .st16, .st17, .st18, .st23, .st26, .st27, .st31 {
        stroke: #3690c0;
      }

      .st7 {
        stroke-linecap: square;
      }

      .st8 {
        stroke-width: 5.5px;
      }

      .st9, .st22 {
        stroke-width: 5.4px;
      }

      .st10, .st19 {
        stroke-width: 5px;
      }

      .st11 {
        stroke-width: 5px;
      }

      .st12, .st20 {
        stroke-width: 4.8px;
      }

      .st13 {
        stroke-width: 2.7px;
      }

      .st14 {
        stroke-width: 4.5px;
      }

      .st15, .st29 {
        stroke-width: 4.6px;
      }

      .st16, .st28 {
        stroke-width: 4.4px;
      }

      .st17, .st24 {
        stroke-width: 3.2px;
      }

      .st21 {
        stroke-width: 5.5px;
      }

      .st25 {
        stroke-width: 2.9px;
      }

      .st30 {
        stroke-width: 3.7px;
      }

      .st37, .st38 {
        font-family: Helvetica-Bold, Helvetica;
        font-weight: 700;
      }

      .st37, .st39 {
        font-size: 14px;
      }

      .st43, .st42 {
        fill: #666;
      }

      .st32 {
        stroke-width: 3px;
      }

      .st33 {
        stroke-width: 3.1px;
      }

      .st38 {
        font-size: 12px;
      }

      .st34 {
        stroke: #000;
        stroke-width: 1.7px;
      }
    </style>
  </defs>
  <path class="st23" d="M607,406.5l8.3,84.5"/>
  <path class="st33" d="M629.8,383.8l23.1,22.3"/>
  <path class="st6" d="M651.3,362.2l104.5,11"/>
  <path class="st24" d="M650,350.5c-20.5,2.8-2,23.9,41.3,47.1,43.3,23.2,80.2,41.8,82.3,41.6"/>
  <path class="st18" d="M554.4,363.6c20.5-2.8,72.2,13.8,115.5,37,43.3,23.2,76.7,42.3,74.5,42.6"/>
  <path class="st7" d="M629.5,384l141.7,139.8"/>
  <path class="st2" d="M618.5,395.1l56.6,131.7"/>
  <path class="st7" d="M643.3,370.3l225.6,72.9"/>
  <path class="st17" d="M626.1,387.4l66,83.7"/>
  <path class="st32" d="M642.7,343.2c-16.9,5.8-143.2-47.6-282.2-119.1C221.5,152.6,125.4,88.9,145.8,82"/>
  <path class="st8" d="M561.7,370.9c16.9-5.8-82.1-68.4-221-140C201.7,159.4,72.5,107,52.1,114"/>
  <path class="st25" d="M648.3,365.3l214.7,38.2"/>
  <path class="st21" d="M587.4,317.5c7.1,18.9-56.7,49.3-142.3,67.9-85.7,18.6-157.3,27.9-159.9,20.8"/>
  <path class="st4" d="M635.4,378.1l161.8,102.6"/>
  <path class="st17" d="M617,396.6c-7.1-18.9-82.2-19.2-167.9-.6-85.7,18.6-153,39.3-150.3,46.4"/>
  <path class="st25" d="M635.1,335.7c-13.6,8.8-128.7,6.8-257.2-4.5-128.5-11.3-215.4-31.7-194.2-45.5"/>
  <path class="st14" d="M568.8,336.1c16.2,10.2,24.6-46.8,18.8-127.2-5.8-80.4-29.8-157.7-53.4-172.6"/>
  <path class="st12" d="M587.1,317.7c7.6,19.7-38.6,58.6-103.2,86.8-64.5,28.2-119.1,45-122,37.6"/>
  <path class="st33" d="M617.2,396.4c-7.6-19.7-66-12.9-130.5,15.3-64.5,28.2-114.5,57-111.7,64.4"/>
  <path class="st11" d="M569.2,378.5c13.6-8.8-79.6-25.1-208.1-36.4-128.5-11.3-249.9-9.2-271.2,4.6"/>
  <path class="st30" d="M635.5,378c-16.2-10.2-34.1-83.6-39.9-164.1-5.8-80.4,8.6-133.6,32.3-118.7"/>
  <path class="st26" d="M531.3,276.8c-4.6-1.9-41,39-81.2,91.2-40.3,52.3-69.2,96.1-64.6,98"/>
  <path class="st3" d="M497.5,262.9c4.6,1.9-24.4,45.8-64.7,98-40.3,52.3-76.7,93.1-81.3,91.2"/>
  <path class="st10" d="M511.4,290.7c.5-3.7-92-45.2-206.8-92.6-114.7-47.5-209.8-71.3-212.4-53.2"/>
  <path class="st19" d="M517.4,249c-.5,3.7-94-31.8-208.7-79.2C194,122.3,103.1,69.2,105.7,51.1"/>
  <path class="st5" d="M508.2,252.1s-49.8,34.5-111.3,77.2c-61.4,42.6-111.3,77.1-111.4,76.9"/>
  <path class="st1" d="M511.6,248.7c.4,3.1-83.8,15.9-188.1,28.7-104.3,12.8-190.6,9.1-192.9-8.1"/>
  <path class="st23" d="M520.6,287.5s-49.8,34.6-111.2,77.3c-61.4,42.6-111.2,77.4-111.1,77.6"/>
  <path class="st22" d="M537,268.6c-9.4.5-2.2-44.7,16.2-101.1,18.4-56.3,51.8-103,74.7-104.3"/>
  <path class="st27" d="M517.2,290.9c-.4-3.1-85.2,4.8-189.5,17.6-104.3,12.8-187,37.2-184.7,54.5"/>
  <path class="st9" d="M491.8,271.1c9.4-.5,32-46.6,50.4-102.9,18.4-56.3,14.8-101-8-99.7"/>
  <path class="st18" d="M392.6,81.1l-210.7,193.6"/>
  <path class="st20" d="M386.2,74.8l-240.4,19.4"/>
  <path class="st2" d="M416,72.9l118.1-5.1"/>
  <path class="st28" d="M233.3,153.2l-87.5-35.9"/>
  <path class="st18" d="M238.1,167.2l-69.4,102.1"/>
  <path class="st5" d="M256.9,154.4l277.2-75.8"/>
  <path class="st28" d="M422.6,197.7L145.8,112.4"/>
  <path class="st18" d="M423.3,205.8l-239.6,92.3"/>
  <path class="st5" d="M442.9,193.8l93.2-86.4"/>
  <path class="st31" d="M248,212l286.2-125.6"/>
  <path class="st0" d="M229.1,224.7l-48.6,48.2"/>
  <path class="st15" d="M228.5,209.5l-83.6-71.9"/>
  <path class="st18" d="M360.4,214.7l-176.7,80.2"/>
  <path class="st28" d="M360.1,205.2l-214.2-87.9"/>
  <path class="st5" d="M380.6,203.3l153.5-105.3"/>
  <path class="st18" d="M293.2,196.4l-109.5,83.9"/>
  <path class="st1" d="M313.1,184.7l221.1-98.1"/>
  <path class="st20" d="M291.3,184.6l-145.4-65.5"/>
  <path class="st0" d="M402.3,116.4l-218.6,164.5"/>
  <path class="st16" d="M396.1,109l-250.3-9.3"/>
  <path class="st31" d="M423.9,106.4l110.3-28.4"/>
  <path class="st26" d="M436.8,169.3l-134.5,236.8"/>
  <path class="st4" d="M453.1,151.7l81.1-54.4"/>
  <path class="st13" d="M428.5,156l-282.7-49.8"/>
  <path class="st4" d="M431.7,164.3l-248,127.7"/>
  <path class="st18" d="M239.9,101.1l-80.6,168.2"/>
  <path class="st28" d="M230,91.2l-84.1,4.4"/>
  <path class="st5" d="M259.7,89.3l274.4-20.1"/>
  <path class="st28" d="M241.1,248.7l-100.1-106.1"/>
  <path class="st16" d="M347.6,161.2l-201.7-51.3"/>
  <path class="st29" d="M345.6,242.3l-199.8-116.9"/>
  <path class="st16" d="M329.7,20.9l-183.9,61.4"/>
  <path class="st16" d="M310.1,90.1l-164.3,6.1"/>
  <path class="st16" d="M307.7,126.7l-161.9-22.3"/>
  <path class="st31" d="M339.8,88.2l194.3-18.1"/>
  <path class="st31" d="M334.3,125.5l199.8-48.4"/>
  <path class="st31" d="M354.7,19.7l179.5,36.6"/>
  <path class="st1" d="M364.3,241.1l170.1-137.6"/>
  <path class="st5" d="M258.8,251.1l275.3-158.3"/>
  <path class="st31" d="M371.1,159.5l163.1-72.8"/>
  <path class="st0" d="M313.8,136.6l-133.8,135.8"/>
  <path class="st0" d="M350.8,170.8l-167,113.5"/>
  <path class="st18" d="M343.6,251.9l-159.8,49.7"/>
  <path class="st0" d="M335.1,26.4l-166.2,242.9"/>
  <path class="st0" d="M318.2,98.2l-142.8,171.6"/>
  <path class="st18" d="M238.5,262.3l-54.8,29"/>
  <path class="st34" d="M604,495v19c0,1.7,1.4,3.2,3.2,3.2h19c1.7,0,3.2-1.4,3.2-3.2v-19c0-1.7-1.4-3.2-3.2-3.2h-19c-1.7,0-3.2,1.4-3.2,3.2Z"/>
  <path class="st41" d="M604,495v19c0,1.7,1.4,3.2,3.2,3.2h19c1.7,0,3.2-1.4,3.2-3.2v-19c0-1.7-1.4-3.2-3.2-3.2h-19c-1.7,0-3.2,1.4-3.2,3.2Z"/>
  <text class="st36" transform="translate(575.1 508.3)"><tspan x="0" y="0"> Ligilactobacillus</tspan></text>
  <path class="st34" d="M652.9,408.9v19c0,1.7,1.4,3.2,3.2,3.2h19c1.7,0,3.2-1.4,3.2-3.2v-19c0-1.7-1.4-3.2-3.2-3.2h-19c-1.7,0-3.2,1.4-3.2,3.2Z"/>
  <path class="st41" d="M652.9,408.9v19c0,1.7,1.4,3.2,3.2,3.2h19c1.7,0,3.2-1.4,3.2-3.2v-19c0-1.7-1.4-3.2-3.2-3.2h-19c-1.7,0-3.2,1.4-3.2,3.2Z"/>
  <text class="st36" transform="translate(613.9 422.2)"><tspan x="0" y="0"> Lacticaseibacillus</tspan></text>
  <path class="st34" d="M756.6,365.2v19c0,1.7,1.4,3.2,3.2,3.2h19c1.7,0,3.2-1.4,3.2-3.2v-19c0-1.7-1.4-3.2-3.2-3.2h-19c-1.7,0-3.2,1.4-3.2,3.2Z"/>
  <path class="st41" d="M756.6,365.2v19c0,1.7,1.4,3.2,3.2,3.2h19c1.7,0,3.2-1.4,3.2-3.2v-19c0-1.7-1.4-3.2-3.2-3.2h-19c-1.7,0-3.2,1.4-3.2,3.2Z"/>
  <text class="st36" transform="translate(738 378.5)"><tspan x="0" y="0"> Escherichia</tspan></text>
  <path class="st34" d="M745.2,430.9v20.7c0,1.9,1.5,3.5,3.5,3.5h20.7c1.9,0,3.5-1.5,3.5-3.5v-20.7c0-1.9-1.5-3.5-3.5-3.5h-20.7c-1.9,0-3.5,1.5-3.5,3.5Z"/>
  <path class="st41" d="M745.2,430.9v20.7c0,1.9,1.5,3.5,3.5,3.5h20.7c1.9,0,3.5-1.5,3.5-3.5v-20.7c0-1.9-1.5-3.5-3.5-3.5h-20.7c-1.9,0-3.5,1.5-3.5,3.5Z"/>
  <text class="st36" transform="translate(704.8 445)"><tspan x="0" y="0"> Cryptobacteroides</tspan></text>
  <path class="st34" d="M771.2,526.7v19c0,1.7,1.4,3.2,3.2,3.2h19c1.7,0,3.2-1.4,3.2-3.2v-19c0-1.7-1.4-3.2-3.2-3.2h-19c-1.7,0-3.2,1.4-3.2,3.2Z"/>
  <path class="st41" d="M771.2,526.7v19c0,1.7,1.4,3.2,3.2,3.2h19c1.7,0,3.2-1.4,3.2-3.2v-19c0-1.7-1.4-3.2-3.2-3.2h-19c-1.7,0-3.2,1.4-3.2,3.2Z"/>
  <text class="st36" transform="translate(722.2 540)"><tspan x="0" y="0"> Companilactobacillus</tspan></text>
  <path class="st34" d="M668.2,530.8v19c0,1.7,1.4,3.2,3.2,3.2h19c1.7,0,3.2-1.4,3.2-3.2v-19c0-1.7-1.4-3.2-3.2-3.2h-19c-1.7,0-3.2,1.4-3.2,3.2Z"/>
  <path class="st41" d="M668.2,530.8v19c0,1.7,1.4,3.2,3.2,3.2h19c1.7,0,3.2-1.4,3.2-3.2v-19c0-1.7-1.4-3.2-3.2-3.2h-19c-1.7,0-3.2,1.4-3.2,3.2Z"/>
  <text class="st36" transform="translate(637.2 544.1)"><tspan x="0" y="0"> Clostridium</tspan></text>
  <path class="st34" d="M869.7,438.1v19c0,1.7,1.4,3.2,3.2,3.2h19c1.7,0,3.2-1.4,3.2-3.2v-19c0-1.7-1.4-3.2-3.2-3.2h-19c-1.7,0-3.2,1.4-3.2,3.2Z"/>
  <path class="st41" d="M869.7,438.1v19c0,1.7,1.4,3.2,3.2,3.2h19c1.7,0,3.2-1.4,3.2-3.2v-19c0-1.7-1.4-3.2-3.2-3.2h-19c-1.7,0-3.2,1.4-3.2,3.2Z"/>
  <text class="st36" transform="translate(855.4 451.3)"><tspan x="0" y="0"> Butyrivibrio</tspan></text>
  <path class="st34" d="M690,475.1v19c0,1.7,1.4,3.2,3.2,3.2h19c1.7,0,3.2-1.4,3.2-3.2v-19c0-1.7-1.4-3.2-3.2-3.2h-19c-1.7,0-3.2,1.4-3.2,3.2Z"/>
  <path class="st41" d="M690,475.1v19c0,1.7,1.4,3.2,3.2,3.2h19c1.7,0,3.2-1.4,3.2-3.2v-19c0-1.7-1.4-3.2-3.2-3.2h-19c-1.7,0-3.2,1.4-3.2,3.2Z"/>
  <text class="st36" transform="translate(674.9 488.4)"><tspan x="0" y="0"> Bacteroides</tspan></text>
  <path class="st34" d="M602.2,303.5l53.5,53.5-53.5,53.5-53.5-53.5,53.5-53.5Z"/>
  <path class="st42" d="M602.2,298.2l58.9,58.9-58.9,58.9-58.9-58.9,58.9-58.9Z"/>
  <text class="st37" transform="translate(551.5 361.8)"><tspan x="0" y="0">Butyrylcarnitine</tspan></text>
  <path class="st34" d="M352.4,447v24.2c0,2.2,1.8,4,4,4h24.2c2.2,0,4-1.8,4-4v-24.2c0-2.2-1.8-4-4-4h-24.2c-2.2,0-4,1.8-4,4Z"/>
  <path class="st41" d="M352.4,447v24.2c0,2.2,1.8,4,4,4h24.2c2.2,0,4-1.8,4-4v-24.2c0-2.2-1.8-4-4-4h-24.2c-2.2,0-4,1.8-4,4Z"/>
  <text class="st36" transform="translate(312.7 462.8)"><tspan x="0" y="0"> Limosilactobacillus</tspan></text>
  <path class="st34" d="M514.4,246.8l23,23-23,23-23-23,23-23Z"/>
  <path class="st42" d="M514.4,244.5l25.4,25.4-25.4,25.4-25.4-25.4,25.4-25.4Z"/>
  <text class="st38" transform="translate(481.5 273.6)"><tspan x="0" y="0">Acetylcarnitine</tspan></text>
  <path class="st34" d="M400.9,58.6l15,15-15,15-15-15,15-15Z"/>
  <path class="st43" d="M400.9,58.6l15,15-15,15-15-15,15-15Z"/>
  <text class="st35" transform="translate(385 77.4)"><tspan x="0" y="0">14140</tspan></text>
  <path class="st34" d="M244.5,142.8l15,15-15,15-15-15,15-15Z"/>
  <path class="st43" d="M244.5,142.8l15,15-15,15-15-15,15-15Z"/>
  <text class="st35" transform="translate(228.7 161.6)"><tspan x="0" y="0">10826</tspan></text>
  <path class="st34" d="M434.7,186.5l15,15-15,15-15-15,15-15Z"/>
  <path class="st43" d="M434.7,186.5l15,15-15,15-15-15,15-15Z"/>
  <text class="st35" transform="translate(422 205.2)"><tspan x="0" y="0">9256</tspan></text>
  <path class="st34" d="M237,201.9l15,15-15,15-15-15,15-15Z"/>
  <path class="st43" d="M237,201.9l15,15-15,15-15-15,15-15Z"/>
  <text class="st35" transform="translate(224.3 220.6)"><tspan x="0" y="0">8443</tspan></text>
  <path class="st34" d="M371.3,194.8l15,15-15,15-15-15,15-15Z"/>
  <path class="st43" d="M371.3,194.8l15,15-15,15-15-15,15-15Z"/>
  <text class="st35" transform="translate(358.6 213.6)"><tspan x="0" y="0">7462</tspan></text>
  <path class="st34" d="M302.1,174.6l15,15-15,15-15-15,15-15Z"/>
  <path class="st43" d="M302.1,174.6l15,15-15,15-15-15,15-15Z"/>
  <text class="st38" transform="translate(239 193.3)"><tspan x="0" y="0">phenylpropionyl-carnitine</tspan></text>
  <path class="st34" d="M411.3,94.6l15,15-15,15-15-15,15-15Z"/>
  <path class="st43" d="M411.3,94.6l15,15-15,15-15-15,15-15Z"/>
  <text class="st35" transform="translate(398.7 113.4)"><tspan x="0" y="0">3124</tspan></text>
  <path class="st34" d="M274.7,411.3v25.9c0,2.4,1.9,4.3,4.3,4.3h25.9c2.4,0,4.3-1.9,4.3-4.3v-25.9c0-2.4-1.9-4.3-4.3-4.3h-25.9c-2.4,0-4.3,1.9-4.3,4.3Z"/>
  <path class="st41" d="M274.7,411.3v25.9c0,2.4,1.9,4.3,4.3,4.3h25.9c2.4,0,4.3-1.9,4.3-4.3v-25.9c0-2.4-1.9-4.3-4.3-4.3h-25.9c-2.4,0-4.3,1.9-4.3,4.3Z"/>
  <text class="st36" transform="translate(256.5 428.1)"><tspan x="0" y="0"> Bifidobacterium</tspan></text>
  <path class="st34" d="M442.9,142.4l16.1,16.1-16.1,16.1-16.1-16.1,16.1-16.1Z"/>
  <path class="st43" d="M442.9,142.4l16.1,16.1-16.1,16.1-16.1-16.1,16.1-16.1Z"/>
  <text class="st38" transform="translate(396.1 161.9)"><tspan x="0" y="0">phenylacetyl-carnitine</tspan></text>
  <path class="st34" d="M245,75.4l15,15-15,15-15-15,15-15Z"/>
  <path class="st43" d="M245,75.4l15,15-15,15-15-15,15-15Z"/>
  <text class="st38" transform="translate(207.5 90.4)"><tspan x="0" y="0">benzoyl-carnitine</tspan></text>
  <path class="st34" d="M52.9,63.4v69.1c0,6.4,5.2,11.5,11.5,11.5h69.1c6.4,0,11.5-5.2,11.5-11.5V63.4c0-6.4-5.2-11.5-11.5-11.5h-69.1c-6.4,0-11.5,5.2-11.5,11.5Z"/>
  <path class="st40" d="M48.3,60v76c0,7,5.7,12.7,12.7,12.7h76c7,0,12.7-5.7,12.7-12.7V60c0-7-5.7-12.7-12.7-12.7H60.9c-7,0-12.7,5.7-12.7,12.7Z"/>
  <text class="st39" transform="translate(51.3 101.8)"><tspan x="0" y="0"> Streptococcus</tspan></text>
  <path class="st34" d="M535,31.3v69.1c0,6.4,5.2,11.5,11.5,11.5h69.1c6.4,0,11.5-5.2,11.5-11.5V31.3c0-6.4-5.2-11.5-11.5-11.5h-69.1c-6.4,0-11.5,5.2-11.5,11.5Z"/>
  <path class="st40" d="M530.3,27.8v76c0,7,5.7,12.7,12.8,12.7h76.7c7.1,0,12.8-5.7,12.8-12.7V27.8c0-7-5.7-12.7-12.8-12.7h-76.7c-7.1,0-12.8,5.7-12.8,12.7Z"/>
  <text class="st39" transform="translate(547.7 69.6)"><tspan x="0" y="0"> Prevotella</tspan></text>
  <path class="st34" d="M90.8,281.6v69.1c0,6.4,5.2,11.5,11.5,11.5h69.1c6.4,0,11.5-5.2,11.5-11.5v-69.1c0-6.4-5.2-11.5-11.5-11.5h-69.1c-6.4,0-11.5,5.2-11.5,11.5Z"/>
  <path class="st40" d="M86.2,278.2v76c0,7,5.7,12.7,12.7,12.7h76c7,0,12.7-5.7,12.7-12.7v-76c0-7-5.7-12.7-12.7-12.7h-76c-7,0-12.7,5.7-12.7,12.7Z"/>
  <text class="st39" transform="translate(95.7 319.9)"><tspan x="0" y="0"> Lactobacillus</tspan></text>
  <path class="st34" d="M325.4,74.6l15,15-15,15-15-15,15-15Z"/>
  <path class="st43" d="M325.4,74.6l15,15-15,15-15-15,15-15Z"/>
  <text class="st35" transform="translate(315.9 93.4)"><tspan x="0" y="0">810</tspan></text>
  <path class="st34" d="M355.6,233.2l15,15-15,15-15-15,15-15Z"/>
  <path class="st43" d="M355.6,233.2l15,15-15,15-15-15,15-15Z"/>
  <text/>
  <text class="st38" transform="translate(318.2 252)"><tspan x="0" y="0">Palmitoylcarnitine</tspan></text>
  <path class="st34" d="M360.2,149.4l15,15-15,15-15-15,15-15Z"/>
  <path class="st43" d="M360.2,149.4l15,15-15,15-15-15,15-15Z"/>
  <text class="st38" transform="translate(314.2 171.2)"><tspan x="0" y="0">Propionylcarnitine</tspan></text>
  <path class="st34" d="M248.8,241.9l15,15-15,15-15-15,15-15Z"/>
  <path class="st43" d="M248.8,241.9l15,15-15,15-15-15,15-15Z"/>
  <text class="st38" transform="translate(211.1 262.3)"><tspan x="0" y="0">Lauroylcarnitine</tspan></text>
  <path class="st34" d="M321.6,113.6l15,15-15,15-15-15,15-15Z"/>
  <path class="st43" d="M321.6,113.6l15,15-15,15-15-15,15-15Z"/>
  <text class="st38" transform="translate(272.1 132.4)"><tspan x="0" y="0">Isovalerylcarnitine</tspan></text>
  <path class="st34" d="M341.6,2l15,15-15,15-15-15,15-15Z"/>
  <path class="st43" d="M341.6,2l15,15-15,15-15-15,15-15Z"/>
  <text class="st38" transform="translate(315.3 20.8)"><tspan x="0" y="0">CARNITINE</tspan></text>
  <path class="st34" d="M798,479.8v19c0,1.7,1.4,3.2,3.2,3.2h19c1.7,0,3.2-1.4,3.2-3.2v-19c0-1.7-1.4-3.2-3.2-3.2h-19c-1.7,0-3.2,1.4-3.2,3.2Z"/>
  <path class="st41" d="M798,479.8v19c0,1.7,1.4,3.2,3.2,3.2h19c1.7,0,3.2-1.4,3.2-3.2v-19c0-1.7-1.4-3.2-3.2-3.2h-19c-1.7,0-3.2,1.4-3.2,3.2Z"/>
  <text class="st36" transform="translate(785.4 493.1)"><tspan x="0" y="0"> Weissella</tspan></text>
  <path class="st34" d="M863.9,396.4v19c0,1.7,1.4,3.2,3.2,3.2h19c1.7,0,3.2-1.4,3.2-3.2v-19c0-1.7-1.4-3.2-3.2-3.2h-19c-1.7,0-3.2,1.4-3.2,3.2Z"/>
  <path class="st41" d="M863.9,396.4v19c0,1.7,1.4,3.2,3.2,3.2h19c1.7,0,3.2-1.4,3.2-3.2v-19c0-1.7-1.4-3.2-3.2-3.2h-19c-1.7,0-3.2,1.4-3.2,3.2Z"/>
  <text class="st36" transform="translate(829.6 409.6)"><tspan x="0" y="0"> Staphylococcus</tspan></text>
</svg>