<?xml version="1.0" encoding="utf-8" standalone="no"?>
<!DOCTYPE svg PUBLIC "-//W3C//DTD SVG 1.1//EN"
  "http://www.w3.org/Graphics/SVG/1.1/DTD/svg11.dtd">
<svg xmlns:xlink="http://www.w3.org/1999/xlink" width="514.585625pt" height="310.86825pt" viewBox="0 0 514.585625 310.86825" xmlns="http://www.w3.org/2000/svg" version="1.1">
 <metadata>
  <rdf:RDF xmlns:dc="http://purl.org/dc/elements/1.1/" xmlns:cc="http://creativecommons.org/ns#" xmlns:rdf="http://www.w3.org/1999/02/22-rdf-syntax-ns#">
   <cc:Work>
    <dc:type rdf:resource="http://purl.org/dc/dcmitype/StillImage"/>
    <dc:date>2024-11-22T18:09:55.611541</dc:date>
    <dc:format>image/svg+xml</dc:format>
    <dc:creator>
     <cc:Agent>
      <dc:title>Matplotlib v3.6.0, https://matplotlib.org/</dc:title>
     </cc:Agent>
    </dc:creator>
   </cc:Work>
  </rdf:RDF>
 </metadata>
 <defs>
  <style type="text/css">*{stroke-linejoin: round; stroke-linecap: butt}</style>
 </defs>
 <g id="figure_1">
  <g id="patch_1">
   <path d="M 0 310.86825 
L 514.585625 310.86825 
L 514.585625 0 
L 0 0 
z
" style="fill: #ffffff"/>
  </g>
  <g id="axes_1">
   <g id="patch_2">
    <path d="M 42.898438 273.312 
L 400.018438 273.312 
L 400.018438 7.2 
L 42.898438 7.2 
z
" style="fill: #ffffff"/>
   </g>
   <g id="PolyCollection_1">
    <path d="M 59.131165 23.644565 
L 59.131165 56.791689 
L 59.131165 23.644565 
L 59.131165 23.644565 
z
" clip-path="url(#p81ee370db3)" style="fill: #ffa500; fill-opacity: 0.2; stroke: #ffa500; stroke-opacity: 0.2"/>
    <path d="M 105.510386 47.970641 
L 105.510386 65.514288 
L 128.699996 41.619798 
L 151.889606 90.460026 
L 175.079217 73.488875 
L 198.268827 83.457653 
L 221.458438 160.601384 
L 244.648048 109.528263 
L 267.837658 127.797946 
L 291.027269 180.232525 
L 314.216879 126.182281 
L 337.406489 188.49351 
L 383.78571 188.342725 
L 383.78571 179.286416 
L 383.78571 179.286416 
L 337.406489 181.070592 
L 314.216879 89.476495 
L 291.027269 151.864761 
L 267.837658 74.81251 
L 244.648048 61.457484 
L 221.458438 148.334229 
L 198.268827 54.567764 
L 175.079217 47.737415 
L 151.889606 62.605174 
L 128.699996 19.296 
L 105.510386 47.970641 
z
" clip-path="url(#p81ee370db3)" style="fill: #ffa500; fill-opacity: 0.2; stroke: #ffa500; stroke-opacity: 0.2"/>
   </g>
   <g id="PolyCollection_2">
    <defs>
     <path id="m55f9f576c3" d="M 59.131165 -282.691389 
L 59.131165 -263.885599 
L 82.320775 -261.604579 
L 105.510386 -275.915241 
L 128.699996 -248.581456 
L 151.889606 -249.649282 
L 198.268827 -151.841544 
L 221.458438 -200.476059 
L 244.648048 -109.217745 
L 267.837658 -181.848236 
L 291.027269 -201.847726 
L 314.216879 -173.643506 
L 314.216879 -204.698882 
L 314.216879 -204.698882 
L 291.027269 -229.592069 
L 267.837658 -226.721147 
L 244.648048 -211.858673 
L 221.458438 -259.163453 
L 198.268827 -187.830396 
L 151.889606 -256.800612 
L 128.699996 -260.409807 
L 105.510386 -284.605727 
L 82.320775 -276.949106 
L 59.131165 -282.691389 
z
" style="stroke: #ffdab9; stroke-opacity: 0.2"/>
    </defs>
    <g clip-path="url(#p81ee370db3)">
     <use xlink:href="#m55f9f576c3" x="0" y="310.86825" style="fill: #ffdab9; fill-opacity: 0.2; stroke: #ffdab9; stroke-opacity: 0.2"/>
    </g>
   </g>
   <g id="PolyCollection_3">
    <defs>
     <path id="mbdf4780e43" d="M 59.131165 -92.231488 
L 59.131165 -79.387498 
L 82.320775 -81.788206 
L 105.510386 -83.279818 
L 128.699996 -85.955152 
L 151.889606 -77.293578 
L 175.079217 -87.667104 
L 198.268827 -97.977145 
L 221.458438 -120.553139 
L 244.648048 -76.462688 
L 267.837658 -77.061176 
L 291.027269 -102.040838 
L 314.216879 -84.772897 
L 337.406489 -100.260011 
L 360.5961 -100.107591 
L 383.78571 -101.966593 
L 383.78571 -117.292603 
L 383.78571 -117.292603 
L 360.5961 -133.725138 
L 337.406489 -120.511697 
L 314.216879 -101.375881 
L 291.027269 -119.692931 
L 267.837658 -102.787543 
L 244.648048 -104.545075 
L 221.458438 -171.629991 
L 198.268827 -135.061057 
L 175.079217 -122.733526 
L 151.889606 -85.067332 
L 128.699996 -94.730253 
L 105.510386 -88.128872 
L 82.320775 -88.670877 
L 59.131165 -92.231488 
z
" style="stroke: #008000; stroke-opacity: 0.2"/>
    </defs>
    <g clip-path="url(#p81ee370db3)">
     <use xlink:href="#mbdf4780e43" x="0" y="310.86825" style="fill: #008000; fill-opacity: 0.2; stroke: #008000; stroke-opacity: 0.2"/>
    </g>
   </g>
   <g id="PolyCollection_4">
    <path d="M 59.131165 231.316358 
L 59.131165 232.637129 
L 82.320775 238.26944 
L 105.510386 240.28424 
L 128.699996 219.385737 
L 151.889606 212.471702 
L 175.079217 261.216 
L 198.268827 257.439912 
L 221.458438 256.374087 
L 221.458438 250.707203 
L 221.458438 250.707203 
L 198.268827 256.010083 
L 175.079217 239.606922 
L 151.889606 167.603101 
L 128.699996 195.664579 
L 105.510386 228.944097 
L 82.320775 229.877491 
L 59.131165 231.316358 
z
" clip-path="url(#p81ee370db3)" style="fill: #90ee90; fill-opacity: 0.2; stroke: #90ee90; stroke-opacity: 0.2"/>
    <path d="M 267.837658 196.386473 
L 267.837658 197.388613 
L 314.216879 258.436664 
L 314.216879 247.196599 
L 314.216879 247.196599 
L 267.837658 196.386473 
z
" clip-path="url(#p81ee370db3)" style="fill: #90ee90; fill-opacity: 0.2; stroke: #90ee90; stroke-opacity: 0.2"/>
   </g>
   <g id="matplotlib.axis_1">
    <g id="xtick_1">
     <g id="line2d_1">
      <defs>
       <path id="m869717f0eb" d="M 0 0 
L 0 3.5 
" style="stroke: #000000; stroke-width: 0.8"/>
      </defs>
      <g>
       <use xlink:href="#m869717f0eb" x="82.320775" y="273.312" style="stroke: #000000; stroke-width: 0.8"/>
      </g>
     </g>
     <g id="text_1">
      <text style="font: 10px 'sans-serif'; text-anchor: middle" x="82.320775" y="287.910437" transform="rotate(-0 82.320775 287.910437)">2</text>
     </g>
    </g>
    <g id="xtick_2">
     <g id="line2d_2">
      <g>
       <use xlink:href="#m869717f0eb" x="128.699996" y="273.312" style="stroke: #000000; stroke-width: 0.8"/>
      </g>
     </g>
     <g id="text_2">
      <text style="font: 10px 'sans-serif'; text-anchor: middle" x="128.699996" y="287.910437" transform="rotate(-0 128.699996 287.910437)">4</text>
     </g>
    </g>
    <g id="xtick_3">
     <g id="line2d_3">
      <g>
       <use xlink:href="#m869717f0eb" x="175.079217" y="273.312" style="stroke: #000000; stroke-width: 0.8"/>
      </g>
     </g>
     <g id="text_3">
      <text style="font: 10px 'sans-serif'; text-anchor: middle" x="175.079217" y="287.910437" transform="rotate(-0 175.079217 287.910437)">6</text>
     </g>
    </g>
    <g id="xtick_4">
     <g id="line2d_4">
      <g>
       <use xlink:href="#m869717f0eb" x="221.458438" y="273.312" style="stroke: #000000; stroke-width: 0.8"/>
      </g>
     </g>
     <g id="text_4">
      <text style="font: 10px 'sans-serif'; text-anchor: middle" x="221.458438" y="287.910437" transform="rotate(-0 221.458438 287.910437)">8</text>
     </g>
    </g>
    <g id="xtick_5">
     <g id="line2d_5">
      <g>
       <use xlink:href="#m869717f0eb" x="267.837658" y="273.312" style="stroke: #000000; stroke-width: 0.8"/>
      </g>
     </g>
     <g id="text_5">
      <text style="font: 10px 'sans-serif'; text-anchor: middle" x="267.837658" y="287.910437" transform="rotate(-0 267.837658 287.910437)">10</text>
     </g>
    </g>
    <g id="xtick_6">
     <g id="line2d_6">
      <g>
       <use xlink:href="#m869717f0eb" x="314.216879" y="273.312" style="stroke: #000000; stroke-width: 0.8"/>
      </g>
     </g>
     <g id="text_6">
      <text style="font: 10px 'sans-serif'; text-anchor: middle" x="314.216879" y="287.910437" transform="rotate(-0 314.216879 287.910437)">12</text>
     </g>
    </g>
    <g id="xtick_7">
     <g id="line2d_7">
      <g>
       <use xlink:href="#m869717f0eb" x="360.5961" y="273.312" style="stroke: #000000; stroke-width: 0.8"/>
      </g>
     </g>
     <g id="text_7">
      <text style="font: 10px 'sans-serif'; text-anchor: middle" x="360.5961" y="287.910437" transform="rotate(-0 360.5961 287.910437)">14</text>
     </g>
    </g>
    <g id="text_8">
     <text style="font: 10px 'sans-serif'; text-anchor: middle" x="221.458438" y="301.588562" transform="rotate(-0 221.458438 301.588562)">Host Age (months)</text>
    </g>
   </g>
   <g id="matplotlib.axis_2">
    <g id="ytick_1">
     <g id="line2d_8">
      <defs>
       <path id="m21a322e614" d="M 0 0 
L -3.5 0 
" style="stroke: #000000; stroke-width: 0.8"/>
      </defs>
      <g>
       <use xlink:href="#m21a322e614" x="42.898438" y="254.309808" style="stroke: #000000; stroke-width: 0.8"/>
      </g>
     </g>
     <g id="text_9">
      <text style="font: 10px 'sans-serif'; text-anchor: end" x="35.898438" y="258.109027" transform="rotate(-0 35.898438 258.109027)">−6</text>
     </g>
    </g>
    <g id="ytick_2">
     <g id="line2d_9">
      <g>
       <use xlink:href="#m21a322e614" x="42.898438" y="221.922264" style="stroke: #000000; stroke-width: 0.8"/>
      </g>
     </g>
     <g id="text_10">
      <text style="font: 10px 'sans-serif'; text-anchor: end" x="35.898438" y="225.721483" transform="rotate(-0 35.898438 225.721483)">−4</text>
     </g>
    </g>
    <g id="ytick_3">
     <g id="line2d_10">
      <g>
       <use xlink:href="#m21a322e614" x="42.898438" y="189.53472" style="stroke: #000000; stroke-width: 0.8"/>
      </g>
     </g>
     <g id="text_11">
      <text style="font: 10px 'sans-serif'; text-anchor: end" x="35.898438" y="193.333939" transform="rotate(-0 35.898438 193.333939)">−2</text>
     </g>
    </g>
    <g id="ytick_4">
     <g id="line2d_11">
      <g>
       <use xlink:href="#m21a322e614" x="42.898438" y="157.147176" style="stroke: #000000; stroke-width: 0.8"/>
      </g>
     </g>
     <g id="text_12">
      <text style="font: 10px 'sans-serif'; text-anchor: end" x="35.898438" y="160.946395" transform="rotate(-0 35.898438 160.946395)">0</text>
     </g>
    </g>
    <g id="ytick_5">
     <g id="line2d_12">
      <g>
       <use xlink:href="#m21a322e614" x="42.898438" y="124.759632" style="stroke: #000000; stroke-width: 0.8"/>
      </g>
     </g>
     <g id="text_13">
      <text style="font: 10px 'sans-serif'; text-anchor: end" x="35.898438" y="128.558851" transform="rotate(-0 35.898438 128.558851)">2</text>
     </g>
    </g>
    <g id="ytick_6">
     <g id="line2d_13">
      <g>
       <use xlink:href="#m21a322e614" x="42.898438" y="92.372088" style="stroke: #000000; stroke-width: 0.8"/>
      </g>
     </g>
     <g id="text_14">
      <text style="font: 10px 'sans-serif'; text-anchor: end" x="35.898438" y="96.171306" transform="rotate(-0 35.898438 96.171306)">4</text>
     </g>
    </g>
    <g id="ytick_7">
     <g id="line2d_14">
      <g>
       <use xlink:href="#m21a322e614" x="42.898438" y="59.984544" style="stroke: #000000; stroke-width: 0.8"/>
      </g>
     </g>
     <g id="text_15">
      <text style="font: 10px 'sans-serif'; text-anchor: end" x="35.898438" y="63.783762" transform="rotate(-0 35.898438 63.783762)">6</text>
     </g>
    </g>
    <g id="ytick_8">
     <g id="line2d_15">
      <g>
       <use xlink:href="#m21a322e614" x="42.898438" y="27.597" style="stroke: #000000; stroke-width: 0.8"/>
      </g>
     </g>
     <g id="text_16">
      <text style="font: 10px 'sans-serif'; text-anchor: end" x="35.898438" y="31.396218" transform="rotate(-0 35.898438 31.396218)">8</text>
     </g>
    </g>
    <g id="text_17">
     <text style="font: 10px 'sans-serif'; text-anchor: middle" x="14.798438" y="140.256" transform="rotate(-90 14.798438 140.256)">Current_Natural_Log_Ratio</text>
    </g>
   </g>
   <g id="line2d_16">
    <path d="M 59.131165 40.218127 
L 82.320775 41.405903 
L 105.510386 56.222141 
L 128.699996 30.675083 
L 151.889606 76.5326 
L 175.079217 60.613145 
L 198.268827 69.060028 
L 221.458438 154.467806 
L 244.648048 85.9542 
L 267.837658 101.305228 
L 291.027269 166.048643 
L 314.216879 107.20838 
L 337.406489 184.782051 
L 383.78571 183.749307 
" clip-path="url(#p81ee370db3)" style="fill: none; stroke: #ffa500; stroke-width: 1.5; stroke-linecap: square"/>
   </g>
   <g id="line2d_17">
    <path d="M 59.131165 37.579756 
L 82.320775 41.591408 
L 105.510386 30.607766 
L 128.699996 56.372618 
L 151.889606 57.643303 
L 198.268827 140.092504 
L 221.458438 81.048494 
L 244.648048 150.330041 
L 267.837658 106.900606 
L 291.027269 95.335128 
L 314.216879 121.118858 
" clip-path="url(#p81ee370db3)" style="fill: none; stroke: #ffdab9; stroke-width: 1.5; stroke-linecap: square"/>
   </g>
   <g id="line2d_18">
    <path d="M 59.131165 225.000144 
L 82.320775 225.51717 
L 105.510386 225.128248 
L 128.699996 220.451159 
L 151.889606 229.56 
L 175.079217 205.667935 
L 198.268827 194.227386 
L 221.458438 163.850933 
L 244.648048 220.233168 
L 267.837658 220.099611 
L 291.027269 199.720388 
L 314.216879 217.596704 
L 337.406489 200.369419 
L 360.5961 194.593523 
L 383.78571 201.004686 
" clip-path="url(#p81ee370db3)" style="fill: none; stroke: #008000; stroke-width: 1.5; stroke-linecap: square"/>
   </g>
   <g id="line2d_19">
    <path d="M 59.131165 231.976743 
L 82.320775 234.073465 
L 105.510386 234.815257 
L 128.699996 207.099377 
L 151.889606 190.037402 
L 175.079217 250.411461 
L 198.268827 256.724998 
L 221.458438 253.540645 
L 244.648048 243.364192 
L 267.837658 196.887543 
L 314.216879 252.697706 
" clip-path="url(#p81ee370db3)" style="fill: none; stroke: #90ee90; stroke-width: 1.5; stroke-linecap: square"/>
   </g>
   <g id="line2d_20"/>
   <g id="line2d_21"/>
   <g id="line2d_22"/>
   <g id="line2d_23"/>
   <g id="patch_3">
    <path d="M 42.898438 273.312 
L 42.898438 7.2 
" style="fill: none; stroke: #000000; stroke-width: 0.8; stroke-linejoin: miter; stroke-linecap: square"/>
   </g>
   <g id="patch_4">
    <path d="M 400.018438 273.312 
L 400.018438 7.2 
" style="fill: none; stroke: #000000; stroke-width: 0.8; stroke-linejoin: miter; stroke-linecap: square"/>
   </g>
   <g id="patch_5">
    <path d="M 42.898438 273.312 
L 400.018438 273.312 
" style="fill: none; stroke: #000000; stroke-width: 0.8; stroke-linejoin: miter; stroke-linecap: square"/>
   </g>
   <g id="patch_6">
    <path d="M 42.898438 7.2 
L 400.018438 7.2 
" style="fill: none; stroke: #000000; stroke-width: 0.8; stroke-linejoin: miter; stroke-linecap: square"/>
   </g>
   <g id="legend_1">
    <g id="patch_7">
     <path d="M 407.018438 89.98125 
L 505.385625 89.98125 
Q 507.385625 89.98125 507.385625 87.98125 
L 507.385625 14.2 
Q 507.385625 12.2 505.385625 12.2 
L 407.018438 12.2 
Q 405.018438 12.2 405.018438 14.2 
L 405.018438 87.98125 
Q 405.018438 89.98125 407.018438 89.98125 
z
" style="fill: #ffffff; opacity: 0.8; stroke: #cccccc; stroke-linejoin: miter"/>
    </g>
    <g id="text_18">
     <text style="font: 10px 'sans-serif'; text-anchor: start" x="421.499688" y="23.798437" transform="rotate(-0 421.499688 23.798437)">genotype_sex</text>
    </g>
    <g id="line2d_24">
     <path d="M 409.018438 35.254687 
L 419.018438 35.254687 
L 429.018438 35.254687 
" style="fill: none; stroke: #ffa500; stroke-width: 1.5; stroke-linecap: square"/>
    </g>
    <g id="text_19">
     <text style="font: 10px 'sans-serif'; text-anchor: start" x="437.018438" y="38.754687" transform="rotate(-0 437.018438 38.754687)">B6_female</text>
    </g>
    <g id="line2d_25">
     <path d="M 409.018438 50.210938 
L 419.018438 50.210938 
L 429.018438 50.210938 
" style="fill: none; stroke: #ffdab9; stroke-width: 1.5; stroke-linecap: square"/>
    </g>
    <g id="text_20">
     <text style="font: 10px 'sans-serif'; text-anchor: start" x="437.018438" y="53.710938" transform="rotate(-0 437.018438 53.710938)">B6_male</text>
    </g>
    <g id="line2d_26">
     <path d="M 409.018438 65.167187 
L 419.018438 65.167187 
L 429.018438 65.167187 
" style="fill: none; stroke: #008000; stroke-width: 1.5; stroke-linecap: square"/>
    </g>
    <g id="text_21">
     <text style="font: 10px 'sans-serif'; text-anchor: start" x="437.018438" y="68.667187" transform="rotate(-0 437.018438 68.667187)">3XTG_female</text>
    </g>
    <g id="line2d_27">
     <path d="M 409.018438 80.123437 
L 419.018438 80.123437 
L 429.018438 80.123437 
" style="fill: none; stroke: #90ee90; stroke-width: 1.5; stroke-linecap: square"/>
    </g>
    <g id="text_22">
     <text style="font: 10px 'sans-serif'; text-anchor: start" x="437.018438" y="83.623437" transform="rotate(-0 437.018438 83.623437)">3XTG_male</text>
    </g>
   </g>
  </g>
 </g>
 <defs>
  <clipPath id="p81ee370db3">
   <rect x="42.898438" y="7.2" width="357.12" height="266.112"/>
  </clipPath>
 </defs>
</svg>
