<?xml version="1.0" encoding="utf-8" standalone="no"?>
<!DOCTYPE svg PUBLIC "-//W3C//DTD SVG 1.1//EN"
  "http://www.w3.org/Graphics/SVG/1.1/DTD/svg11.dtd">
<svg xmlns:xlink="http://www.w3.org/1999/xlink" width="505.0575pt" height="326.2645pt" viewBox="0 0 505.0575 326.2645" xmlns="http://www.w3.org/2000/svg" version="1.1">
 <metadata>
  <rdf:RDF xmlns:dc="http://purl.org/dc/elements/1.1/" xmlns:cc="http://creativecommons.org/ns#" xmlns:rdf="http://www.w3.org/1999/02/22-rdf-syntax-ns#">
   <cc:Work>
    <dc:type rdf:resource="http://purl.org/dc/dcmitype/StillImage"/>
    <dc:date>2024-12-10T17:07:42.551234</dc:date>
    <dc:format>image/svg+xml</dc:format>
    <dc:creator>
     <cc:Agent>
      <dc:title>Matplotlib v3.7.3, https://matplotlib.org/</dc:title>
     </cc:Agent>
    </dc:creator>
   </cc:Work>
  </rdf:RDF>
 </metadata>
 <defs>
  <style type="text/css">*{stroke-linejoin: round; stroke-linecap: butt}</style>
 </defs>
 <g id="figure_1">
  <g id="patch_1">
   <path d="M 0 326.2645 
L 505.0575 326.2645 
L 505.0575 0 
L 0 0 
z
" style="fill: #ffffff"/>
  </g>
  <g id="axes_1">
   <g id="patch_2">
    <path d="M 52.439063 288.430125 
L 409.559062 288.430125 
L 409.559062 22.318125 
L 52.439063 22.318125 
z
" style="fill: #ffffff"/>
   </g>
   <g id="PathCollection_1">
    <path d="M 142.106272 188.969828 
C 143.215696 188.969828 144.27983 188.52905 145.064312 187.744568 
C 145.848793 186.960087 146.289572 185.895952 146.289572 184.786528 
C 146.289572 183.677104 145.848793 182.61297 145.064312 181.828488 
C 144.27983 181.044007 143.215696 180.603228 142.106272 180.603228 
C 140.996848 180.603228 139.932713 181.044007 139.148232 181.828488 
C 138.363751 182.61297 137.922972 183.677104 137.922972 184.786528 
C 137.922972 185.895952 138.363751 186.960087 139.148232 187.744568 
C 139.932713 188.52905 140.996848 188.969828 142.106272 188.969828 
z
" clip-path="url(#p138ca584ed)" style="fill: #e5bf86; stroke: #ffffff; stroke-width: 0.669328"/>
    <path d="M 270.381432 280.517425 
C 271.490856 280.517425 272.55499 280.076646 273.339471 279.292165 
C 274.123953 278.507684 274.564732 277.443549 274.564732 276.334125 
C 274.564732 275.224701 274.123953 274.160566 273.339471 273.376085 
C 272.55499 272.591604 271.490856 272.150825 270.381432 272.150825 
C 269.272007 272.150825 268.207873 272.591604 267.423392 273.376085 
C 266.63891 274.160566 266.198131 275.224701 266.198131 276.334125 
C 266.198131 277.443549 266.63891 278.507684 267.423392 279.292165 
C 268.207873 280.076646 269.272007 280.517425 270.381432 280.517425 
z
" clip-path="url(#p138ca584ed)" style="fill: #287dab; stroke: #ffffff; stroke-width: 0.669328"/>
    <path d="M 224.808492 218.894254 
C 225.917916 218.894254 226.98205 218.453475 227.766531 217.668994 
C 228.551013 216.884512 228.991792 215.820378 228.991792 214.710954 
C 228.991792 213.60153 228.551013 212.537395 227.766531 211.752914 
C 226.98205 210.968432 225.917916 210.527654 224.808492 210.527654 
C 223.699067 210.527654 222.634933 210.968432 221.850452 211.752914 
C 221.06597 212.537395 220.625191 213.60153 220.625191 214.710954 
C 220.625191 215.820378 221.06597 216.884512 221.850452 217.668994 
C 222.634933 218.453475 223.699067 218.894254 224.808492 218.894254 
z
" clip-path="url(#p138ca584ed)" style="fill: #287dab; stroke: #ffffff; stroke-width: 0.669328"/>
    <path d="M 133.939845 116.481468 
L 136.031495 114.389817 
L 138.123145 116.481468 
L 140.214795 114.389817 
L 138.123145 112.298167 
L 140.214795 110.206517 
L 138.123145 108.114867 
L 136.031495 110.206517 
L 133.939845 108.114867 
L 131.848195 110.206517 
L 133.939845 112.298167 
L 131.848195 114.389817 
z
" clip-path="url(#p138ca584ed)" style="fill: #287dab; stroke: #ffffff; stroke-width: 0.669328"/>
    <path d="M 169.920762 95.889389 
L 172.012412 93.797739 
L 174.104062 95.889389 
L 176.195712 93.797739 
L 174.104062 91.706089 
L 176.195712 89.614439 
L 174.104062 87.522789 
L 172.012412 89.614439 
L 169.920762 87.522789 
L 167.829112 89.614439 
L 169.920762 91.706089 
L 167.829112 93.797739 
z
" clip-path="url(#p138ca584ed)" style="fill: #287dab; stroke: #ffffff; stroke-width: 0.669328"/>
    <path d="M 200.837695 244.668389 
C 201.947119 244.668389 203.011254 244.22761 203.795735 243.443129 
C 204.580216 242.658647 205.020995 241.594513 205.020995 240.485089 
C 205.020995 239.375665 204.580216 238.31153 203.795735 237.527049 
C 203.011254 236.742568 201.947119 236.301789 200.837695 236.301789 
C 199.728271 236.301789 198.664137 236.742568 197.879655 237.527049 
C 197.095174 238.31153 196.654395 239.375665 196.654395 240.485089 
C 196.654395 241.594513 197.095174 242.658647 197.879655 243.443129 
C 198.664137 244.22761 199.728271 244.668389 200.837695 244.668389 
z
" clip-path="url(#p138ca584ed)" style="fill: #287dab; stroke: #ffffff; stroke-width: 0.669328"/>
    <path d="M 186.799421 233.453997 
C 187.908846 233.453997 188.97298 233.013218 189.757461 232.228737 
C 190.541943 231.444256 190.982722 230.380121 190.982722 229.270697 
C 190.982722 228.161273 190.541943 227.097139 189.757461 226.312657 
C 188.97298 225.528176 187.908846 225.087397 186.799421 225.087397 
C 185.689997 225.087397 184.625863 225.528176 183.841382 226.312657 
C 183.0569 227.097139 182.616121 228.161273 182.616121 229.270697 
C 182.616121 230.380121 183.0569 231.444256 183.841382 232.228737 
C 184.625863 233.013218 185.689997 233.453997 186.799421 233.453997 
z
" clip-path="url(#p138ca584ed)" style="fill: #287dab; stroke: #ffffff; stroke-width: 0.669328"/>
    <path d="M 185.473224 237.31187 
C 186.582649 237.31187 187.646783 236.871091 188.431264 236.08661 
C 189.215746 235.302128 189.656525 234.237994 189.656525 233.12857 
C 189.656525 232.019145 189.215746 230.955011 188.431264 230.17053 
C 187.646783 229.386048 186.582649 228.945269 185.473224 228.945269 
C 184.3638 228.945269 183.299666 229.386048 182.515185 230.17053 
C 181.730703 230.955011 181.289924 232.019145 181.289924 233.12857 
C 181.289924 234.237994 181.730703 235.302128 182.515185 236.08661 
C 183.299666 236.871091 184.3638 237.31187 185.473224 237.31187 
z
" clip-path="url(#p138ca584ed)" style="fill: #287dab; stroke: #ffffff; stroke-width: 0.669328"/>
    <path d="M 190.241215 55.870543 
C 191.350639 55.870543 192.414773 55.429764 193.199255 54.645283 
C 193.983736 53.860802 194.424515 52.796667 194.424515 51.687243 
C 194.424515 50.577819 193.983736 49.513685 193.199255 48.729203 
C 192.414773 47.944722 191.350639 47.503943 190.241215 47.503943 
C 189.131791 47.503943 188.067656 47.944722 187.283175 48.729203 
C 186.498694 49.513685 186.057915 50.577819 186.057915 51.687243 
C 186.057915 52.796667 186.498694 53.860802 187.283175 54.645283 
C 188.067656 55.429764 189.131791 55.870543 190.241215 55.870543 
z
" clip-path="url(#p138ca584ed)" style="fill: #287dab; stroke: #ffffff; stroke-width: 0.669328"/>
    <path d="M 252.226155 245.318393 
C 253.33558 245.318393 254.399714 244.877614 255.184195 244.093132 
C 255.968677 243.308651 256.409455 242.244517 256.409455 241.135093 
C 256.409455 240.025668 255.968677 238.961534 255.184195 238.177053 
C 254.399714 237.392571 253.33558 236.951792 252.226155 236.951792 
C 251.116731 236.951792 250.052597 237.392571 249.268115 238.177053 
C 248.483634 238.961534 248.042855 240.025668 248.042855 241.135093 
C 248.042855 242.244517 248.483634 243.308651 249.268115 244.093132 
C 250.052597 244.877614 251.116731 245.318393 252.226155 245.318393 
z
" clip-path="url(#p138ca584ed)" style="fill: #287dab; stroke: #ffffff; stroke-width: 0.669328"/>
    <path d="M 68.688009 56.922038 
C 69.797433 56.922038 70.861568 56.481259 71.646049 55.696778 
C 72.430531 54.912297 72.871309 53.848162 72.871309 52.738738 
C 72.871309 51.629314 72.430531 50.565179 71.646049 49.780698 
C 70.861568 48.996217 69.797433 48.555438 68.688009 48.555438 
C 67.578585 48.555438 66.514451 48.996217 65.729969 49.780698 
C 64.945488 50.565179 64.504709 51.629314 64.504709 52.738738 
C 64.504709 53.848162 64.945488 54.912297 65.729969 55.696778 
C 66.514451 56.481259 67.578585 56.922038 68.688009 56.922038 
z
" clip-path="url(#p138ca584ed)" style="fill: #287dab; stroke: #ffffff; stroke-width: 0.669328"/>
    <path d="M 368.008398 232.800782 
C 369.117822 232.800782 370.181956 232.360003 370.966438 231.575521 
C 371.750919 230.79104 372.191698 229.726906 372.191698 228.617482 
C 372.191698 227.508057 371.750919 226.443923 370.966438 225.659442 
C 370.181956 224.87496 369.117822 224.434181 368.008398 224.434181 
C 366.898974 224.434181 365.834839 224.87496 365.050358 225.659442 
C 364.265876 226.443923 363.825098 227.508057 363.825098 228.617482 
C 363.825098 229.726906 364.265876 230.79104 365.050358 231.575521 
C 365.834839 232.360003 366.898974 232.800782 368.008398 232.800782 
z
" clip-path="url(#p138ca584ed)" style="fill: #287dab; stroke: #ffffff; stroke-width: 0.669328"/>
    <path d="M 293.508012 46.407958 
L 295.599662 44.316308 
L 297.691312 46.407958 
L 299.782962 44.316308 
L 297.691312 42.224658 
L 299.782962 40.133008 
L 297.691312 38.041358 
L 295.599662 40.133008 
L 293.508012 38.041358 
L 291.416362 40.133008 
L 293.508012 42.224658 
L 291.416362 44.316308 
z
" clip-path="url(#p138ca584ed)" style="fill: #287dab; stroke: #ffffff; stroke-width: 0.669328"/>
    <path d="M 206.266082 84.407451 
L 208.357732 82.3158 
L 210.449382 84.407451 
L 212.541032 82.3158 
L 210.449382 80.22415 
L 212.541032 78.1325 
L 210.449382 76.04085 
L 208.357732 78.1325 
L 206.266082 76.04085 
L 204.174432 78.1325 
L 206.266082 80.22415 
L 204.174432 82.3158 
z
" clip-path="url(#p138ca584ed)" style="fill: #287dab; stroke: #ffffff; stroke-width: 0.669328"/>
    <path d="M 201.159908 209.826908 
C 202.269333 209.826908 203.333467 209.386129 204.117948 208.601648 
C 204.90243 207.817167 205.343209 206.753032 205.343209 205.643608 
C 205.343209 204.534184 204.90243 203.47005 204.117948 202.685568 
C 203.333467 201.901087 202.269333 201.460308 201.159908 201.460308 
C 200.050484 201.460308 198.98635 201.901087 198.201868 202.685568 
C 197.417387 203.47005 196.976608 204.534184 196.976608 205.643608 
C 196.976608 206.753032 197.417387 207.817167 198.201868 208.601648 
C 198.98635 209.386129 200.050484 209.826908 201.159908 209.826908 
z
" clip-path="url(#p138ca584ed)" style="fill: #287dab; stroke: #ffffff; stroke-width: 0.669328"/>
    <path d="M 155.087243 232.821937 
C 156.196667 232.821937 157.260801 232.381158 158.045282 231.596677 
C 158.829764 230.812195 159.270543 229.748061 159.270543 228.638637 
C 159.270543 227.529213 158.829764 226.465078 158.045282 225.680597 
C 157.260801 224.896116 156.196667 224.455337 155.087243 224.455337 
C 153.977818 224.455337 152.913684 224.896116 152.129203 225.680597 
C 151.344721 226.465078 150.903942 227.529213 150.903942 228.638637 
C 150.903942 229.748061 151.344721 230.812195 152.129203 231.596677 
C 152.913684 232.381158 153.977818 232.821937 155.087243 232.821937 
z
" clip-path="url(#p138ca584ed)" style="fill: #287dab; stroke: #ffffff; stroke-width: 0.669328"/>
    <path d="M 298.958082 82.574891 
L 301.049732 80.483241 
L 303.141382 82.574891 
L 305.233032 80.483241 
L 303.141382 78.391591 
L 305.233032 76.299941 
L 303.141382 74.208291 
L 301.049732 76.299941 
L 298.958082 74.208291 
L 296.866432 76.299941 
L 298.958082 78.391591 
L 296.866432 80.483241 
z
" clip-path="url(#p138ca584ed)" style="fill: #287dab; stroke: #ffffff; stroke-width: 0.669328"/>
    <path d="M 246.300695 145.523468 
C 247.410119 145.523468 248.474253 145.082689 249.258735 144.298208 
C 250.043216 143.513726 250.483995 142.449592 250.483995 141.340168 
C 250.483995 140.230743 250.043216 139.166609 249.258735 138.382128 
C 248.474253 137.597646 247.410119 137.156867 246.300695 137.156867 
C 245.19127 137.156867 244.127136 137.597646 243.342655 138.382128 
C 242.558173 139.166609 242.117394 140.230743 242.117394 141.340168 
C 242.117394 142.449592 242.558173 143.513726 243.342655 144.298208 
C 244.127136 145.082689 245.19127 145.523468 246.300695 145.523468 
z
" clip-path="url(#p138ca584ed)" style="fill: #287dab; stroke: #ffffff; stroke-width: 0.669328"/>
    <path d="M 132.370134 234.545576 
C 133.479558 234.545576 134.543692 234.104797 135.328174 233.320316 
C 136.112655 232.535834 136.553434 231.4717 136.553434 230.362276 
C 136.553434 229.252852 136.112655 228.188717 135.328174 227.404236 
C 134.543692 226.619754 133.479558 226.178976 132.370134 226.178976 
C 131.26071 226.178976 130.196575 226.619754 129.412094 227.404236 
C 128.627613 228.188717 128.186834 229.252852 128.186834 230.362276 
C 128.186834 231.4717 128.627613 232.535834 129.412094 233.320316 
C 130.196575 234.104797 131.26071 234.545576 132.370134 234.545576 
z
" clip-path="url(#p138ca584ed)" style="fill: #287dab; stroke: #ffffff; stroke-width: 0.669328"/>
    <path d="M 393.326335 246.947721 
C 394.435759 246.947721 395.499894 246.506942 396.284375 245.722461 
C 397.068856 244.93798 397.509635 243.873845 397.509635 242.764421 
C 397.509635 241.654997 397.068856 240.590862 396.284375 239.806381 
C 395.499894 239.0219 394.435759 238.581121 393.326335 238.581121 
C 392.216911 238.581121 391.152777 239.0219 390.368295 239.806381 
C 389.583814 240.590862 389.143035 241.654997 389.143035 242.764421 
C 389.143035 243.873845 389.583814 244.93798 390.368295 245.722461 
C 391.152777 246.506942 392.216911 246.947721 393.326335 246.947721 
z
" clip-path="url(#p138ca584ed)" style="fill: #287dab; stroke: #ffffff; stroke-width: 0.669328"/>
    <path d="M 129.688376 203.153159 
C 130.797801 203.153159 131.861935 202.71238 132.646416 201.927898 
C 133.430898 201.143417 133.871677 200.079283 133.871677 198.969859 
C 133.871677 197.860434 133.430898 196.7963 132.646416 196.011819 
C 131.861935 195.227337 130.797801 194.786558 129.688376 194.786558 
C 128.578952 194.786558 127.514818 195.227337 126.730336 196.011819 
C 125.945855 196.7963 125.505076 197.860434 125.505076 198.969859 
C 125.505076 200.079283 125.945855 201.143417 126.730336 201.927898 
C 127.514818 202.71238 128.578952 203.153159 129.688376 203.153159 
z
" clip-path="url(#p138ca584ed)" style="fill: #e5bf86; stroke: #ffffff; stroke-width: 0.669328"/>
    <path d="M 151.5466 217.859104 
C 152.656024 217.859104 153.720159 217.418325 154.50464 216.633844 
C 155.289121 215.849363 155.7299 214.785228 155.7299 213.675804 
C 155.7299 212.56638 155.289121 211.502246 154.50464 210.717764 
C 153.720159 209.933283 152.656024 209.492504 151.5466 209.492504 
C 150.437176 209.492504 149.373041 209.933283 148.58856 210.717764 
C 147.804079 211.502246 147.3633 212.56638 147.3633 213.675804 
C 147.3633 214.785228 147.804079 215.849363 148.58856 216.633844 
C 149.373041 217.418325 150.437176 217.859104 151.5466 217.859104 
z
" clip-path="url(#p138ca584ed)" style="fill: #287dab; stroke: #ffffff; stroke-width: 0.669328"/>
    <path d="M 178.272011 269.752814 
C 179.381435 269.752814 180.445569 269.312035 181.230051 268.527554 
C 182.014532 267.743073 182.455311 266.678938 182.455311 265.569514 
C 182.455311 264.46009 182.014532 263.395956 181.230051 262.611474 
C 180.445569 261.826993 179.381435 261.386214 178.272011 261.386214 
C 177.162587 261.386214 176.098452 261.826993 175.313971 262.611474 
C 174.52949 263.395956 174.088711 264.46009 174.088711 265.569514 
C 174.088711 266.678938 174.52949 267.743073 175.313971 268.527554 
C 176.098452 269.312035 177.162587 269.752814 178.272011 269.752814 
z
" clip-path="url(#p138ca584ed)" style="fill: #e5bf86; stroke: #ffffff; stroke-width: 0.669328"/>
    <path d="M 269.188303 69.031675 
L 271.279953 66.940025 
L 273.371603 69.031675 
L 275.463253 66.940025 
L 273.371603 64.848375 
L 275.463253 62.756725 
L 273.371603 60.665075 
L 271.279953 62.756725 
L 269.188303 60.665075 
L 267.096653 62.756725 
L 269.188303 64.848375 
L 267.096653 66.940025 
z
" clip-path="url(#p138ca584ed)" style="fill: #287dab; stroke: #ffffff; stroke-width: 0.669328"/>
    <path d="M 232.686901 54.912671 
L 234.778551 52.821021 
L 236.870201 54.912671 
L 238.961851 52.821021 
L 236.870201 50.729371 
L 238.961851 48.637721 
L 236.870201 46.546071 
L 234.778551 48.637721 
L 232.686901 46.546071 
L 230.595251 48.637721 
L 232.686901 50.729371 
L 230.595251 52.821021 
z
" clip-path="url(#p138ca584ed)" style="fill: #287dab; stroke: #ffffff; stroke-width: 0.669328"/>
    <path d="M 149.063032 97.487761 
L 151.154682 95.39611 
L 153.246332 97.487761 
L 155.337982 95.39611 
L 153.246332 93.30446 
L 155.337982 91.21281 
L 153.246332 89.12116 
L 151.154682 91.21281 
L 149.063032 89.12116 
L 146.971382 91.21281 
L 149.063032 93.30446 
L 146.971382 95.39611 
z
" clip-path="url(#p138ca584ed)" style="fill: #287dab; stroke: #ffffff; stroke-width: 0.669328"/>
    <path d="M 122.224654 227.746057 
C 123.334078 227.746057 124.398213 227.305278 125.182694 226.520797 
C 125.967175 225.736315 126.407954 224.672181 126.407954 223.562757 
C 126.407954 222.453333 125.967175 221.389198 125.182694 220.604717 
C 124.398213 219.820236 123.334078 219.379457 122.224654 219.379457 
C 121.11523 219.379457 120.051095 219.820236 119.266614 220.604717 
C 118.482133 221.389198 118.041354 222.453333 118.041354 223.562757 
C 118.041354 224.672181 118.482133 225.736315 119.266614 226.520797 
C 120.051095 227.305278 121.11523 227.746057 122.224654 227.746057 
z
" clip-path="url(#p138ca584ed)" style="fill: #287dab; stroke: #ffffff; stroke-width: 0.669328"/>
    <path d="M 125.440559 224.986657 
C 126.549983 224.986657 127.614117 224.545878 128.398598 223.761397 
C 129.18308 222.976916 129.623859 221.912781 129.623859 220.803357 
C 129.623859 219.693933 129.18308 218.629799 128.398598 217.845317 
C 127.614117 217.060836 126.549983 216.620057 125.440559 216.620057 
C 124.331134 216.620057 123.267 217.060836 122.482519 217.845317 
C 121.698037 218.629799 121.257258 219.693933 121.257258 220.803357 
C 121.257258 221.912781 121.698037 222.976916 122.482519 223.761397 
C 123.267 224.545878 124.331134 224.986657 125.440559 224.986657 
z
" clip-path="url(#p138ca584ed)" style="fill: #e5bf86; stroke: #ffffff; stroke-width: 0.669328"/>
    <path d="M 173.061768 157.756712 
L 175.153418 155.665062 
L 177.245068 157.756712 
L 179.336718 155.665062 
L 177.245068 153.573412 
L 179.336718 151.481762 
L 177.245068 149.390112 
L 175.153418 151.481762 
L 173.061768 149.390112 
L 170.970118 151.481762 
L 173.061768 153.573412 
L 170.970118 155.665062 
z
" clip-path="url(#p138ca584ed)" style="fill: #e5bf86; stroke: #ffffff; stroke-width: 0.669328"/>
    <path d="M 264.478644 116.658467 
L 266.570294 114.566817 
L 268.661944 116.658467 
L 270.753594 114.566817 
L 268.661944 112.475167 
L 270.753594 110.383517 
L 268.661944 108.291867 
L 266.570294 110.383517 
L 264.478644 108.291867 
L 262.386994 110.383517 
L 264.478644 112.475167 
L 262.386994 114.566817 
z
" clip-path="url(#p138ca584ed)" style="fill: #e5bf86; stroke: #ffffff; stroke-width: 0.669328"/>
    <path d="M 169.065559 45.51845 
L 171.157209 43.4268 
L 173.248859 45.51845 
L 175.340509 43.4268 
L 173.248859 41.33515 
L 175.340509 39.2435 
L 173.248859 37.15185 
L 171.157209 39.2435 
L 169.065559 37.15185 
L 166.973909 39.2435 
L 169.065559 41.33515 
L 166.973909 43.4268 
z
" clip-path="url(#p138ca584ed)" style="fill: #287dab; stroke: #ffffff; stroke-width: 0.669328"/>
    <path d="M 108.158733 38.597425 
L 110.250383 36.505775 
L 112.342033 38.597425 
L 114.433683 36.505775 
L 112.342033 34.414125 
L 114.433683 32.322475 
L 112.342033 30.230825 
L 110.250383 32.322475 
L 108.158733 30.230825 
L 106.067082 32.322475 
L 108.158733 34.414125 
L 106.067082 36.505775 
z
" clip-path="url(#p138ca584ed)" style="fill: #287dab; stroke: #ffffff; stroke-width: 0.669328"/>
    <path d="M 296.530312 267.37999 
C 297.639736 267.37999 298.703871 266.939211 299.488352 266.15473 
C 300.272834 265.370248 300.713612 264.306114 300.713612 263.19669 
C 300.713612 262.087266 300.272834 261.023131 299.488352 260.23865 
C 298.703871 259.454168 297.639736 259.01339 296.530312 259.01339 
C 295.420888 259.01339 294.356754 259.454168 293.572272 260.23865 
C 292.787791 261.023131 292.347012 262.087266 292.347012 263.19669 
C 292.347012 264.306114 292.787791 265.370248 293.572272 266.15473 
C 294.356754 266.939211 295.420888 267.37999 296.530312 267.37999 
z
" clip-path="url(#p138ca584ed)" style="fill: #287dab; stroke: #ffffff; stroke-width: 0.669328"/>
    <path d="M 94.404421 167.807565 
C 95.513846 167.807565 96.57798 167.366786 97.362461 166.582305 
C 98.146943 165.797823 98.587722 164.733689 98.587722 163.624265 
C 98.587722 162.514841 98.146943 161.450706 97.362461 160.666225 
C 96.57798 159.881744 95.513846 159.440965 94.404421 159.440965 
C 93.294997 159.440965 92.230863 159.881744 91.446382 160.666225 
C 90.6619 161.450706 90.221121 162.514841 90.221121 163.624265 
C 90.221121 164.733689 90.6619 165.797823 91.446382 166.582305 
C 92.230863 167.366786 93.294997 167.807565 94.404421 167.807565 
z
" clip-path="url(#p138ca584ed)" style="fill: #e5bf86; stroke: #ffffff; stroke-width: 0.669328"/>
    <path d="M 106.356115 113.204959 
L 108.447765 111.113309 
L 110.539415 113.204959 
L 112.631065 111.113309 
L 110.539415 109.021659 
L 112.631065 106.930009 
L 110.539415 104.838359 
L 108.447765 106.930009 
L 106.356115 104.838359 
L 104.264465 106.930009 
L 106.356115 109.021659 
L 104.264465 111.113309 
z
" clip-path="url(#p138ca584ed)" style="fill: #e5bf86; stroke: #ffffff; stroke-width: 0.669328"/>
    <path d="M 323.874146 101.652195 
L 325.965796 99.560545 
L 328.057446 101.652195 
L 330.149097 99.560545 
L 328.057446 97.468895 
L 330.149097 95.377244 
L 328.057446 93.285594 
L 325.965796 95.377244 
L 323.874146 93.285594 
L 321.782496 95.377244 
L 323.874146 97.468895 
L 321.782496 99.560545 
z
" clip-path="url(#p138ca584ed)" style="fill: #e5bf86; stroke: #ffffff; stroke-width: 0.669328"/>
    <path d="M 321.075898 78.663802 
L 323.167548 76.572152 
L 325.259198 78.663802 
L 327.350848 76.572152 
L 325.259198 74.480502 
L 327.350848 72.388852 
L 325.259198 70.297202 
L 323.167548 72.388852 
L 321.075898 70.297202 
L 318.984248 72.388852 
L 321.075898 74.480502 
L 318.984248 76.572152 
z
" clip-path="url(#p138ca584ed)" style="fill: #287dab; stroke: #ffffff; stroke-width: 0.669328"/>
    <path d="M 170.056139 52.536252 
L 172.147789 50.444601 
L 174.239439 52.536252 
L 176.331089 50.444601 
L 174.239439 48.352951 
L 176.331089 46.261301 
L 174.239439 44.169651 
L 172.147789 46.261301 
L 170.056139 44.169651 
L 167.964489 46.261301 
L 170.056139 48.352951 
L 167.964489 50.444601 
z
" clip-path="url(#p138ca584ed)" style="fill: #287dab; stroke: #ffffff; stroke-width: 0.669328"/>
    <path d="M 164.873647 174.837659 
C 165.983071 174.837659 167.047205 174.39688 167.831687 173.612399 
C 168.616168 172.827917 169.056947 171.763783 169.056947 170.654359 
C 169.056947 169.544935 168.616168 168.4808 167.831687 167.696319 
C 167.047205 166.911837 165.983071 166.471059 164.873647 166.471059 
C 163.764223 166.471059 162.700088 166.911837 161.915607 167.696319 
C 161.131126 168.4808 160.690347 169.544935 160.690347 170.654359 
C 160.690347 171.763783 161.131126 172.827917 161.915607 173.612399 
C 162.700088 174.39688 163.764223 174.837659 164.873647 174.837659 
z
" clip-path="url(#p138ca584ed)" style="fill: #287dab; stroke: #ffffff; stroke-width: 0.669328"/>
    <path d="M 123.190284 54.275565 
L 125.281934 52.183915 
L 127.373584 54.275565 
L 129.465234 52.183915 
L 127.373584 50.092265 
L 129.465234 48.000615 
L 127.373584 45.908964 
L 125.281934 48.000615 
L 123.190284 45.908964 
L 121.098634 48.000615 
L 123.190284 50.092265 
L 121.098634 52.183915 
z
" clip-path="url(#p138ca584ed)" style="fill: #e5bf86; stroke: #ffffff; stroke-width: 0.669328"/>
    <path d="M 198.701837 180.301728 
L 200.793487 178.210078 
L 202.885137 180.301728 
L 204.976788 178.210078 
L 202.885137 176.118428 
L 204.976788 174.026778 
L 202.885137 171.935128 
L 200.793487 174.026778 
L 198.701837 171.935128 
L 196.610187 174.026778 
L 198.701837 176.118428 
L 196.610187 178.210078 
z
" clip-path="url(#p138ca584ed)" style="fill: #287dab; stroke: #ffffff; stroke-width: 0.669328"/>
    <path d="M 363.22873 179.138775 
L 365.32038 177.047125 
L 367.41203 179.138775 
L 369.50368 177.047125 
L 367.41203 174.955475 
L 369.50368 172.863825 
L 367.41203 170.772175 
L 365.32038 172.863825 
L 363.22873 170.772175 
L 361.13708 172.863825 
L 363.22873 174.955475 
L 361.13708 177.047125 
z
" clip-path="url(#p138ca584ed)" style="fill: #287dab; stroke: #ffffff; stroke-width: 0.669328"/>
    <path d="M 293.617052 104.221548 
L 295.708702 102.129898 
L 297.800352 104.221548 
L 299.892002 102.129898 
L 297.800352 100.038248 
L 299.892002 97.946598 
L 297.800352 95.854948 
L 295.708702 97.946598 
L 293.617052 95.854948 
L 291.525402 97.946598 
L 293.617052 100.038248 
L 291.525402 102.129898 
z
" clip-path="url(#p138ca584ed)" style="fill: #287dab; stroke: #ffffff; stroke-width: 0.669328"/>
    <path d="M 164.218591 263.935663 
C 165.328015 263.935663 166.392149 263.494885 167.176631 262.710403 
C 167.961112 261.925922 168.401891 260.861787 168.401891 259.752363 
C 168.401891 258.642939 167.961112 257.578805 167.176631 256.794323 
C 166.392149 256.009842 165.328015 255.569063 164.218591 255.569063 
C 163.109167 255.569063 162.045032 256.009842 161.260551 256.794323 
C 160.476069 257.578805 160.035291 258.642939 160.035291 259.752363 
C 160.035291 260.861787 160.476069 261.925922 161.260551 262.710403 
C 162.045032 263.494885 163.109167 263.935663 164.218591 263.935663 
z
" clip-path="url(#p138ca584ed)" style="fill: #287dab; stroke: #ffffff; stroke-width: 0.669328"/>
    <path d="M 229.414061 150.457015 
L 231.505711 148.365365 
L 233.597361 150.457015 
L 235.689011 148.365365 
L 233.597361 146.273715 
L 235.689011 144.182065 
L 233.597361 142.090414 
L 231.505711 144.182065 
L 229.414061 142.090414 
L 227.322411 144.182065 
L 229.414061 146.273715 
L 227.322411 148.365365 
z
" clip-path="url(#p138ca584ed)" style="fill: #e5bf86; stroke: #ffffff; stroke-width: 0.669328"/>
    <path d="M 245.082868 106.856992 
L 247.174518 104.765342 
L 249.266168 106.856992 
L 251.357818 104.765342 
L 249.266168 102.673692 
L 251.357818 100.582042 
L 249.266168 98.490392 
L 247.174518 100.582042 
L 245.082868 98.490392 
L 242.991218 100.582042 
L 245.082868 102.673692 
L 242.991218 104.765342 
z
" clip-path="url(#p138ca584ed)" style="fill: #287dab; stroke: #ffffff; stroke-width: 0.669328"/>
    <path d="M 105.147657 181.814044 
C 106.257081 181.814044 107.321215 181.373265 108.105697 180.588784 
C 108.890178 179.804302 109.330957 178.740168 109.330957 177.630744 
C 109.330957 176.52132 108.890178 175.457185 108.105697 174.672704 
C 107.321215 173.888223 106.257081 173.447444 105.147657 173.447444 
C 104.038233 173.447444 102.974098 173.888223 102.189617 174.672704 
C 101.405136 175.457185 100.964357 176.52132 100.964357 177.630744 
C 100.964357 178.740168 101.405136 179.804302 102.189617 180.588784 
C 102.974098 181.373265 104.038233 181.814044 105.147657 181.814044 
z
" clip-path="url(#p138ca584ed)" style="fill: #e5bf86; stroke: #ffffff; stroke-width: 0.669328"/>
    <path d="M 160.72246 173.390229 
C 161.831884 173.390229 162.896018 172.94945 163.6805 172.164969 
C 164.464981 171.380487 164.90576 170.316353 164.90576 169.206929 
C 164.90576 168.097505 164.464981 167.03337 163.6805 166.248889 
C 162.896018 165.464408 161.831884 165.023629 160.72246 165.023629 
C 159.613036 165.023629 158.548901 165.464408 157.76442 166.248889 
C 156.979939 167.03337 156.53916 168.097505 156.53916 169.206929 
C 156.53916 170.316353 156.979939 171.380487 157.76442 172.164969 
C 158.548901 172.94945 159.613036 173.390229 160.72246 173.390229 
z
" clip-path="url(#p138ca584ed)" style="fill: #e5bf86; stroke: #ffffff; stroke-width: 0.669328"/>
    <path d="M 154.421238 229.629608 
C 155.530662 229.629608 156.594796 229.188829 157.379278 228.404348 
C 158.163759 227.619866 158.604538 226.555732 158.604538 225.446308 
C 158.604538 224.336884 158.163759 223.272749 157.379278 222.488268 
C 156.594796 221.703787 155.530662 221.263008 154.421238 221.263008 
C 153.311814 221.263008 152.247679 221.703787 151.463198 222.488268 
C 150.678716 223.272749 150.237938 224.336884 150.237938 225.446308 
C 150.237938 226.555732 150.678716 227.619866 151.463198 228.404348 
C 152.247679 229.188829 153.311814 229.629608 154.421238 229.629608 
z
" clip-path="url(#p138ca584ed)" style="fill: #e5bf86; stroke: #ffffff; stroke-width: 0.669328"/>
    <path d="M 139.090301 234.563345 
C 140.199725 234.563345 141.263859 234.122566 142.04834 233.338084 
C 142.832822 232.553603 143.273601 231.489469 143.273601 230.380045 
C 143.273601 229.27062 142.832822 228.206486 142.04834 227.422005 
C 141.263859 226.637523 140.199725 226.196744 139.090301 226.196744 
C 137.980876 226.196744 136.916742 226.637523 136.132261 227.422005 
C 135.347779 228.206486 134.907 229.27062 134.907 230.380045 
C 134.907 231.489469 135.347779 232.553603 136.132261 233.338084 
C 136.916742 234.122566 137.980876 234.563345 139.090301 234.563345 
z
" clip-path="url(#p138ca584ed)" style="fill: #287dab; stroke: #ffffff; stroke-width: 0.669328"/>
    <path d="M 312.313954 48.222337 
L 314.405604 46.130687 
L 316.497254 48.222337 
L 318.588904 46.130687 
L 316.497254 44.039037 
L 318.588904 41.947387 
L 316.497254 39.855737 
L 314.405604 41.947387 
L 312.313954 39.855737 
L 310.222304 41.947387 
L 312.313954 44.039037 
L 310.222304 46.130687 
z
" clip-path="url(#p138ca584ed)" style="fill: #e5bf86; stroke: #ffffff; stroke-width: 0.669328"/>
    <path d="M 68.67179 64.935802 
C 69.781214 64.935802 70.845348 64.495024 71.62983 63.710542 
C 72.414311 62.926061 72.85509 61.861926 72.85509 60.752502 
C 72.85509 59.643078 72.414311 58.578944 71.62983 57.794462 
C 70.845348 57.009981 69.781214 56.569202 68.67179 56.569202 
C 67.562366 56.569202 66.498231 57.009981 65.71375 57.794462 
C 64.929269 58.578944 64.48849 59.643078 64.48849 60.752502 
C 64.48849 61.861926 64.929269 62.926061 65.71375 63.710542 
C 66.498231 64.495024 67.562366 64.935802 68.67179 64.935802 
z
" clip-path="url(#p138ca584ed)" style="fill: #287dab; stroke: #ffffff; stroke-width: 0.669328"/>
    <path d="M 199.074077 61.205359 
L 201.165727 59.113709 
L 203.257377 61.205359 
L 205.349027 59.113709 
L 203.257377 57.022059 
L 205.349027 54.930409 
L 203.257377 52.838759 
L 201.165727 54.930409 
L 199.074077 52.838759 
L 196.982427 54.930409 
L 199.074077 57.022059 
L 196.982427 59.113709 
z
" clip-path="url(#p138ca584ed)" style="fill: #e5bf86; stroke: #ffffff; stroke-width: 0.669328"/>
    <path d="M 151.861635 74.856972 
L 153.953285 72.765322 
L 156.044935 74.856972 
L 158.136585 72.765322 
L 156.044935 70.673672 
L 158.136585 68.582022 
L 156.044935 66.490371 
L 153.953285 68.582022 
L 151.861635 66.490371 
L 149.769985 68.582022 
L 151.861635 70.673672 
L 149.769985 72.765322 
z
" clip-path="url(#p138ca584ed)" style="fill: #e5bf86; stroke: #ffffff; stroke-width: 0.669328"/>
    <path d="M 127.286884 190.40688 
C 128.396308 190.40688 129.460443 189.966101 130.244924 189.18162 
C 131.029406 188.397138 131.470184 187.333004 131.470184 186.22358 
C 131.470184 185.114156 131.029406 184.050021 130.244924 183.26554 
C 129.460443 182.481059 128.396308 182.04028 127.286884 182.04028 
C 126.17746 182.04028 125.113326 182.481059 124.328844 183.26554 
C 123.544363 184.050021 123.103584 185.114156 123.103584 186.22358 
C 123.103584 187.333004 123.544363 188.397138 124.328844 189.18162 
C 125.113326 189.966101 126.17746 190.40688 127.286884 190.40688 
z
" clip-path="url(#p138ca584ed)" style="fill: #287dab; stroke: #ffffff; stroke-width: 0.669328"/>
    <path d="M 179.792127 138.293832 
L 181.883777 136.202182 
L 183.975427 138.293832 
L 186.067077 136.202182 
L 183.975427 134.110532 
L 186.067077 132.018881 
L 183.975427 129.927231 
L 181.883777 132.018881 
L 179.792127 129.927231 
L 177.700477 132.018881 
L 179.792127 134.110532 
L 177.700477 136.202182 
z
" clip-path="url(#p138ca584ed)" style="fill: #e5bf86; stroke: #ffffff; stroke-width: 0.669328"/>
    <path d="M 223.423314 146.365878 
L 225.514964 144.274228 
L 227.606614 146.365878 
L 229.698264 144.274228 
L 227.606614 142.182578 
L 229.698264 140.090928 
L 227.606614 137.999278 
L 225.514964 140.090928 
L 223.423314 137.999278 
L 221.331664 140.090928 
L 223.423314 142.182578 
L 221.331664 144.274228 
z
" clip-path="url(#p138ca584ed)" style="fill: #e5bf86; stroke: #ffffff; stroke-width: 0.669328"/>
    <path d="M 283.057187 115.763678 
L 285.148837 113.672028 
L 287.240487 115.763678 
L 289.332137 113.672028 
L 287.240487 111.580378 
L 289.332137 109.488728 
L 287.240487 107.397078 
L 285.148837 109.488728 
L 283.057187 107.397078 
L 280.965536 109.488728 
L 283.057187 111.580378 
L 280.965536 113.672028 
z
" clip-path="url(#p138ca584ed)" style="fill: #e5bf86; stroke: #ffffff; stroke-width: 0.669328"/>
    <path d="M 177.106884 234.574945 
C 178.216308 234.574945 179.280442 234.134166 180.064924 233.349685 
C 180.849405 232.565203 181.290184 231.501069 181.290184 230.391645 
C 181.290184 229.282221 180.849405 228.218086 180.064924 227.433605 
C 179.280442 226.649124 178.216308 226.208345 177.106884 226.208345 
C 175.99746 226.208345 174.933325 226.649124 174.148844 227.433605 
C 173.364363 228.218086 172.923584 229.282221 172.923584 230.391645 
C 172.923584 231.501069 173.364363 232.565203 174.148844 233.349685 
C 174.933325 234.134166 175.99746 234.574945 177.106884 234.574945 
z
" clip-path="url(#p138ca584ed)" style="fill: #e5bf86; stroke: #ffffff; stroke-width: 0.669328"/>
    <path d="M 151.897536 82.729669 
L 153.989186 80.638019 
L 156.080836 82.729669 
L 158.172486 80.638019 
L 156.080836 78.546369 
L 158.172486 76.454719 
L 156.080836 74.363069 
L 153.989186 76.454719 
L 151.897536 74.363069 
L 149.805886 76.454719 
L 151.897536 78.546369 
L 149.805886 80.638019 
z
" clip-path="url(#p138ca584ed)" style="fill: #e5bf86; stroke: #ffffff; stroke-width: 0.669328"/>
    <path d="M 72.463496 182.709714 
C 73.57292 182.709714 74.637055 182.268935 75.421536 181.484453 
C 76.206017 180.699972 76.646796 179.635838 76.646796 178.526414 
C 76.646796 177.416989 76.206017 176.352855 75.421536 175.568374 
C 74.637055 174.783892 73.57292 174.343113 72.463496 174.343113 
C 71.354072 174.343113 70.289938 174.783892 69.505456 175.568374 
C 68.720975 176.352855 68.280196 177.416989 68.280196 178.526414 
C 68.280196 179.635838 68.720975 180.699972 69.505456 181.484453 
C 70.289938 182.268935 71.354072 182.709714 72.463496 182.709714 
z
" clip-path="url(#p138ca584ed)" style="fill: #e5bf86; stroke: #ffffff; stroke-width: 0.669328"/>
   </g>
   <g id="PathCollection_2"/>
   <g id="PathCollection_3"/>
   <g id="PathCollection_4"/>
   <g id="PathCollection_5"/>
   <g id="matplotlib.axis_1">
    <g id="xtick_1">
     <g id="line2d_1">
      <defs>
       <path id="ma6002d30fb" d="M 0 0 
L 0 3.5 
" style="stroke: #000000; stroke-width: 0.8"/>
      </defs>
      <g>
       <use xlink:href="#ma6002d30fb" x="77.73419" y="288.430125" style="stroke: #000000; stroke-width: 0.8"/>
      </g>
     </g>
     <g id="text_1">
      <text style="font: 10px 'DejaVu Sans', 'Bitstream Vera Sans', 'Computer Modern Sans Serif', 'Lucida Grande', 'Verdana', 'Geneva', 'Lucid', 'Arial', 'Helvetica', 'Avant Garde', sans-serif; text-anchor: middle" x="77.73419" y="303.028562" transform="rotate(-0 77.73419 303.028562)">−0.2</text>
     </g>
    </g>
    <g id="xtick_2">
     <g id="line2d_2">
      <g>
       <use xlink:href="#ma6002d30fb" x="137.67771" y="288.430125" style="stroke: #000000; stroke-width: 0.8"/>
      </g>
     </g>
     <g id="text_2">
      <text style="font: 10px 'DejaVu Sans', 'Bitstream Vera Sans', 'Computer Modern Sans Serif', 'Lucida Grande', 'Verdana', 'Geneva', 'Lucid', 'Arial', 'Helvetica', 'Avant Garde', sans-serif; text-anchor: middle" x="137.67771" y="303.028562" transform="rotate(-0 137.67771 303.028562)">−0.1</text>
     </g>
    </g>
    <g id="xtick_3">
     <g id="line2d_3">
      <g>
       <use xlink:href="#ma6002d30fb" x="197.62123" y="288.430125" style="stroke: #000000; stroke-width: 0.8"/>
      </g>
     </g>
     <g id="text_3">
      <text style="font: 10px 'DejaVu Sans', 'Bitstream Vera Sans', 'Computer Modern Sans Serif', 'Lucida Grande', 'Verdana', 'Geneva', 'Lucid', 'Arial', 'Helvetica', 'Avant Garde', sans-serif; text-anchor: middle" x="197.62123" y="303.028562" transform="rotate(-0 197.62123 303.028562)">0.0</text>
     </g>
    </g>
    <g id="xtick_4">
     <g id="line2d_4">
      <g>
       <use xlink:href="#ma6002d30fb" x="257.56475" y="288.430125" style="stroke: #000000; stroke-width: 0.8"/>
      </g>
     </g>
     <g id="text_4">
      <text style="font: 10px 'DejaVu Sans', 'Bitstream Vera Sans', 'Computer Modern Sans Serif', 'Lucida Grande', 'Verdana', 'Geneva', 'Lucid', 'Arial', 'Helvetica', 'Avant Garde', sans-serif; text-anchor: middle" x="257.56475" y="303.028562" transform="rotate(-0 257.56475 303.028562)">0.1</text>
     </g>
    </g>
    <g id="xtick_5">
     <g id="line2d_5">
      <g>
       <use xlink:href="#ma6002d30fb" x="317.508271" y="288.430125" style="stroke: #000000; stroke-width: 0.8"/>
      </g>
     </g>
     <g id="text_5">
      <text style="font: 10px 'DejaVu Sans', 'Bitstream Vera Sans', 'Computer Modern Sans Serif', 'Lucida Grande', 'Verdana', 'Geneva', 'Lucid', 'Arial', 'Helvetica', 'Avant Garde', sans-serif; text-anchor: middle" x="317.508271" y="303.028562" transform="rotate(-0 317.508271 303.028562)">0.2</text>
     </g>
    </g>
    <g id="xtick_6">
     <g id="line2d_6">
      <g>
       <use xlink:href="#ma6002d30fb" x="377.451791" y="288.430125" style="stroke: #000000; stroke-width: 0.8"/>
      </g>
     </g>
     <g id="text_6">
      <text style="font: 10px 'DejaVu Sans', 'Bitstream Vera Sans', 'Computer Modern Sans Serif', 'Lucida Grande', 'Verdana', 'Geneva', 'Lucid', 'Arial', 'Helvetica', 'Avant Garde', sans-serif; text-anchor: middle" x="377.451791" y="303.028562" transform="rotate(-0 377.451791 303.028562)">0.3</text>
     </g>
    </g>
    <g id="text_7">
     <text style="font: 10px 'DejaVu Sans', 'Bitstream Vera Sans', 'Computer Modern Sans Serif', 'Lucida Grande', 'Verdana', 'Geneva', 'Lucid', 'Arial', 'Helvetica', 'Avant Garde', sans-serif; text-anchor: middle" x="230.999063" y="316.706687" transform="rotate(-0 230.999063 316.706687)">Axis1_63.9</text>
    </g>
   </g>
   <g id="matplotlib.axis_2">
    <g id="ytick_1">
     <g id="line2d_7">
      <defs>
       <path id="m7a0b0bb795" d="M 0 0 
L -3.5 0 
" style="stroke: #000000; stroke-width: 0.8"/>
      </defs>
      <g>
       <use xlink:href="#m7a0b0bb795" x="52.439063" y="264.148597" style="stroke: #000000; stroke-width: 0.8"/>
      </g>
     </g>
     <g id="text_8">
      <text style="font: 10px 'DejaVu Sans', 'Bitstream Vera Sans', 'Computer Modern Sans Serif', 'Lucida Grande', 'Verdana', 'Geneva', 'Lucid', 'Arial', 'Helvetica', 'Avant Garde', sans-serif; text-anchor: end" x="45.439063" y="267.947815" transform="rotate(-0 45.439063 267.947815)">−0.2</text>
     </g>
    </g>
    <g id="ytick_2">
     <g id="line2d_8">
      <g>
       <use xlink:href="#m7a0b0bb795" x="52.439063" y="206.77238" style="stroke: #000000; stroke-width: 0.8"/>
      </g>
     </g>
     <g id="text_9">
      <text style="font: 10px 'DejaVu Sans', 'Bitstream Vera Sans', 'Computer Modern Sans Serif', 'Lucida Grande', 'Verdana', 'Geneva', 'Lucid', 'Arial', 'Helvetica', 'Avant Garde', sans-serif; text-anchor: end" x="45.439063" y="210.571599" transform="rotate(-0 45.439063 210.571599)">−0.1</text>
     </g>
    </g>
    <g id="ytick_3">
     <g id="line2d_9">
      <g>
       <use xlink:href="#m7a0b0bb795" x="52.439063" y="149.396163" style="stroke: #000000; stroke-width: 0.8"/>
      </g>
     </g>
     <g id="text_10">
      <text style="font: 10px 'DejaVu Sans', 'Bitstream Vera Sans', 'Computer Modern Sans Serif', 'Lucida Grande', 'Verdana', 'Geneva', 'Lucid', 'Arial', 'Helvetica', 'Avant Garde', sans-serif; text-anchor: end" x="45.439063" y="153.195382" transform="rotate(-0 45.439063 153.195382)">0.0</text>
     </g>
    </g>
    <g id="ytick_4">
     <g id="line2d_10">
      <g>
       <use xlink:href="#m7a0b0bb795" x="52.439063" y="92.019946" style="stroke: #000000; stroke-width: 0.8"/>
      </g>
     </g>
     <g id="text_11">
      <text style="font: 10px 'DejaVu Sans', 'Bitstream Vera Sans', 'Computer Modern Sans Serif', 'Lucida Grande', 'Verdana', 'Geneva', 'Lucid', 'Arial', 'Helvetica', 'Avant Garde', sans-serif; text-anchor: end" x="45.439063" y="95.819165" transform="rotate(-0 45.439063 95.819165)">0.1</text>
     </g>
    </g>
    <g id="ytick_5">
     <g id="line2d_11">
      <g>
       <use xlink:href="#m7a0b0bb795" x="52.439063" y="34.643729" style="stroke: #000000; stroke-width: 0.8"/>
      </g>
     </g>
     <g id="text_12">
      <text style="font: 10px 'DejaVu Sans', 'Bitstream Vera Sans', 'Computer Modern Sans Serif', 'Lucida Grande', 'Verdana', 'Geneva', 'Lucid', 'Arial', 'Helvetica', 'Avant Garde', sans-serif; text-anchor: end" x="45.439063" y="38.442948" transform="rotate(-0 45.439063 38.442948)">0.2</text>
     </g>
    </g>
    <g id="text_13">
     <text style="font: 10px 'DejaVu Sans', 'Bitstream Vera Sans', 'Computer Modern Sans Serif', 'Lucida Grande', 'Verdana', 'Geneva', 'Lucid', 'Arial', 'Helvetica', 'Avant Garde', sans-serif; text-anchor: middle" x="14.798438" y="155.374125" transform="rotate(-90 14.798438 155.374125)">Axis2_30.7</text>
    </g>
   </g>
   <g id="patch_3">
    <path d="M 52.439063 288.430125 
L 52.439063 22.318125 
" style="fill: none; stroke: #000000; stroke-width: 0.8; stroke-linejoin: miter; stroke-linecap: square"/>
   </g>
   <g id="patch_4">
    <path d="M 409.559062 288.430125 
L 409.559062 22.318125 
" style="fill: none; stroke: #000000; stroke-width: 0.8; stroke-linejoin: miter; stroke-linecap: square"/>
   </g>
   <g id="patch_5">
    <path d="M 52.439063 288.430125 
L 409.559063 288.430125 
" style="fill: none; stroke: #000000; stroke-width: 0.8; stroke-linejoin: miter; stroke-linecap: square"/>
   </g>
   <g id="patch_6">
    <path d="M 52.439063 22.318125 
L 409.559063 22.318125 
" style="fill: none; stroke: #000000; stroke-width: 0.8; stroke-linejoin: miter; stroke-linecap: square"/>
   </g>
   <g id="text_14">
    <text style="font: 12px 'DejaVu Sans', 'Bitstream Vera Sans', 'Computer Modern Sans Serif', 'Lucida Grande', 'Verdana', 'Geneva', 'Lucid', 'Arial', 'Helvetica', 'Avant Garde', sans-serif; text-anchor: middle" x="230.999063" y="16.318125" transform="rotate(-0 230.999063 16.318125)">3XTG</text>
   </g>
   <g id="legend_1">
    <g id="patch_7">
     <path d="M 416.559062 118.386875 
L 495.8575 118.386875 
Q 497.8575 118.386875 497.8575 116.386875 
L 497.8575 29.318125 
Q 497.8575 27.318125 495.8575 27.318125 
L 416.559062 27.318125 
Q 414.559062 27.318125 414.559062 29.318125 
L 414.559062 116.386875 
Q 414.559062 118.386875 416.559062 118.386875 
z
" style="fill: #ffffff; opacity: 0.8; stroke: #cccccc; stroke-linejoin: miter"/>
    </g>
    <g id="text_15">
     <text style="font: 10px 'DejaVu Sans', 'Bitstream Vera Sans', 'Computer Modern Sans Serif', 'Lucida Grande', 'Verdana', 'Geneva', 'Lucid', 'Arial', 'Helvetica', 'Avant Garde', sans-serif; text-anchor: start" x="446.559062" y="38.916562" transform="rotate(-0 446.559062 38.916562)">sex</text>
    </g>
    <g id="PathCollection_6">
     <defs>
      <path id="m5a274cdf14" d="M 0 3 
C 0.795609 3 1.55874 2.683901 2.12132 2.12132 
C 2.683901 1.55874 3 0.795609 3 0 
C 3 -0.795609 2.683901 -1.55874 2.12132 -2.12132 
C 1.55874 -2.683901 0.795609 -3 0 -3 
C -0.795609 -3 -1.55874 -2.683901 -2.12132 -2.12132 
C -2.683901 -1.55874 -3 -0.795609 -3 0 
C -3 0.795609 -2.683901 1.55874 -2.12132 2.12132 
C -1.55874 2.683901 -0.795609 3 0 3 
z
" style="stroke: #e5bf86"/>
     </defs>
     <g>
      <use xlink:href="#m5a274cdf14" x="428.559062" y="50.969687" style="fill: #e5bf86; stroke: #e5bf86"/>
     </g>
    </g>
    <g id="text_16">
     <text style="font: 10px 'DejaVu Sans', 'Bitstream Vera Sans', 'Computer Modern Sans Serif', 'Lucida Grande', 'Verdana', 'Geneva', 'Lucid', 'Arial', 'Helvetica', 'Avant Garde', sans-serif; text-anchor: start" x="446.559062" y="53.594687" transform="rotate(-0 446.559062 53.594687)">male</text>
    </g>
    <g id="PathCollection_7">
     <defs>
      <path id="m357a86b3b9" d="M 0 3 
C 0.795609 3 1.55874 2.683901 2.12132 2.12132 
C 2.683901 1.55874 3 0.795609 3 0 
C 3 -0.795609 2.683901 -1.55874 2.12132 -2.12132 
C 1.55874 -2.683901 0.795609 -3 0 -3 
C -0.795609 -3 -1.55874 -2.683901 -2.12132 -2.12132 
C -2.683901 -1.55874 -3 -0.795609 -3 0 
C -3 0.795609 -2.683901 1.55874 -2.12132 2.12132 
C -1.55874 2.683901 -0.795609 3 0 3 
z
" style="stroke: #287dab"/>
     </defs>
     <g>
      <use xlink:href="#m357a86b3b9" x="428.559062" y="65.647812" style="fill: #287dab; stroke: #287dab"/>
     </g>
    </g>
    <g id="text_17">
     <text style="font: 10px 'DejaVu Sans', 'Bitstream Vera Sans', 'Computer Modern Sans Serif', 'Lucida Grande', 'Verdana', 'Geneva', 'Lucid', 'Arial', 'Helvetica', 'Avant Garde', sans-serif; text-anchor: start" x="446.559062" y="68.272812" transform="rotate(-0 446.559062 68.272812)">female</text>
    </g>
    <g id="text_18">
     <text style="font: 10px 'DejaVu Sans', 'Bitstream Vera Sans', 'Computer Modern Sans Serif', 'Lucida Grande', 'Verdana', 'Geneva', 'Lucid', 'Arial', 'Helvetica', 'Avant Garde', sans-serif; text-anchor: start" x="446.559062" y="82.950937" transform="rotate(-0 446.559062 82.950937)">genotype</text>
    </g>
    <g id="PathCollection_8">
     <defs>
      <path id="m99f65cb4c0" d="M 0 4.1833 
C 1.109424 4.1833 2.173559 3.742521 2.95804 2.95804 
C 3.742521 2.173559 4.1833 1.109424 4.1833 0 
C 4.1833 -1.109424 3.742521 -2.173559 2.95804 -2.95804 
C 2.173559 -3.742521 1.109424 -4.1833 0 -4.1833 
C -1.109424 -4.1833 -2.173559 -3.742521 -2.95804 -2.95804 
C -3.742521 -2.173559 -4.1833 -1.109424 -4.1833 0 
C -4.1833 1.109424 -3.742521 2.173559 -2.95804 2.95804 
C -2.173559 3.742521 -1.109424 4.1833 0 4.1833 
z
" style="stroke: #333333"/>
     </defs>
     <g>
      <use xlink:href="#m99f65cb4c0" x="428.559062" y="95.004062" style="fill: #333333; stroke: #333333"/>
     </g>
    </g>
    <g id="text_19">
     <text style="font: 10px 'DejaVu Sans', 'Bitstream Vera Sans', 'Computer Modern Sans Serif', 'Lucida Grande', 'Verdana', 'Geneva', 'Lucid', 'Arial', 'Helvetica', 'Avant Garde', sans-serif; text-anchor: start" x="446.559062" y="97.629062" transform="rotate(-0 446.559062 97.629062)">3XTG</text>
    </g>
    <g id="PathCollection_9">
     <defs>
      <path id="mfb59730b0b" d="M -2.09165 4.1833 
L 0 2.09165 
L 2.09165 4.1833 
L 4.1833 2.09165 
L 2.09165 0 
L 4.1833 -2.09165 
L 2.09165 -4.1833 
L 0 -2.09165 
L -2.09165 -4.1833 
L -4.1833 -2.09165 
L -2.09165 0 
L -4.1833 2.09165 
z
" style="stroke: #333333"/>
     </defs>
     <g>
      <use xlink:href="#mfb59730b0b" x="428.559062" y="109.682187" style="fill: #333333; stroke: #333333"/>
     </g>
    </g>
    <g id="text_20">
     <text style="font: 10px 'DejaVu Sans', 'Bitstream Vera Sans', 'Computer Modern Sans Serif', 'Lucida Grande', 'Verdana', 'Geneva', 'Lucid', 'Arial', 'Helvetica', 'Avant Garde', sans-serif; text-anchor: start" x="446.559062" y="112.307187" transform="rotate(-0 446.559062 112.307187)">B6</text>
    </g>
   </g>
  </g>
 </g>
 <defs>
  <clipPath id="p138ca584ed">
   <rect x="52.439063" y="22.318125" width="357.12" height="266.112"/>
  </clipPath>
 </defs>
</svg>
