<?xml version="1.0" encoding="utf-8" standalone="no"?>
<!DOCTYPE svg PUBLIC "-//W3C//DTD SVG 1.1//EN"
  "http://www.w3.org/Graphics/SVG/1.1/DTD/svg11.dtd">
<svg xmlns:xlink="http://www.w3.org/1999/xlink" width="497.377812pt" height="311.146375pt" viewBox="0 0 497.377812 311.146375" xmlns="http://www.w3.org/2000/svg" version="1.1">
 <metadata>
  <rdf:RDF xmlns:dc="http://purl.org/dc/elements/1.1/" xmlns:cc="http://creativecommons.org/ns#" xmlns:rdf="http://www.w3.org/1999/02/22-rdf-syntax-ns#">
   <cc:Work>
    <dc:type rdf:resource="http://purl.org/dc/dcmitype/StillImage"/>
    <dc:date>2024-11-22T13:56:10.246994</dc:date>
    <dc:format>image/svg+xml</dc:format>
    <dc:creator>
     <cc:Agent>
      <dc:title>Matplotlib v3.6.0, https://matplotlib.org/</dc:title>
     </cc:Agent>
    </dc:creator>
   </cc:Work>
  </rdf:RDF>
 </metadata>
 <defs>
  <style type="text/css">*{stroke-linejoin: round; stroke-linecap: butt}</style>
 </defs>
 <g id="figure_1">
  <g id="patch_1">
   <path d="M 0 311.146375 
L 497.377813 311.146375 
L 497.377813 0 
L 0 0 
z
" style="fill: #ffffff"/>
  </g>
  <g id="axes_1">
   <g id="patch_2">
    <path d="M 65.164062 273.312 
L 422.284063 273.312 
L 422.284063 7.2 
L 65.164062 7.2 
z
" style="fill: #ffffff"/>
   </g>
   <g id="PolyCollection_1">
    <defs>
     <path id="mfbc791d3a4" d="M 81.39679 -97.177408 
L 81.39679 -84.28841 
L 104.5864 -93.308047 
L 127.776011 -50.040476 
L 150.965621 -87.74047 
L 174.155231 -100.659133 
L 197.344842 -115.092518 
L 220.534452 -68.644565 
L 243.724063 -123.172238 
L 266.913673 -118.567662 
L 290.103283 -129.070841 
L 313.292894 -53.582518 
L 336.482504 -49.930375 
L 359.672114 -102.159213 
L 382.861725 -115.88968 
L 406.051335 -89.556885 
L 406.051335 -136.574206 
L 406.051335 -136.574206 
L 382.861725 -140.80211 
L 359.672114 -131.472793 
L 336.482504 -74.0325 
L 313.292894 -99.978701 
L 290.103283 -170.699513 
L 266.913673 -148.679208 
L 243.724063 -175.361054 
L 220.534452 -102.513256 
L 197.344842 -155.529814 
L 174.155231 -136.84265 
L 150.965621 -121.919757 
L 127.776011 -77.356449 
L 104.5864 -117.034703 
L 81.39679 -97.177408 
z
" style="stroke: #5f4b8b; stroke-opacity: 0.2"/>
    </defs>
    <g clip-path="url(#pb0fd738eac)">
     <use xlink:href="#mfbc791d3a4" x="0" y="311.146375" style="fill: #5f4b8b; fill-opacity: 0.2; stroke: #5f4b8b; stroke-opacity: 0.2"/>
    </g>
   </g>
   <g id="PolyCollection_2">
    <defs>
     <path id="m62c9aa4d02" d="M 81.39679 -291.850375 
L 81.39679 -233.744691 
L 104.5864 -250.38054 
L 127.776011 -203.901978 
L 150.965621 -209.799512 
L 174.155231 -205.636469 
L 197.344842 -252.94174 
L 220.534452 -170.202176 
L 243.724063 -208.862624 
L 266.913673 -190.648027 
L 290.103283 -212.128919 
L 313.292894 -191.772526 
L 336.482504 -158.414414 
L 359.672114 -142.589491 
L 406.051335 -106.770371 
L 406.051335 -124.294006 
L 406.051335 -124.294006 
L 359.672114 -151.084867 
L 336.482504 -181.841561 
L 313.292894 -219.752387 
L 290.103283 -238.272968 
L 266.913673 -240.896276 
L 243.724063 -240.679857 
L 220.534452 -203.267704 
L 197.344842 -261.713859 
L 174.155231 -225.271831 
L 150.965621 -241.53461 
L 127.776011 -226.753426 
L 104.5864 -277.762005 
L 81.39679 -291.850375 
z
" style="stroke: #e69a8d; stroke-opacity: 0.2"/>
    </defs>
    <g clip-path="url(#pb0fd738eac)">
     <use xlink:href="#m62c9aa4d02" x="0" y="311.146375" style="fill: #e69a8d; fill-opacity: 0.2; stroke: #e69a8d; stroke-opacity: 0.2"/>
    </g>
   </g>
   <g id="matplotlib.axis_1">
    <g id="xtick_1">
     <g id="line2d_1">
      <defs>
       <path id="mc273d1361c" d="M 0 0 
L 0 3.5 
" style="stroke: #000000; stroke-width: 0.8"/>
      </defs>
      <g>
       <use xlink:href="#mc273d1361c" x="104.5864" y="273.312" style="stroke: #000000; stroke-width: 0.8"/>
      </g>
     </g>
     <g id="text_1">
      <text style="font: 10px 'sans-serif'; text-anchor: middle" x="104.5864" y="287.910437" transform="rotate(-0 104.5864 287.910437)">2</text>
     </g>
    </g>
    <g id="xtick_2">
     <g id="line2d_2">
      <g>
       <use xlink:href="#mc273d1361c" x="150.965621" y="273.312" style="stroke: #000000; stroke-width: 0.8"/>
      </g>
     </g>
     <g id="text_2">
      <text style="font: 10px 'sans-serif'; text-anchor: middle" x="150.965621" y="287.910437" transform="rotate(-0 150.965621 287.910437)">4</text>
     </g>
    </g>
    <g id="xtick_3">
     <g id="line2d_3">
      <g>
       <use xlink:href="#mc273d1361c" x="197.344842" y="273.312" style="stroke: #000000; stroke-width: 0.8"/>
      </g>
     </g>
     <g id="text_3">
      <text style="font: 10px 'sans-serif'; text-anchor: middle" x="197.344842" y="287.910437" transform="rotate(-0 197.344842 287.910437)">6</text>
     </g>
    </g>
    <g id="xtick_4">
     <g id="line2d_4">
      <g>
       <use xlink:href="#mc273d1361c" x="243.724063" y="273.312" style="stroke: #000000; stroke-width: 0.8"/>
      </g>
     </g>
     <g id="text_4">
      <text style="font: 10px 'sans-serif'; text-anchor: middle" x="243.724063" y="287.910437" transform="rotate(-0 243.724063 287.910437)">8</text>
     </g>
    </g>
    <g id="xtick_5">
     <g id="line2d_5">
      <g>
       <use xlink:href="#mc273d1361c" x="290.103283" y="273.312" style="stroke: #000000; stroke-width: 0.8"/>
      </g>
     </g>
     <g id="text_5">
      <text style="font: 10px 'sans-serif'; text-anchor: middle" x="290.103283" y="287.910437" transform="rotate(-0 290.103283 287.910437)">10</text>
     </g>
    </g>
    <g id="xtick_6">
     <g id="line2d_6">
      <g>
       <use xlink:href="#mc273d1361c" x="336.482504" y="273.312" style="stroke: #000000; stroke-width: 0.8"/>
      </g>
     </g>
     <g id="text_6">
      <text style="font: 10px 'sans-serif'; text-anchor: middle" x="336.482504" y="287.910437" transform="rotate(-0 336.482504 287.910437)">12</text>
     </g>
    </g>
    <g id="xtick_7">
     <g id="line2d_7">
      <g>
       <use xlink:href="#mc273d1361c" x="382.861725" y="273.312" style="stroke: #000000; stroke-width: 0.8"/>
      </g>
     </g>
     <g id="text_7">
      <text style="font: 10px 'sans-serif'; text-anchor: middle" x="382.861725" y="287.910437" transform="rotate(-0 382.861725 287.910437)">14</text>
     </g>
    </g>
    <g id="text_8">
     <text style="font: 10px 'sans-serif'; text-anchor: middle" x="243.724063" y="301.588562" transform="rotate(-0 243.724063 301.588562)">host_age</text>
    </g>
   </g>
   <g id="matplotlib.axis_2">
    <g id="ytick_1">
     <g id="line2d_8">
      <defs>
       <path id="m78afdc68da" d="M 0 0 
L -3.5 0 
" style="stroke: #000000; stroke-width: 0.8"/>
      </defs>
      <g>
       <use xlink:href="#m78afdc68da" x="65.164062" y="243.151015" style="stroke: #000000; stroke-width: 0.8"/>
      </g>
     </g>
     <g id="text_9">
      <text style="font: 10px 'sans-serif'; text-anchor: end" x="58.164062" y="246.950233" transform="rotate(-0 58.164062 246.950233)">−0.050</text>
     </g>
    </g>
    <g id="ytick_2">
     <g id="line2d_9">
      <g>
       <use xlink:href="#m78afdc68da" x="65.164062" y="207.504642" style="stroke: #000000; stroke-width: 0.8"/>
      </g>
     </g>
     <g id="text_10">
      <text style="font: 10px 'sans-serif'; text-anchor: end" x="58.164062" y="211.303861" transform="rotate(-0 58.164062 211.303861)">−0.025</text>
     </g>
    </g>
    <g id="ytick_3">
     <g id="line2d_10">
      <g>
       <use xlink:href="#m78afdc68da" x="65.164062" y="171.85827" style="stroke: #000000; stroke-width: 0.8"/>
      </g>
     </g>
     <g id="text_11">
      <text style="font: 10px 'sans-serif'; text-anchor: end" x="58.164062" y="175.657488" transform="rotate(-0 58.164062 175.657488)">0.000</text>
     </g>
    </g>
    <g id="ytick_4">
     <g id="line2d_11">
      <g>
       <use xlink:href="#m78afdc68da" x="65.164062" y="136.211897" style="stroke: #000000; stroke-width: 0.8"/>
      </g>
     </g>
     <g id="text_12">
      <text style="font: 10px 'sans-serif'; text-anchor: end" x="58.164062" y="140.011116" transform="rotate(-0 58.164062 140.011116)">0.025</text>
     </g>
    </g>
    <g id="ytick_5">
     <g id="line2d_12">
      <g>
       <use xlink:href="#m78afdc68da" x="65.164062" y="100.565525" style="stroke: #000000; stroke-width: 0.8"/>
      </g>
     </g>
     <g id="text_13">
      <text style="font: 10px 'sans-serif'; text-anchor: end" x="58.164062" y="104.364743" transform="rotate(-0 58.164062 104.364743)">0.050</text>
     </g>
    </g>
    <g id="ytick_6">
     <g id="line2d_13">
      <g>
       <use xlink:href="#m78afdc68da" x="65.164062" y="64.919152" style="stroke: #000000; stroke-width: 0.8"/>
      </g>
     </g>
     <g id="text_14">
      <text style="font: 10px 'sans-serif'; text-anchor: end" x="58.164062" y="68.718371" transform="rotate(-0 58.164062 68.718371)">0.075</text>
     </g>
    </g>
    <g id="ytick_7">
     <g id="line2d_14">
      <g>
       <use xlink:href="#m78afdc68da" x="65.164062" y="29.272779" style="stroke: #000000; stroke-width: 0.8"/>
      </g>
     </g>
     <g id="text_15">
      <text style="font: 10px 'sans-serif'; text-anchor: end" x="58.164062" y="33.071998" transform="rotate(-0 58.164062 33.071998)">0.100</text>
     </g>
    </g>
    <g id="text_16">
     <text style="font: 10px 'sans-serif'; text-anchor: middle" x="14.798438" y="140.256" transform="rotate(-90 14.798438 140.256)">Axis2_44.7</text>
    </g>
   </g>
   <g id="line2d_15">
    <path d="M 81.39679 220.521095 
L 104.5864 205.91436 
L 127.776011 246.03314 
L 150.965621 206.653273 
L 174.155231 191.921537 
L 197.344842 175.817487 
L 220.534452 224.935248 
L 243.724063 162.289285 
L 266.913673 177.514124 
L 290.103283 161.775852 
L 313.292894 232.103052 
L 336.482504 249.302312 
L 359.672114 194.579014 
L 382.861725 182.925154 
L 406.051335 198.403012 
" clip-path="url(#pb0fd738eac)" style="fill: none; stroke: #5f4b8b; stroke-width: 1.5; stroke-linecap: square"/>
   </g>
   <g id="line2d_16">
    <path d="M 81.39679 48.348842 
L 104.5864 46.434724 
L 127.776011 96.028948 
L 150.965621 85.009856 
L 174.155231 95.731222 
L 197.344842 53.818576 
L 220.534452 124.417896 
L 243.724063 87.476017 
L 266.913673 95.795668 
L 290.103283 85.91989 
L 313.292894 105.178616 
L 336.482504 140.879448 
L 359.672114 164.309196 
L 406.051335 195.402615 
" clip-path="url(#pb0fd738eac)" style="fill: none; stroke: #e69a8d; stroke-width: 1.5; stroke-linecap: square"/>
   </g>
   <g id="line2d_17"/>
   <g id="line2d_18"/>
   <g id="patch_3">
    <path d="M 65.164062 273.312 
L 65.164062 7.2 
" style="fill: none; stroke: #000000; stroke-width: 0.8; stroke-linejoin: miter; stroke-linecap: square"/>
   </g>
   <g id="patch_4">
    <path d="M 422.284063 273.312 
L 422.284063 7.2 
" style="fill: none; stroke: #000000; stroke-width: 0.8; stroke-linejoin: miter; stroke-linecap: square"/>
   </g>
   <g id="patch_5">
    <path d="M 65.164062 273.312 
L 422.284063 273.312 
" style="fill: none; stroke: #000000; stroke-width: 0.8; stroke-linejoin: miter; stroke-linecap: square"/>
   </g>
   <g id="patch_6">
    <path d="M 65.164062 7.2 
L 422.284063 7.2 
" style="fill: none; stroke: #000000; stroke-width: 0.8; stroke-linejoin: miter; stroke-linecap: square"/>
   </g>
   <g id="legend_1">
    <g id="patch_7">
     <path d="M 429.284063 59.234375 
L 488.177813 59.234375 
Q 490.177813 59.234375 490.177813 57.234375 
L 490.177813 14.2 
Q 490.177813 12.2 488.177813 12.2 
L 429.284063 12.2 
Q 427.284063 12.2 427.284063 14.2 
L 427.284063 57.234375 
Q 427.284063 59.234375 429.284063 59.234375 
z
" style="fill: #ffffff; opacity: 0.8; stroke: #cccccc; stroke-linejoin: miter"/>
    </g>
    <g id="text_17">
     <text style="font: 10px 'sans-serif'; text-anchor: start" x="435.081719" y="23.798437" transform="rotate(-0 435.081719 23.798437)">genotype</text>
    </g>
    <g id="line2d_19">
     <path d="M 431.284063 34.976562 
L 441.284063 34.976562 
L 451.284063 34.976562 
" style="fill: none; stroke: #5f4b8b; stroke-width: 1.5; stroke-linecap: square"/>
    </g>
    <g id="text_18">
     <text style="font: 10px 'sans-serif'; text-anchor: start" x="459.284063" y="38.476562" transform="rotate(-0 459.284063 38.476562)">3XTG</text>
    </g>
    <g id="line2d_20">
     <path d="M 431.284063 49.654687 
L 441.284063 49.654687 
L 451.284063 49.654687 
" style="fill: none; stroke: #e69a8d; stroke-width: 1.5; stroke-linecap: square"/>
    </g>
    <g id="text_19">
     <text style="font: 10px 'sans-serif'; text-anchor: start" x="459.284063" y="53.154687" transform="rotate(-0 459.284063 53.154687)">B6</text>
    </g>
   </g>
  </g>
 </g>
 <defs>
  <clipPath id="pb0fd738eac">
   <rect x="65.164062" y="7.2" width="357.12" height="266.112"/>
  </clipPath>
 </defs>
</svg>
