<?xml version="1.0" encoding="utf-8" standalone="no"?>
<!DOCTYPE svg PUBLIC "-//W3C//DTD SVG 1.1//EN"
  "http://www.w3.org/Graphics/SVG/1.1/DTD/svg11.dtd">
<svg xmlns:xlink="http://www.w3.org/1999/xlink" width="524.12625pt" height="326.2645pt" viewBox="0 0 524.12625 326.2645" xmlns="http://www.w3.org/2000/svg" version="1.1">
 <metadata>
  <rdf:RDF xmlns:dc="http://purl.org/dc/elements/1.1/" xmlns:cc="http://creativecommons.org/ns#" xmlns:rdf="http://www.w3.org/1999/02/22-rdf-syntax-ns#">
   <cc:Work>
    <dc:type rdf:resource="http://purl.org/dc/dcmitype/StillImage"/>
    <dc:date>2024-12-10T17:02:11.197170</dc:date>
    <dc:format>image/svg+xml</dc:format>
    <dc:creator>
     <cc:Agent>
      <dc:title>Matplotlib v3.7.3, https://matplotlib.org/</dc:title>
     </cc:Agent>
    </dc:creator>
   </cc:Work>
  </rdf:RDF>
 </metadata>
 <defs>
  <style type="text/css">*{stroke-linejoin: round; stroke-linecap: butt}</style>
 </defs>
 <g id="figure_1">
  <g id="patch_1">
   <path d="M 0 326.2645 
L 524.12625 326.2645 
L 524.12625 0 
L 0 0 
z
" style="fill: #ffffff"/>
  </g>
  <g id="axes_1">
   <g id="patch_2">
    <path d="M 52.439063 288.430125 
L 409.559062 288.430125 
L 409.559062 22.318125 
L 52.439063 22.318125 
z
" style="fill: #ffffff"/>
   </g>
   <g id="PathCollection_1">
    <path d="M 142.106272 188.969828 
C 143.215696 188.969828 144.27983 188.52905 145.064312 187.744568 
C 145.848793 186.960087 146.289572 185.895952 146.289572 184.786528 
C 146.289572 183.677104 145.848793 182.61297 145.064312 181.828488 
C 144.27983 181.044007 143.215696 180.603228 142.106272 180.603228 
C 140.996848 180.603228 139.932713 181.044007 139.148232 181.828488 
C 138.363751 182.61297 137.922972 183.677104 137.922972 184.786528 
C 137.922972 185.895952 138.363751 186.960087 139.148232 187.744568 
C 139.932713 188.52905 140.996848 188.969828 142.106272 188.969828 
z
" clip-path="url(#p0effacd713)" style="fill: #5f4b8b; stroke: #ffffff; stroke-width: 0.669328"/>
    <path d="M 270.381432 280.517425 
C 271.490856 280.517425 272.55499 280.076646 273.339471 279.292165 
C 274.123953 278.507684 274.564732 277.443549 274.564732 276.334125 
C 274.564732 275.224701 274.123953 274.160566 273.339471 273.376085 
C 272.55499 272.591604 271.490856 272.150825 270.381432 272.150825 
C 269.272007 272.150825 268.207873 272.591604 267.423392 273.376085 
C 266.63891 274.160566 266.198131 275.224701 266.198131 276.334125 
C 266.198131 277.443549 266.63891 278.507684 267.423392 279.292165 
C 268.207873 280.076646 269.272007 280.517425 270.381432 280.517425 
z
" clip-path="url(#p0effacd713)" style="fill: #5f4b8b; stroke: #ffffff; stroke-width: 0.669328"/>
    <path d="M 224.808492 218.894254 
C 225.917916 218.894254 226.98205 218.453475 227.766531 217.668994 
C 228.551013 216.884512 228.991792 215.820378 228.991792 214.710954 
C 228.991792 213.60153 228.551013 212.537395 227.766531 211.752914 
C 226.98205 210.968432 225.917916 210.527654 224.808492 210.527654 
C 223.699067 210.527654 222.634933 210.968432 221.850452 211.752914 
C 221.06597 212.537395 220.625191 213.60153 220.625191 214.710954 
C 220.625191 215.820378 221.06597 216.884512 221.850452 217.668994 
C 222.634933 218.453475 223.699067 218.894254 224.808492 218.894254 
z
" clip-path="url(#p0effacd713)" style="fill: #5f4b8b; stroke: #ffffff; stroke-width: 0.669328"/>
    <path d="M 136.031495 116.481468 
C 137.140919 116.481468 138.205053 116.040689 138.989535 115.256207 
C 139.774016 114.471726 140.214795 113.407592 140.214795 112.298167 
C 140.214795 111.188743 139.774016 110.124609 138.989535 109.340128 
C 138.205053 108.555646 137.140919 108.114867 136.031495 108.114867 
C 134.922071 108.114867 133.857936 108.555646 133.073455 109.340128 
C 132.288974 110.124609 131.848195 111.188743 131.848195 112.298167 
C 131.848195 113.407592 132.288974 114.471726 133.073455 115.256207 
C 133.857936 116.040689 134.922071 116.481468 136.031495 116.481468 
z
" clip-path="url(#p0effacd713)" style="fill: #e69a8d; stroke: #ffffff; stroke-width: 0.669328"/>
    <path d="M 172.012412 95.889389 
C 173.121836 95.889389 174.18597 95.44861 174.970452 94.664129 
C 175.754933 93.879648 176.195712 92.815513 176.195712 91.706089 
C 176.195712 90.596665 175.754933 89.532531 174.970452 88.748049 
C 174.18597 87.963568 173.121836 87.522789 172.012412 87.522789 
C 170.902988 87.522789 169.838853 87.963568 169.054372 88.748049 
C 168.269891 89.532531 167.829112 90.596665 167.829112 91.706089 
C 167.829112 92.815513 168.269891 93.879648 169.054372 94.664129 
C 169.838853 95.44861 170.902988 95.889389 172.012412 95.889389 
z
" clip-path="url(#p0effacd713)" style="fill: #e69a8d; stroke: #ffffff; stroke-width: 0.669328"/>
    <path d="M 200.837695 244.668389 
C 201.947119 244.668389 203.011254 244.22761 203.795735 243.443129 
C 204.580216 242.658647 205.020995 241.594513 205.020995 240.485089 
C 205.020995 239.375665 204.580216 238.31153 203.795735 237.527049 
C 203.011254 236.742568 201.947119 236.301789 200.837695 236.301789 
C 199.728271 236.301789 198.664137 236.742568 197.879655 237.527049 
C 197.095174 238.31153 196.654395 239.375665 196.654395 240.485089 
C 196.654395 241.594513 197.095174 242.658647 197.879655 243.443129 
C 198.664137 244.22761 199.728271 244.668389 200.837695 244.668389 
z
" clip-path="url(#p0effacd713)" style="fill: #5f4b8b; stroke: #ffffff; stroke-width: 0.669328"/>
    <path d="M 186.799421 233.453997 
C 187.908846 233.453997 188.97298 233.013218 189.757461 232.228737 
C 190.541943 231.444256 190.982722 230.380121 190.982722 229.270697 
C 190.982722 228.161273 190.541943 227.097139 189.757461 226.312657 
C 188.97298 225.528176 187.908846 225.087397 186.799421 225.087397 
C 185.689997 225.087397 184.625863 225.528176 183.841382 226.312657 
C 183.0569 227.097139 182.616121 228.161273 182.616121 229.270697 
C 182.616121 230.380121 183.0569 231.444256 183.841382 232.228737 
C 184.625863 233.013218 185.689997 233.453997 186.799421 233.453997 
z
" clip-path="url(#p0effacd713)" style="fill: #5f4b8b; stroke: #ffffff; stroke-width: 0.669328"/>
    <path d="M 185.473224 237.31187 
C 186.582649 237.31187 187.646783 236.871091 188.431264 236.08661 
C 189.215746 235.302128 189.656525 234.237994 189.656525 233.12857 
C 189.656525 232.019145 189.215746 230.955011 188.431264 230.17053 
C 187.646783 229.386048 186.582649 228.945269 185.473224 228.945269 
C 184.3638 228.945269 183.299666 229.386048 182.515185 230.17053 
C 181.730703 230.955011 181.289924 232.019145 181.289924 233.12857 
C 181.289924 234.237994 181.730703 235.302128 182.515185 236.08661 
C 183.299666 236.871091 184.3638 237.31187 185.473224 237.31187 
z
" clip-path="url(#p0effacd713)" style="fill: #5f4b8b; stroke: #ffffff; stroke-width: 0.669328"/>
    <path d="M 190.241215 55.870543 
C 191.350639 55.870543 192.414773 55.429764 193.199255 54.645283 
C 193.983736 53.860802 194.424515 52.796667 194.424515 51.687243 
C 194.424515 50.577819 193.983736 49.513685 193.199255 48.729203 
C 192.414773 47.944722 191.350639 47.503943 190.241215 47.503943 
C 189.131791 47.503943 188.067656 47.944722 187.283175 48.729203 
C 186.498694 49.513685 186.057915 50.577819 186.057915 51.687243 
C 186.057915 52.796667 186.498694 53.860802 187.283175 54.645283 
C 188.067656 55.429764 189.131791 55.870543 190.241215 55.870543 
z
" clip-path="url(#p0effacd713)" style="fill: #5f4b8b; stroke: #ffffff; stroke-width: 0.669328"/>
    <path d="M 252.226155 245.318393 
C 253.33558 245.318393 254.399714 244.877614 255.184195 244.093132 
C 255.968677 243.308651 256.409455 242.244517 256.409455 241.135093 
C 256.409455 240.025668 255.968677 238.961534 255.184195 238.177053 
C 254.399714 237.392571 253.33558 236.951792 252.226155 236.951792 
C 251.116731 236.951792 250.052597 237.392571 249.268115 238.177053 
C 248.483634 238.961534 248.042855 240.025668 248.042855 241.135093 
C 248.042855 242.244517 248.483634 243.308651 249.268115 244.093132 
C 250.052597 244.877614 251.116731 245.318393 252.226155 245.318393 
z
" clip-path="url(#p0effacd713)" style="fill: #5f4b8b; stroke: #ffffff; stroke-width: 0.669328"/>
    <path d="M 68.688009 56.922038 
C 69.797433 56.922038 70.861568 56.481259 71.646049 55.696778 
C 72.430531 54.912297 72.871309 53.848162 72.871309 52.738738 
C 72.871309 51.629314 72.430531 50.565179 71.646049 49.780698 
C 70.861568 48.996217 69.797433 48.555438 68.688009 48.555438 
C 67.578585 48.555438 66.514451 48.996217 65.729969 49.780698 
C 64.945488 50.565179 64.504709 51.629314 64.504709 52.738738 
C 64.504709 53.848162 64.945488 54.912297 65.729969 55.696778 
C 66.514451 56.481259 67.578585 56.922038 68.688009 56.922038 
z
" clip-path="url(#p0effacd713)" style="fill: #5f4b8b; stroke: #ffffff; stroke-width: 0.669328"/>
    <path d="M 368.008398 232.800782 
C 369.117822 232.800782 370.181956 232.360003 370.966438 231.575521 
C 371.750919 230.79104 372.191698 229.726906 372.191698 228.617482 
C 372.191698 227.508057 371.750919 226.443923 370.966438 225.659442 
C 370.181956 224.87496 369.117822 224.434181 368.008398 224.434181 
C 366.898974 224.434181 365.834839 224.87496 365.050358 225.659442 
C 364.265876 226.443923 363.825098 227.508057 363.825098 228.617482 
C 363.825098 229.726906 364.265876 230.79104 365.050358 231.575521 
C 365.834839 232.360003 366.898974 232.800782 368.008398 232.800782 
z
" clip-path="url(#p0effacd713)" style="fill: #5f4b8b; stroke: #ffffff; stroke-width: 0.669328"/>
    <path d="M 295.599662 46.407958 
C 296.709086 46.407958 297.773221 45.96718 298.557702 45.182698 
C 299.342183 44.398217 299.782962 43.334082 299.782962 42.224658 
C 299.782962 41.115234 299.342183 40.0511 298.557702 39.266618 
C 297.773221 38.482137 296.709086 38.041358 295.599662 38.041358 
C 294.490238 38.041358 293.426104 38.482137 292.641622 39.266618 
C 291.857141 40.0511 291.416362 41.115234 291.416362 42.224658 
C 291.416362 43.334082 291.857141 44.398217 292.641622 45.182698 
C 293.426104 45.96718 294.490238 46.407958 295.599662 46.407958 
z
" clip-path="url(#p0effacd713)" style="fill: #e69a8d; stroke: #ffffff; stroke-width: 0.669328"/>
    <path d="M 208.357732 84.407451 
C 209.467156 84.407451 210.531291 83.966672 211.315772 83.18219 
C 212.100253 82.397709 212.541032 81.333575 212.541032 80.22415 
C 212.541032 79.114726 212.100253 78.050592 211.315772 77.266111 
C 210.531291 76.481629 209.467156 76.04085 208.357732 76.04085 
C 207.248308 76.04085 206.184174 76.481629 205.399692 77.266111 
C 204.615211 78.050592 204.174432 79.114726 204.174432 80.22415 
C 204.174432 81.333575 204.615211 82.397709 205.399692 83.18219 
C 206.184174 83.966672 207.248308 84.407451 208.357732 84.407451 
z
" clip-path="url(#p0effacd713)" style="fill: #e69a8d; stroke: #ffffff; stroke-width: 0.669328"/>
    <path d="M 201.159908 209.826908 
C 202.269333 209.826908 203.333467 209.386129 204.117948 208.601648 
C 204.90243 207.817167 205.343209 206.753032 205.343209 205.643608 
C 205.343209 204.534184 204.90243 203.47005 204.117948 202.685568 
C 203.333467 201.901087 202.269333 201.460308 201.159908 201.460308 
C 200.050484 201.460308 198.98635 201.901087 198.201868 202.685568 
C 197.417387 203.47005 196.976608 204.534184 196.976608 205.643608 
C 196.976608 206.753032 197.417387 207.817167 198.201868 208.601648 
C 198.98635 209.386129 200.050484 209.826908 201.159908 209.826908 
z
" clip-path="url(#p0effacd713)" style="fill: #5f4b8b; stroke: #ffffff; stroke-width: 0.669328"/>
    <path d="M 155.087243 232.821937 
C 156.196667 232.821937 157.260801 232.381158 158.045282 231.596677 
C 158.829764 230.812195 159.270543 229.748061 159.270543 228.638637 
C 159.270543 227.529213 158.829764 226.465078 158.045282 225.680597 
C 157.260801 224.896116 156.196667 224.455337 155.087243 224.455337 
C 153.977818 224.455337 152.913684 224.896116 152.129203 225.680597 
C 151.344721 226.465078 150.903942 227.529213 150.903942 228.638637 
C 150.903942 229.748061 151.344721 230.812195 152.129203 231.596677 
C 152.913684 232.381158 153.977818 232.821937 155.087243 232.821937 
z
" clip-path="url(#p0effacd713)" style="fill: #5f4b8b; stroke: #ffffff; stroke-width: 0.669328"/>
    <path d="M 301.049732 82.574891 
C 302.159156 82.574891 303.22329 82.134112 304.007772 81.349631 
C 304.792253 80.56515 305.233032 79.501015 305.233032 78.391591 
C 305.233032 77.282167 304.792253 76.218032 304.007772 75.433551 
C 303.22329 74.64907 302.159156 74.208291 301.049732 74.208291 
C 299.940308 74.208291 298.876173 74.64907 298.091692 75.433551 
C 297.30721 76.218032 296.866432 77.282167 296.866432 78.391591 
C 296.866432 79.501015 297.30721 80.56515 298.091692 81.349631 
C 298.876173 82.134112 299.940308 82.574891 301.049732 82.574891 
z
" clip-path="url(#p0effacd713)" style="fill: #e69a8d; stroke: #ffffff; stroke-width: 0.669328"/>
    <path d="M 246.300695 145.523468 
C 247.410119 145.523468 248.474253 145.082689 249.258735 144.298208 
C 250.043216 143.513726 250.483995 142.449592 250.483995 141.340168 
C 250.483995 140.230743 250.043216 139.166609 249.258735 138.382128 
C 248.474253 137.597646 247.410119 137.156867 246.300695 137.156867 
C 245.19127 137.156867 244.127136 137.597646 243.342655 138.382128 
C 242.558173 139.166609 242.117394 140.230743 242.117394 141.340168 
C 242.117394 142.449592 242.558173 143.513726 243.342655 144.298208 
C 244.127136 145.082689 245.19127 145.523468 246.300695 145.523468 
z
" clip-path="url(#p0effacd713)" style="fill: #5f4b8b; stroke: #ffffff; stroke-width: 0.669328"/>
    <path d="M 132.370134 234.545576 
C 133.479558 234.545576 134.543692 234.104797 135.328174 233.320316 
C 136.112655 232.535834 136.553434 231.4717 136.553434 230.362276 
C 136.553434 229.252852 136.112655 228.188717 135.328174 227.404236 
C 134.543692 226.619754 133.479558 226.178976 132.370134 226.178976 
C 131.26071 226.178976 130.196575 226.619754 129.412094 227.404236 
C 128.627613 228.188717 128.186834 229.252852 128.186834 230.362276 
C 128.186834 231.4717 128.627613 232.535834 129.412094 233.320316 
C 130.196575 234.104797 131.26071 234.545576 132.370134 234.545576 
z
" clip-path="url(#p0effacd713)" style="fill: #5f4b8b; stroke: #ffffff; stroke-width: 0.669328"/>
    <path d="M 393.326335 246.947721 
C 394.435759 246.947721 395.499894 246.506942 396.284375 245.722461 
C 397.068856 244.93798 397.509635 243.873845 397.509635 242.764421 
C 397.509635 241.654997 397.068856 240.590862 396.284375 239.806381 
C 395.499894 239.0219 394.435759 238.581121 393.326335 238.581121 
C 392.216911 238.581121 391.152777 239.0219 390.368295 239.806381 
C 389.583814 240.590862 389.143035 241.654997 389.143035 242.764421 
C 389.143035 243.873845 389.583814 244.93798 390.368295 245.722461 
C 391.152777 246.506942 392.216911 246.947721 393.326335 246.947721 
z
" clip-path="url(#p0effacd713)" style="fill: #5f4b8b; stroke: #ffffff; stroke-width: 0.669328"/>
    <path d="M 129.688376 203.153159 
C 130.797801 203.153159 131.861935 202.71238 132.646416 201.927898 
C 133.430898 201.143417 133.871677 200.079283 133.871677 198.969859 
C 133.871677 197.860434 133.430898 196.7963 132.646416 196.011819 
C 131.861935 195.227337 130.797801 194.786558 129.688376 194.786558 
C 128.578952 194.786558 127.514818 195.227337 126.730336 196.011819 
C 125.945855 196.7963 125.505076 197.860434 125.505076 198.969859 
C 125.505076 200.079283 125.945855 201.143417 126.730336 201.927898 
C 127.514818 202.71238 128.578952 203.153159 129.688376 203.153159 
z
" clip-path="url(#p0effacd713)" style="fill: #5f4b8b; stroke: #ffffff; stroke-width: 0.669328"/>
    <path d="M 151.5466 217.859104 
C 152.656024 217.859104 153.720159 217.418325 154.50464 216.633844 
C 155.289121 215.849363 155.7299 214.785228 155.7299 213.675804 
C 155.7299 212.56638 155.289121 211.502246 154.50464 210.717764 
C 153.720159 209.933283 152.656024 209.492504 151.5466 209.492504 
C 150.437176 209.492504 149.373041 209.933283 148.58856 210.717764 
C 147.804079 211.502246 147.3633 212.56638 147.3633 213.675804 
C 147.3633 214.785228 147.804079 215.849363 148.58856 216.633844 
C 149.373041 217.418325 150.437176 217.859104 151.5466 217.859104 
z
" clip-path="url(#p0effacd713)" style="fill: #5f4b8b; stroke: #ffffff; stroke-width: 0.669328"/>
    <path d="M 178.272011 269.752814 
C 179.381435 269.752814 180.445569 269.312035 181.230051 268.527554 
C 182.014532 267.743073 182.455311 266.678938 182.455311 265.569514 
C 182.455311 264.46009 182.014532 263.395956 181.230051 262.611474 
C 180.445569 261.826993 179.381435 261.386214 178.272011 261.386214 
C 177.162587 261.386214 176.098452 261.826993 175.313971 262.611474 
C 174.52949 263.395956 174.088711 264.46009 174.088711 265.569514 
C 174.088711 266.678938 174.52949 267.743073 175.313971 268.527554 
C 176.098452 269.312035 177.162587 269.752814 178.272011 269.752814 
z
" clip-path="url(#p0effacd713)" style="fill: #5f4b8b; stroke: #ffffff; stroke-width: 0.669328"/>
    <path d="M 271.279953 69.031675 
C 272.389377 69.031675 273.453511 68.590896 274.237993 67.806415 
C 275.022474 67.021934 275.463253 65.957799 275.463253 64.848375 
C 275.463253 63.738951 275.022474 62.674817 274.237993 61.890335 
C 273.453511 61.105854 272.389377 60.665075 271.279953 60.665075 
C 270.170529 60.665075 269.106394 61.105854 268.321913 61.890335 
C 267.537431 62.674817 267.096653 63.738951 267.096653 64.848375 
C 267.096653 65.957799 267.537431 67.021934 268.321913 67.806415 
C 269.106394 68.590896 270.170529 69.031675 271.279953 69.031675 
z
" clip-path="url(#p0effacd713)" style="fill: #e69a8d; stroke: #ffffff; stroke-width: 0.669328"/>
    <path d="M 234.778551 54.912671 
C 235.887975 54.912671 236.952109 54.471892 237.736591 53.687411 
C 238.521072 52.90293 238.961851 51.838795 238.961851 50.729371 
C 238.961851 49.619947 238.521072 48.555813 237.736591 47.771331 
C 236.952109 46.98685 235.887975 46.546071 234.778551 46.546071 
C 233.669127 46.546071 232.604992 46.98685 231.820511 47.771331 
C 231.03603 48.555813 230.595251 49.619947 230.595251 50.729371 
C 230.595251 51.838795 231.03603 52.90293 231.820511 53.687411 
C 232.604992 54.471892 233.669127 54.912671 234.778551 54.912671 
z
" clip-path="url(#p0effacd713)" style="fill: #e69a8d; stroke: #ffffff; stroke-width: 0.669328"/>
    <path d="M 151.154682 97.487761 
C 152.264106 97.487761 153.328241 97.046982 154.112722 96.2625 
C 154.897203 95.478019 155.337982 94.413885 155.337982 93.30446 
C 155.337982 92.195036 154.897203 91.130902 154.112722 90.346421 
C 153.328241 89.561939 152.264106 89.12116 151.154682 89.12116 
C 150.045258 89.12116 148.981124 89.561939 148.196642 90.346421 
C 147.412161 91.130902 146.971382 92.195036 146.971382 93.30446 
C 146.971382 94.413885 147.412161 95.478019 148.196642 96.2625 
C 148.981124 97.046982 150.045258 97.487761 151.154682 97.487761 
z
" clip-path="url(#p0effacd713)" style="fill: #e69a8d; stroke: #ffffff; stroke-width: 0.669328"/>
    <path d="M 122.224654 227.746057 
C 123.334078 227.746057 124.398213 227.305278 125.182694 226.520797 
C 125.967175 225.736315 126.407954 224.672181 126.407954 223.562757 
C 126.407954 222.453333 125.967175 221.389198 125.182694 220.604717 
C 124.398213 219.820236 123.334078 219.379457 122.224654 219.379457 
C 121.11523 219.379457 120.051095 219.820236 119.266614 220.604717 
C 118.482133 221.389198 118.041354 222.453333 118.041354 223.562757 
C 118.041354 224.672181 118.482133 225.736315 119.266614 226.520797 
C 120.051095 227.305278 121.11523 227.746057 122.224654 227.746057 
z
" clip-path="url(#p0effacd713)" style="fill: #5f4b8b; stroke: #ffffff; stroke-width: 0.669328"/>
    <path d="M 125.440559 224.986657 
C 126.549983 224.986657 127.614117 224.545878 128.398598 223.761397 
C 129.18308 222.976916 129.623859 221.912781 129.623859 220.803357 
C 129.623859 219.693933 129.18308 218.629799 128.398598 217.845317 
C 127.614117 217.060836 126.549983 216.620057 125.440559 216.620057 
C 124.331134 216.620057 123.267 217.060836 122.482519 217.845317 
C 121.698037 218.629799 121.257258 219.693933 121.257258 220.803357 
C 121.257258 221.912781 121.698037 222.976916 122.482519 223.761397 
C 123.267 224.545878 124.331134 224.986657 125.440559 224.986657 
z
" clip-path="url(#p0effacd713)" style="fill: #5f4b8b; stroke: #ffffff; stroke-width: 0.669328"/>
    <path d="M 175.153418 157.756712 
C 176.262842 157.756712 177.326977 157.315933 178.111458 156.531452 
C 178.895939 155.74697 179.336718 154.682836 179.336718 153.573412 
C 179.336718 152.463988 178.895939 151.399853 178.111458 150.615372 
C 177.326977 149.830891 176.262842 149.390112 175.153418 149.390112 
C 174.043994 149.390112 172.97986 149.830891 172.195378 150.615372 
C 171.410897 151.399853 170.970118 152.463988 170.970118 153.573412 
C 170.970118 154.682836 171.410897 155.74697 172.195378 156.531452 
C 172.97986 157.315933 174.043994 157.756712 175.153418 157.756712 
z
" clip-path="url(#p0effacd713)" style="fill: #e69a8d; stroke: #ffffff; stroke-width: 0.669328"/>
    <path d="M 266.570294 116.658467 
C 267.679718 116.658467 268.743853 116.217688 269.528334 115.433207 
C 270.312816 114.648725 270.753594 113.584591 270.753594 112.475167 
C 270.753594 111.365743 270.312816 110.301608 269.528334 109.517127 
C 268.743853 108.732645 267.679718 108.291867 266.570294 108.291867 
C 265.46087 108.291867 264.396736 108.732645 263.612254 109.517127 
C 262.827773 110.301608 262.386994 111.365743 262.386994 112.475167 
C 262.386994 113.584591 262.827773 114.648725 263.612254 115.433207 
C 264.396736 116.217688 265.46087 116.658467 266.570294 116.658467 
z
" clip-path="url(#p0effacd713)" style="fill: #e69a8d; stroke: #ffffff; stroke-width: 0.669328"/>
    <path d="M 171.157209 45.51845 
C 172.266633 45.51845 173.330768 45.077671 174.115249 44.29319 
C 174.89973 43.508708 175.340509 42.444574 175.340509 41.33515 
C 175.340509 40.225726 174.89973 39.161591 174.115249 38.37711 
C 173.330768 37.592628 172.266633 37.15185 171.157209 37.15185 
C 170.047785 37.15185 168.98365 37.592628 168.199169 38.37711 
C 167.414688 39.161591 166.973909 40.225726 166.973909 41.33515 
C 166.973909 42.444574 167.414688 43.508708 168.199169 44.29319 
C 168.98365 45.077671 170.047785 45.51845 171.157209 45.51845 
z
" clip-path="url(#p0effacd713)" style="fill: #e69a8d; stroke: #ffffff; stroke-width: 0.669328"/>
    <path d="M 110.250383 38.597425 
C 111.359807 38.597425 112.423941 38.156646 113.208422 37.372165 
C 113.992904 36.587684 114.433683 35.523549 114.433683 34.414125 
C 114.433683 33.304701 113.992904 32.240566 113.208422 31.456085 
C 112.423941 30.671604 111.359807 30.230825 110.250383 30.230825 
C 109.140958 30.230825 108.076824 30.671604 107.292343 31.456085 
C 106.507861 32.240566 106.067082 33.304701 106.067082 34.414125 
C 106.067082 35.523549 106.507861 36.587684 107.292343 37.372165 
C 108.076824 38.156646 109.140958 38.597425 110.250383 38.597425 
z
" clip-path="url(#p0effacd713)" style="fill: #e69a8d; stroke: #ffffff; stroke-width: 0.669328"/>
    <path d="M 296.530312 267.37999 
C 297.639736 267.37999 298.703871 266.939211 299.488352 266.15473 
C 300.272834 265.370248 300.713612 264.306114 300.713612 263.19669 
C 300.713612 262.087266 300.272834 261.023131 299.488352 260.23865 
C 298.703871 259.454168 297.639736 259.01339 296.530312 259.01339 
C 295.420888 259.01339 294.356754 259.454168 293.572272 260.23865 
C 292.787791 261.023131 292.347012 262.087266 292.347012 263.19669 
C 292.347012 264.306114 292.787791 265.370248 293.572272 266.15473 
C 294.356754 266.939211 295.420888 267.37999 296.530312 267.37999 
z
" clip-path="url(#p0effacd713)" style="fill: #5f4b8b; stroke: #ffffff; stroke-width: 0.669328"/>
    <path d="M 94.404421 167.807565 
C 95.513846 167.807565 96.57798 167.366786 97.362461 166.582305 
C 98.146943 165.797823 98.587722 164.733689 98.587722 163.624265 
C 98.587722 162.514841 98.146943 161.450706 97.362461 160.666225 
C 96.57798 159.881744 95.513846 159.440965 94.404421 159.440965 
C 93.294997 159.440965 92.230863 159.881744 91.446382 160.666225 
C 90.6619 161.450706 90.221121 162.514841 90.221121 163.624265 
C 90.221121 164.733689 90.6619 165.797823 91.446382 166.582305 
C 92.230863 167.366786 93.294997 167.807565 94.404421 167.807565 
z
" clip-path="url(#p0effacd713)" style="fill: #5f4b8b; stroke: #ffffff; stroke-width: 0.669328"/>
    <path d="M 108.447765 113.204959 
C 109.557189 113.204959 110.621324 112.76418 111.405805 111.979699 
C 112.190286 111.195217 112.631065 110.131083 112.631065 109.021659 
C 112.631065 107.912235 112.190286 106.8481 111.405805 106.063619 
C 110.621324 105.279138 109.557189 104.838359 108.447765 104.838359 
C 107.338341 104.838359 106.274207 105.279138 105.489725 106.063619 
C 104.705244 106.8481 104.264465 107.912235 104.264465 109.021659 
C 104.264465 110.131083 104.705244 111.195217 105.489725 111.979699 
C 106.274207 112.76418 107.338341 113.204959 108.447765 113.204959 
z
" clip-path="url(#p0effacd713)" style="fill: #e69a8d; stroke: #ffffff; stroke-width: 0.669328"/>
    <path d="M 325.965796 101.652195 
C 327.075221 101.652195 328.139355 101.211416 328.923836 100.426934 
C 329.708318 99.642453 330.149097 98.578319 330.149097 97.468895 
C 330.149097 96.35947 329.708318 95.295336 328.923836 94.510855 
C 328.139355 93.726373 327.075221 93.285594 325.965796 93.285594 
C 324.856372 93.285594 323.792238 93.726373 323.007757 94.510855 
C 322.223275 95.295336 321.782496 96.35947 321.782496 97.468895 
C 321.782496 98.578319 322.223275 99.642453 323.007757 100.426934 
C 323.792238 101.211416 324.856372 101.652195 325.965796 101.652195 
z
" clip-path="url(#p0effacd713)" style="fill: #e69a8d; stroke: #ffffff; stroke-width: 0.669328"/>
    <path d="M 323.167548 78.663802 
C 324.276972 78.663802 325.341107 78.223023 326.125588 77.438542 
C 326.910069 76.65406 327.350848 75.589926 327.350848 74.480502 
C 327.350848 73.371078 326.910069 72.306943 326.125588 71.522462 
C 325.341107 70.737981 324.276972 70.297202 323.167548 70.297202 
C 322.058124 70.297202 320.99399 70.737981 320.209508 71.522462 
C 319.425027 72.306943 318.984248 73.371078 318.984248 74.480502 
C 318.984248 75.589926 319.425027 76.65406 320.209508 77.438542 
C 320.99399 78.223023 322.058124 78.663802 323.167548 78.663802 
z
" clip-path="url(#p0effacd713)" style="fill: #e69a8d; stroke: #ffffff; stroke-width: 0.669328"/>
    <path d="M 172.147789 52.536252 
C 173.257213 52.536252 174.321347 52.095473 175.105829 51.310991 
C 175.89031 50.52651 176.331089 49.462376 176.331089 48.352951 
C 176.331089 47.243527 175.89031 46.179393 175.105829 45.394912 
C 174.321347 44.61043 173.257213 44.169651 172.147789 44.169651 
C 171.038365 44.169651 169.97423 44.61043 169.189749 45.394912 
C 168.405268 46.179393 167.964489 47.243527 167.964489 48.352951 
C 167.964489 49.462376 168.405268 50.52651 169.189749 51.310991 
C 169.97423 52.095473 171.038365 52.536252 172.147789 52.536252 
z
" clip-path="url(#p0effacd713)" style="fill: #e69a8d; stroke: #ffffff; stroke-width: 0.669328"/>
    <path d="M 164.873647 174.837659 
C 165.983071 174.837659 167.047205 174.39688 167.831687 173.612399 
C 168.616168 172.827917 169.056947 171.763783 169.056947 170.654359 
C 169.056947 169.544935 168.616168 168.4808 167.831687 167.696319 
C 167.047205 166.911837 165.983071 166.471059 164.873647 166.471059 
C 163.764223 166.471059 162.700088 166.911837 161.915607 167.696319 
C 161.131126 168.4808 160.690347 169.544935 160.690347 170.654359 
C 160.690347 171.763783 161.131126 172.827917 161.915607 173.612399 
C 162.700088 174.39688 163.764223 174.837659 164.873647 174.837659 
z
" clip-path="url(#p0effacd713)" style="fill: #5f4b8b; stroke: #ffffff; stroke-width: 0.669328"/>
    <path d="M 125.281934 54.275565 
C 126.391358 54.275565 127.455493 53.834786 128.239974 53.050304 
C 129.024455 52.265823 129.465234 51.201689 129.465234 50.092265 
C 129.465234 48.98284 129.024455 47.918706 128.239974 47.134225 
C 127.455493 46.349743 126.391358 45.908964 125.281934 45.908964 
C 124.17251 45.908964 123.108376 46.349743 122.323894 47.134225 
C 121.539413 47.918706 121.098634 48.98284 121.098634 50.092265 
C 121.098634 51.201689 121.539413 52.265823 122.323894 53.050304 
C 123.108376 53.834786 124.17251 54.275565 125.281934 54.275565 
z
" clip-path="url(#p0effacd713)" style="fill: #e69a8d; stroke: #ffffff; stroke-width: 0.669328"/>
    <path d="M 200.793487 180.301728 
C 201.902912 180.301728 202.967046 179.860949 203.751527 179.076468 
C 204.536009 178.291986 204.976788 177.227852 204.976788 176.118428 
C 204.976788 175.009004 204.536009 173.944869 203.751527 173.160388 
C 202.967046 172.375907 201.902912 171.935128 200.793487 171.935128 
C 199.684063 171.935128 198.619929 172.375907 197.835448 173.160388 
C 197.050966 173.944869 196.610187 175.009004 196.610187 176.118428 
C 196.610187 177.227852 197.050966 178.291986 197.835448 179.076468 
C 198.619929 179.860949 199.684063 180.301728 200.793487 180.301728 
z
" clip-path="url(#p0effacd713)" style="fill: #e69a8d; stroke: #ffffff; stroke-width: 0.669328"/>
    <path d="M 365.32038 179.138775 
C 366.429804 179.138775 367.493938 178.697996 368.27842 177.913515 
C 369.062901 177.129034 369.50368 176.064899 369.50368 174.955475 
C 369.50368 173.846051 369.062901 172.781916 368.27842 171.997435 
C 367.493938 171.212954 366.429804 170.772175 365.32038 170.772175 
C 364.210956 170.772175 363.146821 171.212954 362.36234 171.997435 
C 361.577859 172.781916 361.13708 173.846051 361.13708 174.955475 
C 361.13708 176.064899 361.577859 177.129034 362.36234 177.913515 
C 363.146821 178.697996 364.210956 179.138775 365.32038 179.138775 
z
" clip-path="url(#p0effacd713)" style="fill: #e69a8d; stroke: #ffffff; stroke-width: 0.669328"/>
    <path d="M 295.708702 104.221548 
C 296.818126 104.221548 297.882261 103.780769 298.666742 102.996288 
C 299.451223 102.211807 299.892002 101.147672 299.892002 100.038248 
C 299.892002 98.928824 299.451223 97.864689 298.666742 97.080208 
C 297.882261 96.295727 296.818126 95.854948 295.708702 95.854948 
C 294.599278 95.854948 293.535144 96.295727 292.750662 97.080208 
C 291.966181 97.864689 291.525402 98.928824 291.525402 100.038248 
C 291.525402 101.147672 291.966181 102.211807 292.750662 102.996288 
C 293.535144 103.780769 294.599278 104.221548 295.708702 104.221548 
z
" clip-path="url(#p0effacd713)" style="fill: #e69a8d; stroke: #ffffff; stroke-width: 0.669328"/>
    <path d="M 164.218591 263.935663 
C 165.328015 263.935663 166.392149 263.494885 167.176631 262.710403 
C 167.961112 261.925922 168.401891 260.861787 168.401891 259.752363 
C 168.401891 258.642939 167.961112 257.578805 167.176631 256.794323 
C 166.392149 256.009842 165.328015 255.569063 164.218591 255.569063 
C 163.109167 255.569063 162.045032 256.009842 161.260551 256.794323 
C 160.476069 257.578805 160.035291 258.642939 160.035291 259.752363 
C 160.035291 260.861787 160.476069 261.925922 161.260551 262.710403 
C 162.045032 263.494885 163.109167 263.935663 164.218591 263.935663 
z
" clip-path="url(#p0effacd713)" style="fill: #5f4b8b; stroke: #ffffff; stroke-width: 0.669328"/>
    <path d="M 231.505711 150.457015 
C 232.615135 150.457015 233.679269 150.016236 234.463751 149.231755 
C 235.248232 148.447273 235.689011 147.383139 235.689011 146.273715 
C 235.689011 145.16429 235.248232 144.100156 234.463751 143.315675 
C 233.679269 142.531193 232.615135 142.090414 231.505711 142.090414 
C 230.396287 142.090414 229.332152 142.531193 228.547671 143.315675 
C 227.763189 144.100156 227.322411 145.16429 227.322411 146.273715 
C 227.322411 147.383139 227.763189 148.447273 228.547671 149.231755 
C 229.332152 150.016236 230.396287 150.457015 231.505711 150.457015 
z
" clip-path="url(#p0effacd713)" style="fill: #e69a8d; stroke: #ffffff; stroke-width: 0.669328"/>
    <path d="M 247.174518 106.856992 
C 248.283942 106.856992 249.348076 106.416213 250.132558 105.631732 
C 250.917039 104.847251 251.357818 103.783116 251.357818 102.673692 
C 251.357818 101.564268 250.917039 100.500133 250.132558 99.715652 
C 249.348076 98.931171 248.283942 98.490392 247.174518 98.490392 
C 246.065094 98.490392 245.000959 98.931171 244.216478 99.715652 
C 243.431996 100.500133 242.991218 101.564268 242.991218 102.673692 
C 242.991218 103.783116 243.431996 104.847251 244.216478 105.631732 
C 245.000959 106.416213 246.065094 106.856992 247.174518 106.856992 
z
" clip-path="url(#p0effacd713)" style="fill: #e69a8d; stroke: #ffffff; stroke-width: 0.669328"/>
    <path d="M 105.147657 181.814044 
C 106.257081 181.814044 107.321215 181.373265 108.105697 180.588784 
C 108.890178 179.804302 109.330957 178.740168 109.330957 177.630744 
C 109.330957 176.52132 108.890178 175.457185 108.105697 174.672704 
C 107.321215 173.888223 106.257081 173.447444 105.147657 173.447444 
C 104.038233 173.447444 102.974098 173.888223 102.189617 174.672704 
C 101.405136 175.457185 100.964357 176.52132 100.964357 177.630744 
C 100.964357 178.740168 101.405136 179.804302 102.189617 180.588784 
C 102.974098 181.373265 104.038233 181.814044 105.147657 181.814044 
z
" clip-path="url(#p0effacd713)" style="fill: #5f4b8b; stroke: #ffffff; stroke-width: 0.669328"/>
    <path d="M 160.72246 173.390229 
C 161.831884 173.390229 162.896018 172.94945 163.6805 172.164969 
C 164.464981 171.380487 164.90576 170.316353 164.90576 169.206929 
C 164.90576 168.097505 164.464981 167.03337 163.6805 166.248889 
C 162.896018 165.464408 161.831884 165.023629 160.72246 165.023629 
C 159.613036 165.023629 158.548901 165.464408 157.76442 166.248889 
C 156.979939 167.03337 156.53916 168.097505 156.53916 169.206929 
C 156.53916 170.316353 156.979939 171.380487 157.76442 172.164969 
C 158.548901 172.94945 159.613036 173.390229 160.72246 173.390229 
z
" clip-path="url(#p0effacd713)" style="fill: #5f4b8b; stroke: #ffffff; stroke-width: 0.669328"/>
    <path d="M 154.421238 229.629608 
C 155.530662 229.629608 156.594796 229.188829 157.379278 228.404348 
C 158.163759 227.619866 158.604538 226.555732 158.604538 225.446308 
C 158.604538 224.336884 158.163759 223.272749 157.379278 222.488268 
C 156.594796 221.703787 155.530662 221.263008 154.421238 221.263008 
C 153.311814 221.263008 152.247679 221.703787 151.463198 222.488268 
C 150.678716 223.272749 150.237938 224.336884 150.237938 225.446308 
C 150.237938 226.555732 150.678716 227.619866 151.463198 228.404348 
C 152.247679 229.188829 153.311814 229.629608 154.421238 229.629608 
z
" clip-path="url(#p0effacd713)" style="fill: #5f4b8b; stroke: #ffffff; stroke-width: 0.669328"/>
    <path d="M 139.090301 234.563345 
C 140.199725 234.563345 141.263859 234.122566 142.04834 233.338084 
C 142.832822 232.553603 143.273601 231.489469 143.273601 230.380045 
C 143.273601 229.27062 142.832822 228.206486 142.04834 227.422005 
C 141.263859 226.637523 140.199725 226.196744 139.090301 226.196744 
C 137.980876 226.196744 136.916742 226.637523 136.132261 227.422005 
C 135.347779 228.206486 134.907 229.27062 134.907 230.380045 
C 134.907 231.489469 135.347779 232.553603 136.132261 233.338084 
C 136.916742 234.122566 137.980876 234.563345 139.090301 234.563345 
z
" clip-path="url(#p0effacd713)" style="fill: #5f4b8b; stroke: #ffffff; stroke-width: 0.669328"/>
    <path d="M 314.405604 48.222337 
C 315.515028 48.222337 316.579162 47.781558 317.363644 46.997077 
C 318.148125 46.212595 318.588904 45.148461 318.588904 44.039037 
C 318.588904 42.929613 318.148125 41.865478 317.363644 41.080997 
C 316.579162 40.296516 315.515028 39.855737 314.405604 39.855737 
C 313.29618 39.855737 312.232045 40.296516 311.447564 41.080997 
C 310.663083 41.865478 310.222304 42.929613 310.222304 44.039037 
C 310.222304 45.148461 310.663083 46.212595 311.447564 46.997077 
C 312.232045 47.781558 313.29618 48.222337 314.405604 48.222337 
z
" clip-path="url(#p0effacd713)" style="fill: #e69a8d; stroke: #ffffff; stroke-width: 0.669328"/>
    <path d="M 68.67179 64.935802 
C 69.781214 64.935802 70.845348 64.495024 71.62983 63.710542 
C 72.414311 62.926061 72.85509 61.861926 72.85509 60.752502 
C 72.85509 59.643078 72.414311 58.578944 71.62983 57.794462 
C 70.845348 57.009981 69.781214 56.569202 68.67179 56.569202 
C 67.562366 56.569202 66.498231 57.009981 65.71375 57.794462 
C 64.929269 58.578944 64.48849 59.643078 64.48849 60.752502 
C 64.48849 61.861926 64.929269 62.926061 65.71375 63.710542 
C 66.498231 64.495024 67.562366 64.935802 68.67179 64.935802 
z
" clip-path="url(#p0effacd713)" style="fill: #5f4b8b; stroke: #ffffff; stroke-width: 0.669328"/>
    <path d="M 201.165727 61.205359 
C 202.275151 61.205359 203.339286 60.76458 204.123767 59.980099 
C 204.908248 59.195618 205.349027 58.131483 205.349027 57.022059 
C 205.349027 55.912635 204.908248 54.8485 204.123767 54.064019 
C 203.339286 53.279538 202.275151 52.838759 201.165727 52.838759 
C 200.056303 52.838759 198.992169 53.279538 198.207687 54.064019 
C 197.423206 54.8485 196.982427 55.912635 196.982427 57.022059 
C 196.982427 58.131483 197.423206 59.195618 198.207687 59.980099 
C 198.992169 60.76458 200.056303 61.205359 201.165727 61.205359 
z
" clip-path="url(#p0effacd713)" style="fill: #e69a8d; stroke: #ffffff; stroke-width: 0.669328"/>
    <path d="M 153.953285 74.856972 
C 155.062709 74.856972 156.126844 74.416193 156.911325 73.631711 
C 157.695806 72.84723 158.136585 71.783096 158.136585 70.673672 
C 158.136585 69.564247 157.695806 68.500113 156.911325 67.715632 
C 156.126844 66.93115 155.062709 66.490371 153.953285 66.490371 
C 152.843861 66.490371 151.779726 66.93115 150.995245 67.715632 
C 150.210764 68.500113 149.769985 69.564247 149.769985 70.673672 
C 149.769985 71.783096 150.210764 72.84723 150.995245 73.631711 
C 151.779726 74.416193 152.843861 74.856972 153.953285 74.856972 
z
" clip-path="url(#p0effacd713)" style="fill: #e69a8d; stroke: #ffffff; stroke-width: 0.669328"/>
    <path d="M 127.286884 190.40688 
C 128.396308 190.40688 129.460443 189.966101 130.244924 189.18162 
C 131.029406 188.397138 131.470184 187.333004 131.470184 186.22358 
C 131.470184 185.114156 131.029406 184.050021 130.244924 183.26554 
C 129.460443 182.481059 128.396308 182.04028 127.286884 182.04028 
C 126.17746 182.04028 125.113326 182.481059 124.328844 183.26554 
C 123.544363 184.050021 123.103584 185.114156 123.103584 186.22358 
C 123.103584 187.333004 123.544363 188.397138 124.328844 189.18162 
C 125.113326 189.966101 126.17746 190.40688 127.286884 190.40688 
z
" clip-path="url(#p0effacd713)" style="fill: #5f4b8b; stroke: #ffffff; stroke-width: 0.669328"/>
    <path d="M 181.883777 138.293832 
C 182.993201 138.293832 184.057336 137.853053 184.841817 137.068571 
C 185.626298 136.28409 186.067077 135.219956 186.067077 134.110532 
C 186.067077 133.001107 185.626298 131.936973 184.841817 131.152492 
C 184.057336 130.36801 182.993201 129.927231 181.883777 129.927231 
C 180.774353 129.927231 179.710219 130.36801 178.925737 131.152492 
C 178.141256 131.936973 177.700477 133.001107 177.700477 134.110532 
C 177.700477 135.219956 178.141256 136.28409 178.925737 137.068571 
C 179.710219 137.853053 180.774353 138.293832 181.883777 138.293832 
z
" clip-path="url(#p0effacd713)" style="fill: #e69a8d; stroke: #ffffff; stroke-width: 0.669328"/>
    <path d="M 225.514964 146.365878 
C 226.624388 146.365878 227.688522 145.925099 228.473004 145.140618 
C 229.257485 144.356137 229.698264 143.292002 229.698264 142.182578 
C 229.698264 141.073154 229.257485 140.00902 228.473004 139.224538 
C 227.688522 138.440057 226.624388 137.999278 225.514964 137.999278 
C 224.405539 137.999278 223.341405 138.440057 222.556924 139.224538 
C 221.772442 140.00902 221.331664 141.073154 221.331664 142.182578 
C 221.331664 143.292002 221.772442 144.356137 222.556924 145.140618 
C 223.341405 145.925099 224.405539 146.365878 225.514964 146.365878 
z
" clip-path="url(#p0effacd713)" style="fill: #e69a8d; stroke: #ffffff; stroke-width: 0.669328"/>
    <path d="M 285.148837 115.763678 
C 286.258261 115.763678 287.322395 115.322899 288.106877 114.538418 
C 288.891358 113.753936 289.332137 112.689802 289.332137 111.580378 
C 289.332137 110.470954 288.891358 109.406819 288.106877 108.622338 
C 287.322395 107.837856 286.258261 107.397078 285.148837 107.397078 
C 284.039412 107.397078 282.975278 107.837856 282.190797 108.622338 
C 281.406315 109.406819 280.965536 110.470954 280.965536 111.580378 
C 280.965536 112.689802 281.406315 113.753936 282.190797 114.538418 
C 282.975278 115.322899 284.039412 115.763678 285.148837 115.763678 
z
" clip-path="url(#p0effacd713)" style="fill: #e69a8d; stroke: #ffffff; stroke-width: 0.669328"/>
    <path d="M 177.106884 234.574945 
C 178.216308 234.574945 179.280442 234.134166 180.064924 233.349685 
C 180.849405 232.565203 181.290184 231.501069 181.290184 230.391645 
C 181.290184 229.282221 180.849405 228.218086 180.064924 227.433605 
C 179.280442 226.649124 178.216308 226.208345 177.106884 226.208345 
C 175.99746 226.208345 174.933325 226.649124 174.148844 227.433605 
C 173.364363 228.218086 172.923584 229.282221 172.923584 230.391645 
C 172.923584 231.501069 173.364363 232.565203 174.148844 233.349685 
C 174.933325 234.134166 175.99746 234.574945 177.106884 234.574945 
z
" clip-path="url(#p0effacd713)" style="fill: #5f4b8b; stroke: #ffffff; stroke-width: 0.669328"/>
    <path d="M 153.989186 82.729669 
C 155.09861 82.729669 156.162744 82.288891 156.947226 81.504409 
C 157.731707 80.719928 158.172486 79.655793 158.172486 78.546369 
C 158.172486 77.436945 157.731707 76.372811 156.947226 75.588329 
C 156.162744 74.803848 155.09861 74.363069 153.989186 74.363069 
C 152.879762 74.363069 151.815627 74.803848 151.031146 75.588329 
C 150.246665 76.372811 149.805886 77.436945 149.805886 78.546369 
C 149.805886 79.655793 150.246665 80.719928 151.031146 81.504409 
C 151.815627 82.288891 152.879762 82.729669 153.989186 82.729669 
z
" clip-path="url(#p0effacd713)" style="fill: #e69a8d; stroke: #ffffff; stroke-width: 0.669328"/>
    <path d="M 72.463496 182.709714 
C 73.57292 182.709714 74.637055 182.268935 75.421536 181.484453 
C 76.206017 180.699972 76.646796 179.635838 76.646796 178.526414 
C 76.646796 177.416989 76.206017 176.352855 75.421536 175.568374 
C 74.637055 174.783892 73.57292 174.343113 72.463496 174.343113 
C 71.354072 174.343113 70.289938 174.783892 69.505456 175.568374 
C 68.720975 176.352855 68.280196 177.416989 68.280196 178.526414 
C 68.280196 179.635838 68.720975 180.699972 69.505456 181.484453 
C 70.289938 182.268935 71.354072 182.709714 72.463496 182.709714 
z
" clip-path="url(#p0effacd713)" style="fill: #5f4b8b; stroke: #ffffff; stroke-width: 0.669328"/>
   </g>
   <g id="PathCollection_2"/>
   <g id="PathCollection_3"/>
   <g id="PathCollection_4"/>
   <g id="PathCollection_5"/>
   <g id="matplotlib.axis_1">
    <g id="xtick_1">
     <g id="line2d_1">
      <defs>
       <path id="made584b70d" d="M 0 0 
L 0 3.5 
" style="stroke: #000000; stroke-width: 0.8"/>
      </defs>
      <g>
       <use xlink:href="#made584b70d" x="77.73419" y="288.430125" style="stroke: #000000; stroke-width: 0.8"/>
      </g>
     </g>
     <g id="text_1">
      <text style="font: 10px 'DejaVu Sans', 'Bitstream Vera Sans', 'Computer Modern Sans Serif', 'Lucida Grande', 'Verdana', 'Geneva', 'Lucid', 'Arial', 'Helvetica', 'Avant Garde', sans-serif; text-anchor: middle" x="77.73419" y="303.028562" transform="rotate(-0 77.73419 303.028562)">−0.2</text>
     </g>
    </g>
    <g id="xtick_2">
     <g id="line2d_2">
      <g>
       <use xlink:href="#made584b70d" x="137.67771" y="288.430125" style="stroke: #000000; stroke-width: 0.8"/>
      </g>
     </g>
     <g id="text_2">
      <text style="font: 10px 'DejaVu Sans', 'Bitstream Vera Sans', 'Computer Modern Sans Serif', 'Lucida Grande', 'Verdana', 'Geneva', 'Lucid', 'Arial', 'Helvetica', 'Avant Garde', sans-serif; text-anchor: middle" x="137.67771" y="303.028562" transform="rotate(-0 137.67771 303.028562)">−0.1</text>
     </g>
    </g>
    <g id="xtick_3">
     <g id="line2d_3">
      <g>
       <use xlink:href="#made584b70d" x="197.62123" y="288.430125" style="stroke: #000000; stroke-width: 0.8"/>
      </g>
     </g>
     <g id="text_3">
      <text style="font: 10px 'DejaVu Sans', 'Bitstream Vera Sans', 'Computer Modern Sans Serif', 'Lucida Grande', 'Verdana', 'Geneva', 'Lucid', 'Arial', 'Helvetica', 'Avant Garde', sans-serif; text-anchor: middle" x="197.62123" y="303.028562" transform="rotate(-0 197.62123 303.028562)">0.0</text>
     </g>
    </g>
    <g id="xtick_4">
     <g id="line2d_4">
      <g>
       <use xlink:href="#made584b70d" x="257.56475" y="288.430125" style="stroke: #000000; stroke-width: 0.8"/>
      </g>
     </g>
     <g id="text_4">
      <text style="font: 10px 'DejaVu Sans', 'Bitstream Vera Sans', 'Computer Modern Sans Serif', 'Lucida Grande', 'Verdana', 'Geneva', 'Lucid', 'Arial', 'Helvetica', 'Avant Garde', sans-serif; text-anchor: middle" x="257.56475" y="303.028562" transform="rotate(-0 257.56475 303.028562)">0.1</text>
     </g>
    </g>
    <g id="xtick_5">
     <g id="line2d_5">
      <g>
       <use xlink:href="#made584b70d" x="317.508271" y="288.430125" style="stroke: #000000; stroke-width: 0.8"/>
      </g>
     </g>
     <g id="text_5">
      <text style="font: 10px 'DejaVu Sans', 'Bitstream Vera Sans', 'Computer Modern Sans Serif', 'Lucida Grande', 'Verdana', 'Geneva', 'Lucid', 'Arial', 'Helvetica', 'Avant Garde', sans-serif; text-anchor: middle" x="317.508271" y="303.028562" transform="rotate(-0 317.508271 303.028562)">0.2</text>
     </g>
    </g>
    <g id="xtick_6">
     <g id="line2d_6">
      <g>
       <use xlink:href="#made584b70d" x="377.451791" y="288.430125" style="stroke: #000000; stroke-width: 0.8"/>
      </g>
     </g>
     <g id="text_6">
      <text style="font: 10px 'DejaVu Sans', 'Bitstream Vera Sans', 'Computer Modern Sans Serif', 'Lucida Grande', 'Verdana', 'Geneva', 'Lucid', 'Arial', 'Helvetica', 'Avant Garde', sans-serif; text-anchor: middle" x="377.451791" y="303.028562" transform="rotate(-0 377.451791 303.028562)">0.3</text>
     </g>
    </g>
    <g id="text_7">
     <text style="font: 10px 'DejaVu Sans', 'Bitstream Vera Sans', 'Computer Modern Sans Serif', 'Lucida Grande', 'Verdana', 'Geneva', 'Lucid', 'Arial', 'Helvetica', 'Avant Garde', sans-serif; text-anchor: middle" x="230.999063" y="316.706687" transform="rotate(-0 230.999063 316.706687)">Axis1_63.9</text>
    </g>
   </g>
   <g id="matplotlib.axis_2">
    <g id="ytick_1">
     <g id="line2d_7">
      <defs>
       <path id="mf4c576577d" d="M 0 0 
L -3.5 0 
" style="stroke: #000000; stroke-width: 0.8"/>
      </defs>
      <g>
       <use xlink:href="#mf4c576577d" x="52.439063" y="264.148597" style="stroke: #000000; stroke-width: 0.8"/>
      </g>
     </g>
     <g id="text_8">
      <text style="font: 10px 'DejaVu Sans', 'Bitstream Vera Sans', 'Computer Modern Sans Serif', 'Lucida Grande', 'Verdana', 'Geneva', 'Lucid', 'Arial', 'Helvetica', 'Avant Garde', sans-serif; text-anchor: end" x="45.439063" y="267.947815" transform="rotate(-0 45.439063 267.947815)">−0.2</text>
     </g>
    </g>
    <g id="ytick_2">
     <g id="line2d_8">
      <g>
       <use xlink:href="#mf4c576577d" x="52.439063" y="206.77238" style="stroke: #000000; stroke-width: 0.8"/>
      </g>
     </g>
     <g id="text_9">
      <text style="font: 10px 'DejaVu Sans', 'Bitstream Vera Sans', 'Computer Modern Sans Serif', 'Lucida Grande', 'Verdana', 'Geneva', 'Lucid', 'Arial', 'Helvetica', 'Avant Garde', sans-serif; text-anchor: end" x="45.439063" y="210.571599" transform="rotate(-0 45.439063 210.571599)">−0.1</text>
     </g>
    </g>
    <g id="ytick_3">
     <g id="line2d_9">
      <g>
       <use xlink:href="#mf4c576577d" x="52.439063" y="149.396163" style="stroke: #000000; stroke-width: 0.8"/>
      </g>
     </g>
     <g id="text_10">
      <text style="font: 10px 'DejaVu Sans', 'Bitstream Vera Sans', 'Computer Modern Sans Serif', 'Lucida Grande', 'Verdana', 'Geneva', 'Lucid', 'Arial', 'Helvetica', 'Avant Garde', sans-serif; text-anchor: end" x="45.439063" y="153.195382" transform="rotate(-0 45.439063 153.195382)">0.0</text>
     </g>
    </g>
    <g id="ytick_4">
     <g id="line2d_10">
      <g>
       <use xlink:href="#mf4c576577d" x="52.439063" y="92.019946" style="stroke: #000000; stroke-width: 0.8"/>
      </g>
     </g>
     <g id="text_11">
      <text style="font: 10px 'DejaVu Sans', 'Bitstream Vera Sans', 'Computer Modern Sans Serif', 'Lucida Grande', 'Verdana', 'Geneva', 'Lucid', 'Arial', 'Helvetica', 'Avant Garde', sans-serif; text-anchor: end" x="45.439063" y="95.819165" transform="rotate(-0 45.439063 95.819165)">0.1</text>
     </g>
    </g>
    <g id="ytick_5">
     <g id="line2d_11">
      <g>
       <use xlink:href="#mf4c576577d" x="52.439063" y="34.643729" style="stroke: #000000; stroke-width: 0.8"/>
      </g>
     </g>
     <g id="text_12">
      <text style="font: 10px 'DejaVu Sans', 'Bitstream Vera Sans', 'Computer Modern Sans Serif', 'Lucida Grande', 'Verdana', 'Geneva', 'Lucid', 'Arial', 'Helvetica', 'Avant Garde', sans-serif; text-anchor: end" x="45.439063" y="38.442948" transform="rotate(-0 45.439063 38.442948)">0.2</text>
     </g>
    </g>
    <g id="text_13">
     <text style="font: 10px 'DejaVu Sans', 'Bitstream Vera Sans', 'Computer Modern Sans Serif', 'Lucida Grande', 'Verdana', 'Geneva', 'Lucid', 'Arial', 'Helvetica', 'Avant Garde', sans-serif; text-anchor: middle" x="14.798438" y="155.374125" transform="rotate(-90 14.798438 155.374125)">Axis2_30.7</text>
    </g>
   </g>
   <g id="patch_3">
    <path d="M 52.439063 288.430125 
L 52.439063 22.318125 
" style="fill: none; stroke: #000000; stroke-width: 0.8; stroke-linejoin: miter; stroke-linecap: square"/>
   </g>
   <g id="patch_4">
    <path d="M 409.559062 288.430125 
L 409.559062 22.318125 
" style="fill: none; stroke: #000000; stroke-width: 0.8; stroke-linejoin: miter; stroke-linecap: square"/>
   </g>
   <g id="patch_5">
    <path d="M 52.439063 288.430125 
L 409.559063 288.430125 
" style="fill: none; stroke: #000000; stroke-width: 0.8; stroke-linejoin: miter; stroke-linecap: square"/>
   </g>
   <g id="patch_6">
    <path d="M 52.439063 22.318125 
L 409.559063 22.318125 
" style="fill: none; stroke: #000000; stroke-width: 0.8; stroke-linejoin: miter; stroke-linecap: square"/>
   </g>
   <g id="text_14">
    <text style="font: 12px 'DejaVu Sans', 'Bitstream Vera Sans', 'Computer Modern Sans Serif', 'Lucida Grande', 'Verdana', 'Geneva', 'Lucid', 'Arial', 'Helvetica', 'Avant Garde', sans-serif; text-anchor: middle" x="230.999063" y="16.318125" transform="rotate(-0 230.999063 16.318125)">3XTG</text>
   </g>
   <g id="legend_1">
    <g id="patch_7">
     <path d="M 416.559062 105.099375 
L 514.92625 105.099375 
Q 516.92625 105.099375 516.92625 103.099375 
L 516.92625 29.318125 
Q 516.92625 27.318125 514.92625 27.318125 
L 416.559062 27.318125 
Q 414.559062 27.318125 414.559062 29.318125 
L 414.559062 103.099375 
Q 414.559062 105.099375 416.559062 105.099375 
z
" style="fill: #ffffff; opacity: 0.8; stroke: #cccccc; stroke-linejoin: miter"/>
    </g>
    <g id="text_15">
     <text style="font: 10px 'DejaVu Sans', 'Bitstream Vera Sans', 'Computer Modern Sans Serif', 'Lucida Grande', 'Verdana', 'Geneva', 'Lucid', 'Arial', 'Helvetica', 'Avant Garde', sans-serif; text-anchor: start" x="431.040312" y="38.916562" transform="rotate(-0 431.040312 38.916562)">genotype_sex</text>
    </g>
    <g id="PathCollection_6">
     <defs>
      <path id="m24141a4af5" d="M 0 4.1833 
C 1.109424 4.1833 2.173559 3.742521 2.95804 2.95804 
C 3.742521 2.173559 4.1833 1.109424 4.1833 0 
C 4.1833 -1.109424 3.742521 -2.173559 2.95804 -2.95804 
C 2.173559 -3.742521 1.109424 -4.1833 0 -4.1833 
C -1.109424 -4.1833 -2.173559 -3.742521 -2.95804 -2.95804 
C -3.742521 -2.173559 -4.1833 -1.109424 -4.1833 0 
C -4.1833 1.109424 -3.742521 2.173559 -2.95804 2.95804 
C -2.173559 3.742521 -1.109424 4.1833 0 4.1833 
z
" style="stroke: #e69a8d"/>
     </defs>
     <g>
      <use xlink:href="#m24141a4af5" x="428.559062" y="51.247812" style="fill: #e69a8d; stroke: #e69a8d"/>
     </g>
    </g>
    <g id="text_16">
     <text style="font: 10px 'DejaVu Sans', 'Bitstream Vera Sans', 'Computer Modern Sans Serif', 'Lucida Grande', 'Verdana', 'Geneva', 'Lucid', 'Arial', 'Helvetica', 'Avant Garde', sans-serif; text-anchor: start" x="446.559062" y="53.872812" transform="rotate(-0 446.559062 53.872812)">B6_female</text>
    </g>
    <g id="PathCollection_7">
     <g>
      <use xlink:href="#m24141a4af5" x="428.559062" y="66.204062" style="fill: #e69a8d; stroke: #e69a8d"/>
     </g>
    </g>
    <g id="text_17">
     <text style="font: 10px 'DejaVu Sans', 'Bitstream Vera Sans', 'Computer Modern Sans Serif', 'Lucida Grande', 'Verdana', 'Geneva', 'Lucid', 'Arial', 'Helvetica', 'Avant Garde', sans-serif; text-anchor: start" x="446.559062" y="68.829062" transform="rotate(-0 446.559062 68.829062)">B6_male</text>
    </g>
    <g id="PathCollection_8">
     <defs>
      <path id="m8eddf07af2" d="M 0 4.1833 
C 1.109424 4.1833 2.173559 3.742521 2.95804 2.95804 
C 3.742521 2.173559 4.1833 1.109424 4.1833 0 
C 4.1833 -1.109424 3.742521 -2.173559 2.95804 -2.95804 
C 2.173559 -3.742521 1.109424 -4.1833 0 -4.1833 
C -1.109424 -4.1833 -2.173559 -3.742521 -2.95804 -2.95804 
C -3.742521 -2.173559 -4.1833 -1.109424 -4.1833 0 
C -4.1833 1.109424 -3.742521 2.173559 -2.95804 2.95804 
C -2.173559 3.742521 -1.109424 4.1833 0 4.1833 
z
" style="stroke: #5f4b8b"/>
     </defs>
     <g>
      <use xlink:href="#m8eddf07af2" x="428.559062" y="81.160312" style="fill: #5f4b8b; stroke: #5f4b8b"/>
     </g>
    </g>
    <g id="text_18">
     <text style="font: 10px 'DejaVu Sans', 'Bitstream Vera Sans', 'Computer Modern Sans Serif', 'Lucida Grande', 'Verdana', 'Geneva', 'Lucid', 'Arial', 'Helvetica', 'Avant Garde', sans-serif; text-anchor: start" x="446.559062" y="83.785312" transform="rotate(-0 446.559062 83.785312)">3XTG_female</text>
    </g>
    <g id="PathCollection_9">
     <g>
      <use xlink:href="#m8eddf07af2" x="428.559062" y="96.116562" style="fill: #5f4b8b; stroke: #5f4b8b"/>
     </g>
    </g>
    <g id="text_19">
     <text style="font: 10px 'DejaVu Sans', 'Bitstream Vera Sans', 'Computer Modern Sans Serif', 'Lucida Grande', 'Verdana', 'Geneva', 'Lucid', 'Arial', 'Helvetica', 'Avant Garde', sans-serif; text-anchor: start" x="446.559062" y="98.741562" transform="rotate(-0 446.559062 98.741562)">3XTG_male</text>
    </g>
   </g>
  </g>
 </g>
 <defs>
  <clipPath id="p0effacd713">
   <rect x="52.439063" y="22.318125" width="357.12" height="266.112"/>
  </clipPath>
 </defs>
</svg>
