<?xml version="1.0" encoding="utf-8" standalone="no"?>
<!DOCTYPE svg PUBLIC "-//W3C//DTD SVG 1.1//EN"
  "http://www.w3.org/Graphics/SVG/1.1/DTD/svg11.dtd">
<svg xmlns:xlink="http://www.w3.org/1999/xlink" width="475.112188pt" height="310.86825pt" viewBox="0 0 475.112188 310.86825" xmlns="http://www.w3.org/2000/svg" version="1.1">
 <metadata>
  <rdf:RDF xmlns:dc="http://purl.org/dc/elements/1.1/" xmlns:cc="http://creativecommons.org/ns#" xmlns:rdf="http://www.w3.org/1999/02/22-rdf-syntax-ns#">
   <cc:Work>
    <dc:type rdf:resource="http://purl.org/dc/dcmitype/StillImage"/>
    <dc:date>2024-11-22T18:28:16.336292</dc:date>
    <dc:format>image/svg+xml</dc:format>
    <dc:creator>
     <cc:Agent>
      <dc:title>Matplotlib v3.6.0, https://matplotlib.org/</dc:title>
     </cc:Agent>
    </dc:creator>
   </cc:Work>
  </rdf:RDF>
 </metadata>
 <defs>
  <style type="text/css">*{stroke-linejoin: round; stroke-linecap: butt}</style>
 </defs>
 <g id="figure_1">
  <g id="patch_1">
   <path d="M 0 310.86825 
L 475.112188 310.86825 
L 475.112188 0 
L 0 0 
z
" style="fill: #ffffff"/>
  </g>
  <g id="axes_1">
   <g id="patch_2">
    <path d="M 42.898438 273.312 
L 400.018438 273.312 
L 400.018438 7.2 
L 42.898438 7.2 
z
" style="fill: #ffffff"/>
   </g>
   <g id="PolyCollection_1">
    <defs>
     <path id="mf9cb89a3b9" d="M 59.131165 -291.57225 
L 59.131165 -228.502546 
L 82.320775 -255.854596 
L 105.510386 -222.297742 
L 128.699996 -218.930555 
L 151.889606 -184.956318 
L 175.079217 -183.630943 
L 198.268827 -197.034451 
L 221.458438 -120.590013 
L 244.648048 -120.326269 
L 267.837658 -127.04683 
L 291.027269 -114.401738 
L 314.216879 -78.729229 
L 337.406489 -136.004234 
L 383.78571 -86.461095 
L 383.78571 -97.265098 
L 383.78571 -97.265098 
L 337.406489 -152.171412 
L 314.216879 -118.106804 
L 291.027269 -176.755536 
L 267.837658 -243.32923 
L 244.648048 -232.178808 
L 221.458438 -242.014409 
L 198.268827 -272.43976 
L 175.079217 -223.588151 
L 151.889606 -215.431049 
L 128.699996 -290.080336 
L 105.510386 -287.514545 
L 82.320775 -284.55054 
L 59.131165 -291.57225 
z
" style="stroke: #e69a8d; stroke-opacity: 0.2"/>
    </defs>
    <g clip-path="url(#p3485a9328a)">
     <use xlink:href="#mf9cb89a3b9" x="0" y="310.86825" style="fill: #e69a8d; fill-opacity: 0.2; stroke: #e69a8d; stroke-opacity: 0.2"/>
    </g>
   </g>
   <g id="PolyCollection_2">
    <defs>
     <path id="mf597b7412d" d="M 59.131165 -99.45136 
L 59.131165 -68.426922 
L 82.320775 -69.475024 
L 105.510386 -49.65225 
L 128.699996 -76.085405 
L 151.889606 -51.212333 
L 175.079217 -62.167963 
L 198.268827 -52.696978 
L 221.458438 -57.894132 
L 244.648048 -51.979288 
L 267.837658 -73.27219 
L 291.027269 -51.783559 
L 314.216879 -68.251284 
L 337.406489 -78.209232 
L 360.5961 -60.671864 
L 383.78571 -128.744138 
L 383.78571 -162.75208 
L 383.78571 -162.75208 
L 360.5961 -150.067507 
L 337.406489 -135.861264 
L 314.216879 -137.972682 
L 291.027269 -132.406559 
L 267.837658 -128.106192 
L 244.648048 -113.481899 
L 221.458438 -189.614365 
L 198.268827 -146.476327 
L 175.079217 -97.042058 
L 151.889606 -117.183598 
L 128.699996 -130.940585 
L 105.510386 -74.501481 
L 82.320775 -94.760151 
L 59.131165 -99.45136 
z
" style="stroke: #5f4b8b; stroke-opacity: 0.2"/>
    </defs>
    <g clip-path="url(#p3485a9328a)">
     <use xlink:href="#mf597b7412d" x="0" y="310.86825" style="fill: #5f4b8b; fill-opacity: 0.2; stroke: #5f4b8b; stroke-opacity: 0.2"/>
    </g>
   </g>
   <g id="matplotlib.axis_1">
    <g id="xtick_1">
     <g id="line2d_1">
      <defs>
       <path id="m2fd25ce008" d="M 0 0 
L 0 3.5 
" style="stroke: #000000; stroke-width: 0.8"/>
      </defs>
      <g>
       <use xlink:href="#m2fd25ce008" x="82.320775" y="273.312" style="stroke: #000000; stroke-width: 0.8"/>
      </g>
     </g>
     <g id="text_1">
      <text style="font: 10px 'sans-serif'; text-anchor: middle" x="82.320775" y="287.910437" transform="rotate(-0 82.320775 287.910437)">2</text>
     </g>
    </g>
    <g id="xtick_2">
     <g id="line2d_2">
      <g>
       <use xlink:href="#m2fd25ce008" x="128.699996" y="273.312" style="stroke: #000000; stroke-width: 0.8"/>
      </g>
     </g>
     <g id="text_2">
      <text style="font: 10px 'sans-serif'; text-anchor: middle" x="128.699996" y="287.910437" transform="rotate(-0 128.699996 287.910437)">4</text>
     </g>
    </g>
    <g id="xtick_3">
     <g id="line2d_3">
      <g>
       <use xlink:href="#m2fd25ce008" x="175.079217" y="273.312" style="stroke: #000000; stroke-width: 0.8"/>
      </g>
     </g>
     <g id="text_3">
      <text style="font: 10px 'sans-serif'; text-anchor: middle" x="175.079217" y="287.910437" transform="rotate(-0 175.079217 287.910437)">6</text>
     </g>
    </g>
    <g id="xtick_4">
     <g id="line2d_4">
      <g>
       <use xlink:href="#m2fd25ce008" x="221.458438" y="273.312" style="stroke: #000000; stroke-width: 0.8"/>
      </g>
     </g>
     <g id="text_4">
      <text style="font: 10px 'sans-serif'; text-anchor: middle" x="221.458438" y="287.910437" transform="rotate(-0 221.458438 287.910437)">8</text>
     </g>
    </g>
    <g id="xtick_5">
     <g id="line2d_5">
      <g>
       <use xlink:href="#m2fd25ce008" x="267.837658" y="273.312" style="stroke: #000000; stroke-width: 0.8"/>
      </g>
     </g>
     <g id="text_5">
      <text style="font: 10px 'sans-serif'; text-anchor: middle" x="267.837658" y="287.910437" transform="rotate(-0 267.837658 287.910437)">10</text>
     </g>
    </g>
    <g id="xtick_6">
     <g id="line2d_6">
      <g>
       <use xlink:href="#m2fd25ce008" x="314.216879" y="273.312" style="stroke: #000000; stroke-width: 0.8"/>
      </g>
     </g>
     <g id="text_6">
      <text style="font: 10px 'sans-serif'; text-anchor: middle" x="314.216879" y="287.910437" transform="rotate(-0 314.216879 287.910437)">12</text>
     </g>
    </g>
    <g id="xtick_7">
     <g id="line2d_7">
      <g>
       <use xlink:href="#m2fd25ce008" x="360.5961" y="273.312" style="stroke: #000000; stroke-width: 0.8"/>
      </g>
     </g>
     <g id="text_7">
      <text style="font: 10px 'sans-serif'; text-anchor: middle" x="360.5961" y="287.910437" transform="rotate(-0 360.5961 287.910437)">14</text>
     </g>
    </g>
    <g id="text_8">
     <text style="font: 10px 'sans-serif'; text-anchor: middle" x="221.458438" y="301.588562" transform="rotate(-0 221.458438 301.588562)">Host Age (months)</text>
    </g>
   </g>
   <g id="matplotlib.axis_2">
    <g id="ytick_1">
     <g id="line2d_8">
      <defs>
       <path id="m6ed1a83f98" d="M 0 0 
L -3.5 0 
" style="stroke: #000000; stroke-width: 0.8"/>
      </defs>
      <g>
       <use xlink:href="#m6ed1a83f98" x="42.898438" y="272.898031" style="stroke: #000000; stroke-width: 0.8"/>
      </g>
     </g>
     <g id="text_9">
      <text style="font: 10px 'sans-serif'; text-anchor: end" x="35.898438" y="276.69725" transform="rotate(-0 35.898438 276.69725)">−8</text>
     </g>
    </g>
    <g id="ytick_2">
     <g id="line2d_9">
      <g>
       <use xlink:href="#m6ed1a83f98" x="42.898438" y="238.840627" style="stroke: #000000; stroke-width: 0.8"/>
      </g>
     </g>
     <g id="text_10">
      <text style="font: 10px 'sans-serif'; text-anchor: end" x="35.898438" y="242.639846" transform="rotate(-0 35.898438 242.639846)">−6</text>
     </g>
    </g>
    <g id="ytick_3">
     <g id="line2d_10">
      <g>
       <use xlink:href="#m6ed1a83f98" x="42.898438" y="204.783223" style="stroke: #000000; stroke-width: 0.8"/>
      </g>
     </g>
     <g id="text_11">
      <text style="font: 10px 'sans-serif'; text-anchor: end" x="35.898438" y="208.582442" transform="rotate(-0 35.898438 208.582442)">−4</text>
     </g>
    </g>
    <g id="ytick_4">
     <g id="line2d_11">
      <g>
       <use xlink:href="#m6ed1a83f98" x="42.898438" y="170.725819" style="stroke: #000000; stroke-width: 0.8"/>
      </g>
     </g>
     <g id="text_12">
      <text style="font: 10px 'sans-serif'; text-anchor: end" x="35.898438" y="174.525038" transform="rotate(-0 35.898438 174.525038)">−2</text>
     </g>
    </g>
    <g id="ytick_5">
     <g id="line2d_12">
      <g>
       <use xlink:href="#m6ed1a83f98" x="42.898438" y="136.668415" style="stroke: #000000; stroke-width: 0.8"/>
      </g>
     </g>
     <g id="text_13">
      <text style="font: 10px 'sans-serif'; text-anchor: end" x="35.898438" y="140.467634" transform="rotate(-0 35.898438 140.467634)">0</text>
     </g>
    </g>
    <g id="ytick_6">
     <g id="line2d_13">
      <g>
       <use xlink:href="#m6ed1a83f98" x="42.898438" y="102.611011" style="stroke: #000000; stroke-width: 0.8"/>
      </g>
     </g>
     <g id="text_14">
      <text style="font: 10px 'sans-serif'; text-anchor: end" x="35.898438" y="106.41023" transform="rotate(-0 35.898438 106.41023)">2</text>
     </g>
    </g>
    <g id="ytick_7">
     <g id="line2d_14">
      <g>
       <use xlink:href="#m6ed1a83f98" x="42.898438" y="68.553607" style="stroke: #000000; stroke-width: 0.8"/>
      </g>
     </g>
     <g id="text_15">
      <text style="font: 10px 'sans-serif'; text-anchor: end" x="35.898438" y="72.352826" transform="rotate(-0 35.898438 72.352826)">4</text>
     </g>
    </g>
    <g id="ytick_8">
     <g id="line2d_15">
      <g>
       <use xlink:href="#m6ed1a83f98" x="42.898438" y="34.496203" style="stroke: #000000; stroke-width: 0.8"/>
      </g>
     </g>
     <g id="text_16">
      <text style="font: 10px 'sans-serif'; text-anchor: end" x="35.898438" y="38.295422" transform="rotate(-0 35.898438 38.295422)">6</text>
     </g>
    </g>
    <g id="text_17">
     <text style="font: 10px 'sans-serif'; text-anchor: middle" x="14.798438" y="140.256" transform="rotate(-90 14.798438 140.256)">Current_Natural_Log_Ratio</text>
    </g>
   </g>
   <g id="line2d_16">
    <path d="M 59.131165 54.232681 
L 82.320775 36.947689 
L 105.510386 53.30592 
L 128.699996 54.177831 
L 151.889606 111.891933 
L 175.079217 105.674192 
L 198.268827 76.127748 
L 221.458438 130.420363 
L 244.648048 132.2268 
L 267.837658 128.186993 
L 291.027269 167.166734 
L 314.216879 207.811244 
L 337.406489 166.780427 
L 383.78571 219.005154 
" clip-path="url(#p3485a9328a)" style="fill: none; stroke: #e69a8d; stroke-width: 1.5; stroke-linecap: square"/>
   </g>
   <g id="line2d_17">
    <path d="M 59.131165 226.215903 
L 82.320775 230.097032 
L 105.510386 249.577381 
L 128.699996 210.954946 
L 151.889606 230.961404 
L 175.079217 232.376566 
L 198.268827 220.079901 
L 221.458438 193.263352 
L 244.648048 234.749658 
L 267.837658 213.347843 
L 291.027269 222.567324 
L 314.216879 209.371202 
L 337.406489 209.449634 
L 360.5961 209.439337 
L 383.78571 166.13947 
" clip-path="url(#p3485a9328a)" style="fill: none; stroke: #5f4b8b; stroke-width: 1.5; stroke-linecap: square"/>
   </g>
   <g id="line2d_18"/>
   <g id="line2d_19"/>
   <g id="patch_3">
    <path d="M 42.898438 273.312 
L 42.898438 7.2 
" style="fill: none; stroke: #000000; stroke-width: 0.8; stroke-linejoin: miter; stroke-linecap: square"/>
   </g>
   <g id="patch_4">
    <path d="M 400.018438 273.312 
L 400.018438 7.2 
" style="fill: none; stroke: #000000; stroke-width: 0.8; stroke-linejoin: miter; stroke-linecap: square"/>
   </g>
   <g id="patch_5">
    <path d="M 42.898438 273.312 
L 400.018438 273.312 
" style="fill: none; stroke: #000000; stroke-width: 0.8; stroke-linejoin: miter; stroke-linecap: square"/>
   </g>
   <g id="patch_6">
    <path d="M 42.898438 7.2 
L 400.018438 7.2 
" style="fill: none; stroke: #000000; stroke-width: 0.8; stroke-linejoin: miter; stroke-linecap: square"/>
   </g>
   <g id="legend_1">
    <g id="patch_7">
     <path d="M 407.018438 59.234375 
L 465.912188 59.234375 
Q 467.912188 59.234375 467.912188 57.234375 
L 467.912188 14.2 
Q 467.912188 12.2 465.912188 12.2 
L 407.018438 12.2 
Q 405.018438 12.2 405.018438 14.2 
L 405.018438 57.234375 
Q 405.018438 59.234375 407.018438 59.234375 
z
" style="fill: #ffffff; opacity: 0.8; stroke: #cccccc; stroke-linejoin: miter"/>
    </g>
    <g id="text_18">
     <text style="font: 10px 'sans-serif'; text-anchor: start" x="412.816094" y="23.798437" transform="rotate(-0 412.816094 23.798437)">genotype</text>
    </g>
    <g id="line2d_20">
     <path d="M 409.018438 34.976562 
L 419.018438 34.976562 
L 429.018438 34.976562 
" style="fill: none; stroke: #e69a8d; stroke-width: 1.5; stroke-linecap: square"/>
    </g>
    <g id="text_19">
     <text style="font: 10px 'sans-serif'; text-anchor: start" x="437.018438" y="38.476562" transform="rotate(-0 437.018438 38.476562)">B6</text>
    </g>
    <g id="line2d_21">
     <path d="M 409.018438 49.654688 
L 419.018438 49.654688 
L 429.018438 49.654688 
" style="fill: none; stroke: #5f4b8b; stroke-width: 1.5; stroke-linecap: square"/>
    </g>
    <g id="text_20">
     <text style="font: 10px 'sans-serif'; text-anchor: start" x="437.018438" y="53.154688" transform="rotate(-0 437.018438 53.154688)">3XTG</text>
    </g>
   </g>
  </g>
 </g>
 <defs>
  <clipPath id="p3485a9328a">
   <rect x="42.898438" y="7.2" width="357.12" height="266.112"/>
  </clipPath>
 </defs>
</svg>
