<?xml version="1.0" encoding="utf-8" standalone="no"?>
<!DOCTYPE svg PUBLIC "-//W3C//DTD SVG 1.1//EN"
  "http://www.w3.org/Graphics/SVG/1.1/DTD/svg11.dtd">
<svg xmlns:xlink="http://www.w3.org/1999/xlink" width="407.218437pt" height="333.76135pt" viewBox="0 0 407.218437 333.76135" xmlns="http://www.w3.org/2000/svg" version="1.1">
 <metadata>
  <rdf:RDF xmlns:dc="http://purl.org/dc/elements/1.1/" xmlns:cc="http://creativecommons.org/ns#" xmlns:rdf="http://www.w3.org/1999/02/22-rdf-syntax-ns#">
   <cc:Work>
    <dc:type rdf:resource="http://purl.org/dc/dcmitype/StillImage"/>
    <dc:date>2024-12-10T21:23:40.051126</dc:date>
    <dc:format>image/svg+xml</dc:format>
    <dc:creator>
     <cc:Agent>
      <dc:title>Matplotlib v3.7.3, https://matplotlib.org/</dc:title>
     </cc:Agent>
    </dc:creator>
   </cc:Work>
  </rdf:RDF>
 </metadata>
 <defs>
  <style type="text/css">*{stroke-linejoin: round; stroke-linecap: butt}</style>
 </defs>
 <g id="figure_1">
  <g id="patch_1">
   <path d="M 0 333.76135 
L 407.218438 333.76135 
L 407.218438 0 
L 0 0 
z
" style="fill: #ffffff"/>
  </g>
  <g id="axes_1">
   <g id="patch_2">
    <path d="M 42.898438 297.295725 
L 400.018438 297.295725 
L 400.018438 31.183725 
L 42.898438 31.183725 
z
" style="fill: #ffffff"/>
   </g>
   <g id="patch_3">
    <path d="M 55.278598 192.786316 
L 101.942278 192.786316 
L 101.942278 90.705539 
L 55.278598 90.705539 
L 55.278598 192.786316 
z
" clip-path="url(#p20077b1fc9)" style="fill: #dba298; stroke: #404040; stroke-width: 1.5; stroke-linejoin: miter"/>
   </g>
   <g id="patch_4">
    <path d="M 102.894598 266.581472 
L 149.558278 266.581472 
L 149.558278 227.005778 
L 102.894598 227.005778 
L 102.894598 266.581472 
z
" clip-path="url(#p20077b1fc9)" style="fill: #625383; stroke: #404040; stroke-width: 1.5; stroke-linejoin: miter"/>
   </g>
   <g id="patch_5">
    <path d="M 174.318598 149.390131 
L 220.982278 149.390131 
L 220.982278 72.30051 
L 174.318598 72.30051 
L 174.318598 149.390131 
z
" clip-path="url(#p20077b1fc9)" style="fill: #dba298; stroke: #404040; stroke-width: 1.5; stroke-linejoin: miter"/>
   </g>
   <g id="patch_6">
    <path d="M 221.934598 262.929277 
L 268.598278 262.929277 
L 268.598278 240.578764 
L 221.934598 240.578764 
L 221.934598 262.929277 
z
" clip-path="url(#p20077b1fc9)" style="fill: #625383; stroke: #404040; stroke-width: 1.5; stroke-linejoin: miter"/>
   </g>
   <g id="patch_7">
    <path d="M 293.358598 197.76154 
L 340.022278 197.76154 
L 340.022278 177.078828 
L 293.358598 177.078828 
L 293.358598 197.76154 
z
" clip-path="url(#p20077b1fc9)" style="fill: #dba298; stroke: #404040; stroke-width: 1.5; stroke-linejoin: miter"/>
   </g>
   <g id="patch_8">
    <path d="M 340.974598 269.948245 
L 387.638278 269.948245 
L 387.638278 245.412595 
L 340.974598 245.412595 
L 340.974598 269.948245 
z
" clip-path="url(#p20077b1fc9)" style="fill: #625383; stroke: #404040; stroke-width: 1.5; stroke-linejoin: miter"/>
   </g>
   <g id="patch_9">
    <path d="M 102.418438 173.181116 
L 102.418438 173.181116 
L 102.418438 173.181116 
L 102.418438 173.181116 
z
" clip-path="url(#p20077b1fc9)" style="fill: #dba298; stroke: #404040; stroke-width: 0.75; stroke-linejoin: miter"/>
   </g>
   <g id="patch_10">
    <path d="M 102.418438 173.181116 
L 102.418438 173.181116 
L 102.418438 173.181116 
L 102.418438 173.181116 
z
" clip-path="url(#p20077b1fc9)" style="fill: #625383; stroke: #404040; stroke-width: 0.75; stroke-linejoin: miter"/>
   </g>
   <g id="PathCollection_1"/>
   <g id="PathCollection_2"/>
   <g id="matplotlib.axis_1">
    <g id="xtick_1">
     <g id="line2d_1">
      <defs>
       <path id="m86ffba59d6" d="M 0 0 
L 0 3.5 
" style="stroke: #000000; stroke-width: 0.8"/>
      </defs>
      <g>
       <use xlink:href="#m86ffba59d6" x="102.418438" y="297.295725" style="stroke: #000000; stroke-width: 0.8"/>
      </g>
     </g>
     <g id="text_1">
      <text style="font: 10px 'DejaVu Sans', 'Bitstream Vera Sans', 'Computer Modern Sans Serif', 'Lucida Grande', 'Verdana', 'Geneva', 'Lucid', 'Arial', 'Helvetica', 'Avant Garde', sans-serif" transform="translate(105.177813 320.19885) rotate(-90)">7.0</text>
     </g>
    </g>
    <g id="xtick_2">
     <g id="line2d_2">
      <g>
       <use xlink:href="#m86ffba59d6" x="221.458438" y="297.295725" style="stroke: #000000; stroke-width: 0.8"/>
      </g>
     </g>
     <g id="text_2">
      <text style="font: 10px 'DejaVu Sans', 'Bitstream Vera Sans', 'Computer Modern Sans Serif', 'Lucida Grande', 'Verdana', 'Geneva', 'Lucid', 'Arial', 'Helvetica', 'Avant Garde', sans-serif" transform="translate(224.217813 326.56135) rotate(-90)">12.0</text>
     </g>
    </g>
    <g id="xtick_3">
     <g id="line2d_3">
      <g>
       <use xlink:href="#m86ffba59d6" x="340.498438" y="297.295725" style="stroke: #000000; stroke-width: 0.8"/>
      </g>
     </g>
     <g id="text_3">
      <text style="font: 10px 'DejaVu Sans', 'Bitstream Vera Sans', 'Computer Modern Sans Serif', 'Lucida Grande', 'Verdana', 'Geneva', 'Lucid', 'Arial', 'Helvetica', 'Avant Garde', sans-serif" transform="translate(343.257813 326.56135) rotate(-90)">15.0</text>
     </g>
    </g>
   </g>
   <g id="matplotlib.axis_2">
    <g id="ytick_1">
     <g id="line2d_4">
      <defs>
       <path id="m93ee873018" d="M 0 0 
L -3.5 0 
" style="stroke: #000000; stroke-width: 0.8"/>
      </defs>
      <g>
       <use xlink:href="#m93ee873018" x="42.898438" y="271.200825" style="stroke: #000000; stroke-width: 0.8"/>
      </g>
     </g>
     <g id="text_4">
      <text style="font: 10px 'DejaVu Sans', 'Bitstream Vera Sans', 'Computer Modern Sans Serif', 'Lucida Grande', 'Verdana', 'Geneva', 'Lucid', 'Arial', 'Helvetica', 'Avant Garde', sans-serif; text-anchor: end" x="35.898438" y="275.000044" transform="rotate(-0 35.898438 275.000044)">−6</text>
     </g>
    </g>
    <g id="ytick_2">
     <g id="line2d_5">
      <g>
       <use xlink:href="#m93ee873018" x="42.898438" y="238.527588" style="stroke: #000000; stroke-width: 0.8"/>
      </g>
     </g>
     <g id="text_5">
      <text style="font: 10px 'DejaVu Sans', 'Bitstream Vera Sans', 'Computer Modern Sans Serif', 'Lucida Grande', 'Verdana', 'Geneva', 'Lucid', 'Arial', 'Helvetica', 'Avant Garde', sans-serif; text-anchor: end" x="35.898438" y="242.326807" transform="rotate(-0 35.898438 242.326807)">−4</text>
     </g>
    </g>
    <g id="ytick_3">
     <g id="line2d_6">
      <g>
       <use xlink:href="#m93ee873018" x="42.898438" y="205.854352" style="stroke: #000000; stroke-width: 0.8"/>
      </g>
     </g>
     <g id="text_6">
      <text style="font: 10px 'DejaVu Sans', 'Bitstream Vera Sans', 'Computer Modern Sans Serif', 'Lucida Grande', 'Verdana', 'Geneva', 'Lucid', 'Arial', 'Helvetica', 'Avant Garde', sans-serif; text-anchor: end" x="35.898438" y="209.653571" transform="rotate(-0 35.898438 209.653571)">−2</text>
     </g>
    </g>
    <g id="ytick_4">
     <g id="line2d_7">
      <g>
       <use xlink:href="#m93ee873018" x="42.898438" y="173.181116" style="stroke: #000000; stroke-width: 0.8"/>
      </g>
     </g>
     <g id="text_7">
      <text style="font: 10px 'DejaVu Sans', 'Bitstream Vera Sans', 'Computer Modern Sans Serif', 'Lucida Grande', 'Verdana', 'Geneva', 'Lucid', 'Arial', 'Helvetica', 'Avant Garde', sans-serif; text-anchor: end" x="35.898438" y="176.980334" transform="rotate(-0 35.898438 176.980334)">0</text>
     </g>
    </g>
    <g id="ytick_5">
     <g id="line2d_8">
      <g>
       <use xlink:href="#m93ee873018" x="42.898438" y="140.507879" style="stroke: #000000; stroke-width: 0.8"/>
      </g>
     </g>
     <g id="text_8">
      <text style="font: 10px 'DejaVu Sans', 'Bitstream Vera Sans', 'Computer Modern Sans Serif', 'Lucida Grande', 'Verdana', 'Geneva', 'Lucid', 'Arial', 'Helvetica', 'Avant Garde', sans-serif; text-anchor: end" x="35.898438" y="144.307098" transform="rotate(-0 35.898438 144.307098)">2</text>
     </g>
    </g>
    <g id="ytick_6">
     <g id="line2d_9">
      <g>
       <use xlink:href="#m93ee873018" x="42.898438" y="107.834643" style="stroke: #000000; stroke-width: 0.8"/>
      </g>
     </g>
     <g id="text_9">
      <text style="font: 10px 'DejaVu Sans', 'Bitstream Vera Sans', 'Computer Modern Sans Serif', 'Lucida Grande', 'Verdana', 'Geneva', 'Lucid', 'Arial', 'Helvetica', 'Avant Garde', sans-serif; text-anchor: end" x="35.898438" y="111.633862" transform="rotate(-0 35.898438 111.633862)">4</text>
     </g>
    </g>
    <g id="ytick_7">
     <g id="line2d_10">
      <g>
       <use xlink:href="#m93ee873018" x="42.898438" y="75.161406" style="stroke: #000000; stroke-width: 0.8"/>
      </g>
     </g>
     <g id="text_10">
      <text style="font: 10px 'DejaVu Sans', 'Bitstream Vera Sans', 'Computer Modern Sans Serif', 'Lucida Grande', 'Verdana', 'Geneva', 'Lucid', 'Arial', 'Helvetica', 'Avant Garde', sans-serif; text-anchor: end" x="35.898438" y="78.960625" transform="rotate(-0 35.898438 78.960625)">6</text>
     </g>
    </g>
    <g id="ytick_8">
     <g id="line2d_11">
      <g>
       <use xlink:href="#m93ee873018" x="42.898438" y="42.48817" style="stroke: #000000; stroke-width: 0.8"/>
      </g>
     </g>
     <g id="text_11">
      <text style="font: 10px 'DejaVu Sans', 'Bitstream Vera Sans', 'Computer Modern Sans Serif', 'Lucida Grande', 'Verdana', 'Geneva', 'Lucid', 'Arial', 'Helvetica', 'Avant Garde', sans-serif; text-anchor: end" x="35.898438" y="46.287389" transform="rotate(-0 35.898438 46.287389)">8</text>
     </g>
    </g>
    <g id="text_12">
     <text style="font: 10px 'DejaVu Sans', 'Bitstream Vera Sans', 'Computer Modern Sans Serif', 'Lucida Grande', 'Verdana', 'Geneva', 'Lucid', 'Arial', 'Helvetica', 'Avant Garde', sans-serif; text-anchor: middle" x="14.798438" y="164.239725" transform="rotate(-90 14.798438 164.239725)">Current_Natural_Log_Ratio</text>
    </g>
   </g>
   <g id="line2d_12">
    <path d="M 78.610438 192.786316 
L 78.610438 202.808108 
" clip-path="url(#p20077b1fc9)" style="fill: none; stroke: #404040; stroke-width: 1.5; stroke-linecap: square"/>
   </g>
   <g id="line2d_13">
    <path d="M 78.610438 90.705539 
L 78.610438 64.479679 
" clip-path="url(#p20077b1fc9)" style="fill: none; stroke: #404040; stroke-width: 1.5; stroke-linecap: square"/>
   </g>
   <g id="line2d_14">
    <path d="M 66.944518 202.808108 
L 90.276358 202.808108 
" clip-path="url(#p20077b1fc9)" style="fill: none; stroke: #404040; stroke-width: 1.5; stroke-linecap: square"/>
   </g>
   <g id="line2d_15">
    <path d="M 66.944518 64.479679 
L 90.276358 64.479679 
" clip-path="url(#p20077b1fc9)" style="fill: none; stroke: #404040; stroke-width: 1.5; stroke-linecap: square"/>
   </g>
   <g id="line2d_16"/>
   <g id="line2d_17">
    <path d="M 126.226438 266.581472 
L 126.226438 277.537177 
" clip-path="url(#p20077b1fc9)" style="fill: none; stroke: #404040; stroke-width: 1.5; stroke-linecap: square"/>
   </g>
   <g id="line2d_18">
    <path d="M 126.226438 227.005778 
L 126.226438 222.486305 
" clip-path="url(#p20077b1fc9)" style="fill: none; stroke: #404040; stroke-width: 1.5; stroke-linecap: square"/>
   </g>
   <g id="line2d_19">
    <path d="M 114.560518 277.537177 
L 137.892358 277.537177 
" clip-path="url(#p20077b1fc9)" style="fill: none; stroke: #404040; stroke-width: 1.5; stroke-linecap: square"/>
   </g>
   <g id="line2d_20">
    <path d="M 114.560518 222.486305 
L 137.892358 222.486305 
" clip-path="url(#p20077b1fc9)" style="fill: none; stroke: #404040; stroke-width: 1.5; stroke-linecap: square"/>
   </g>
   <g id="line2d_21">
    <defs>
     <path id="m59f7ac2965" d="M -0 3.535534 
L 2.12132 0 
L -0 -3.535534 
L -2.12132 -0 
z
" style="stroke: #404040; stroke-linejoin: miter"/>
    </defs>
    <g clip-path="url(#p20077b1fc9)">
     <use xlink:href="#m59f7ac2965" x="126.226438" y="78.101612" style="fill: #404040; stroke: #404040; stroke-linejoin: miter"/>
     <use xlink:href="#m59f7ac2965" x="126.226438" y="73.620892" style="fill: #404040; stroke: #404040; stroke-linejoin: miter"/>
     <use xlink:href="#m59f7ac2965" x="126.226438" y="97.201086" style="fill: #404040; stroke: #404040; stroke-linejoin: miter"/>
    </g>
   </g>
   <g id="line2d_22">
    <path d="M 197.650438 149.390131 
L 197.650438 171.491983 
" clip-path="url(#p20077b1fc9)" style="fill: none; stroke: #404040; stroke-width: 1.5; stroke-linecap: square"/>
   </g>
   <g id="line2d_23">
    <path d="M 197.650438 72.30051 
L 197.650438 43.279725 
" clip-path="url(#p20077b1fc9)" style="fill: none; stroke: #404040; stroke-width: 1.5; stroke-linecap: square"/>
   </g>
   <g id="line2d_24">
    <path d="M 185.984518 171.491983 
L 209.316358 171.491983 
" clip-path="url(#p20077b1fc9)" style="fill: none; stroke: #404040; stroke-width: 1.5; stroke-linecap: square"/>
   </g>
   <g id="line2d_25">
    <path d="M 185.984518 43.279725 
L 209.316358 43.279725 
" clip-path="url(#p20077b1fc9)" style="fill: none; stroke: #404040; stroke-width: 1.5; stroke-linecap: square"/>
   </g>
   <g id="line2d_26"/>
   <g id="line2d_27">
    <path d="M 245.266438 262.929277 
L 245.266438 276.974996 
" clip-path="url(#p20077b1fc9)" style="fill: none; stroke: #404040; stroke-width: 1.5; stroke-linecap: square"/>
   </g>
   <g id="line2d_28">
    <path d="M 245.266438 240.578764 
L 245.266438 210.307864 
" clip-path="url(#p20077b1fc9)" style="fill: none; stroke: #404040; stroke-width: 1.5; stroke-linecap: square"/>
   </g>
   <g id="line2d_29">
    <path d="M 233.600518 276.974996 
L 256.932358 276.974996 
" clip-path="url(#p20077b1fc9)" style="fill: none; stroke: #404040; stroke-width: 1.5; stroke-linecap: square"/>
   </g>
   <g id="line2d_30">
    <path d="M 233.600518 210.307864 
L 256.932358 210.307864 
" clip-path="url(#p20077b1fc9)" style="fill: none; stroke: #404040; stroke-width: 1.5; stroke-linecap: square"/>
   </g>
   <g id="line2d_31"/>
   <g id="line2d_32">
    <path d="M 316.690438 197.76154 
L 316.690438 226.415114 
" clip-path="url(#p20077b1fc9)" style="fill: none; stroke: #404040; stroke-width: 1.5; stroke-linecap: square"/>
   </g>
   <g id="line2d_33">
    <path d="M 316.690438 177.078828 
L 316.690438 174.686093 
" clip-path="url(#p20077b1fc9)" style="fill: none; stroke: #404040; stroke-width: 1.5; stroke-linecap: square"/>
   </g>
   <g id="line2d_34">
    <path d="M 305.024518 226.415114 
L 328.356358 226.415114 
" clip-path="url(#p20077b1fc9)" style="fill: none; stroke: #404040; stroke-width: 1.5; stroke-linecap: square"/>
   </g>
   <g id="line2d_35">
    <path d="M 305.024518 174.686093 
L 328.356358 174.686093 
" clip-path="url(#p20077b1fc9)" style="fill: none; stroke: #404040; stroke-width: 1.5; stroke-linecap: square"/>
   </g>
   <g id="line2d_36"/>
   <g id="line2d_37">
    <path d="M 364.306438 269.948245 
L 364.306438 285.199725 
" clip-path="url(#p20077b1fc9)" style="fill: none; stroke: #404040; stroke-width: 1.5; stroke-linecap: square"/>
   </g>
   <g id="line2d_38">
    <path d="M 364.306438 245.412595 
L 364.306438 245.412595 
" clip-path="url(#p20077b1fc9)" style="fill: none; stroke: #404040; stroke-width: 1.5; stroke-linecap: square"/>
   </g>
   <g id="line2d_39">
    <path d="M 352.640518 285.199725 
L 375.972358 285.199725 
" clip-path="url(#p20077b1fc9)" style="fill: none; stroke: #404040; stroke-width: 1.5; stroke-linecap: square"/>
   </g>
   <g id="line2d_40">
    <path d="M 352.640518 245.412595 
L 375.972358 245.412595 
" clip-path="url(#p20077b1fc9)" style="fill: none; stroke: #404040; stroke-width: 1.5; stroke-linecap: square"/>
   </g>
   <g id="line2d_41">
    <g clip-path="url(#p20077b1fc9)">
     <use xlink:href="#m59f7ac2965" x="364.306438" y="193.519828" style="fill: #404040; stroke: #404040; stroke-linejoin: miter"/>
    </g>
   </g>
   <g id="line2d_42">
    <path d="M 197.650438 23.200365 
L 197.650438 17.878125 
L 245.266438 17.878125 
L 245.266438 23.200365 
" style="fill: none; stroke: #333333; stroke-width: 1.5; stroke-linecap: square"/>
   </g>
   <g id="line2d_43">
    <path d="M 78.610438 23.200365 
L 78.610438 17.878125 
L 126.226438 17.878125 
L 126.226438 23.200365 
" style="fill: none; stroke: #333333; stroke-width: 1.5; stroke-linecap: square"/>
   </g>
   <g id="line2d_44">
    <path d="M 316.690438 23.200365 
L 316.690438 17.878125 
L 364.306438 17.878125 
L 364.306438 23.200365 
" style="fill: none; stroke: #333333; stroke-width: 1.5; stroke-linecap: square"/>
   </g>
   <g id="line2d_45">
    <path d="M 55.278598 184.414827 
L 101.942278 184.414827 
" clip-path="url(#p20077b1fc9)" style="fill: none; stroke: #404040; stroke-width: 1.5; stroke-linecap: square"/>
   </g>
   <g id="line2d_46">
    <path d="M 102.894598 253.221369 
L 149.558278 253.221369 
" clip-path="url(#p20077b1fc9)" style="fill: none; stroke: #404040; stroke-width: 1.5; stroke-linecap: square"/>
   </g>
   <g id="line2d_47">
    <path d="M 174.318598 125.157231 
L 220.982278 125.157231 
" clip-path="url(#p20077b1fc9)" style="fill: none; stroke: #404040; stroke-width: 1.5; stroke-linecap: square"/>
   </g>
   <g id="line2d_48">
    <path d="M 221.934598 246.679539 
L 268.598278 246.679539 
" clip-path="url(#p20077b1fc9)" style="fill: none; stroke: #404040; stroke-width: 1.5; stroke-linecap: square"/>
   </g>
   <g id="line2d_49">
    <path d="M 293.358598 186.897934 
L 340.022278 186.897934 
" clip-path="url(#p20077b1fc9)" style="fill: none; stroke: #404040; stroke-width: 1.5; stroke-linecap: square"/>
   </g>
   <g id="line2d_50">
    <path d="M 340.974598 245.703347 
L 387.638278 245.703347 
" clip-path="url(#p20077b1fc9)" style="fill: none; stroke: #404040; stroke-width: 1.5; stroke-linecap: square"/>
   </g>
   <g id="patch_11">
    <path d="M 42.898438 297.295725 
L 42.898438 31.183725 
" style="fill: none; stroke: #000000; stroke-width: 0.8; stroke-linejoin: miter; stroke-linecap: square"/>
   </g>
   <g id="patch_12">
    <path d="M 400.018438 297.295725 
L 400.018438 31.183725 
" style="fill: none; stroke: #000000; stroke-width: 0.8; stroke-linejoin: miter; stroke-linecap: square"/>
   </g>
   <g id="patch_13">
    <path d="M 42.898438 297.295725 
L 400.018438 297.295725 
" style="fill: none; stroke: #000000; stroke-width: 0.8; stroke-linejoin: miter; stroke-linecap: square"/>
   </g>
   <g id="patch_14">
    <path d="M 42.898438 31.183725 
L 400.018438 31.183725 
" style="fill: none; stroke: #000000; stroke-width: 0.8; stroke-linejoin: miter; stroke-linecap: square"/>
   </g>
   <g id="PathCollection_3">
    <defs>
     <path id="C0_0_1b5d1901f5" d="M 0 5 
C 1.326016 5 2.597899 4.473168 3.535534 3.535534 
C 4.473168 2.597899 5 1.326016 5 -0 
C 5 -1.326016 4.473168 -2.597899 3.535534 -3.535534 
C 2.597899 -4.473168 1.326016 -5 0 -5 
C -1.326016 -5 -2.597899 -4.473168 -3.535534 -3.535534 
C -4.473168 -2.597899 -5 -1.326016 -5 0 
C -5 1.326016 -4.473168 2.597899 -3.535534 3.535534 
C -2.597899 4.473168 -1.326016 5 0 5 
z
"/>
    </defs>
    <g clip-path="url(#p20077b1fc9)">
     <use xlink:href="#C0_0_1b5d1901f5" x="72.830487" y="64.479679" style="fill: #e69a8d; stroke: #000000"/>
    </g>
    <g clip-path="url(#p20077b1fc9)">
     <use xlink:href="#C0_0_1b5d1901f5" x="81.843507" y="90.705539" style="fill: #e69a8d; stroke: #000000"/>
    </g>
    <g clip-path="url(#p20077b1fc9)">
     <use xlink:href="#C0_0_1b5d1901f5" x="77.313618" y="75.439195" style="fill: #e69a8d; stroke: #000000"/>
    </g>
    <g clip-path="url(#p20077b1fc9)">
     <use xlink:href="#C0_0_1b5d1901f5" x="83.669967" y="184.414827" style="fill: #e69a8d; stroke: #000000"/>
    </g>
    <g clip-path="url(#p20077b1fc9)">
     <use xlink:href="#C0_0_1b5d1901f5" x="78.046384" y="159.681429" style="fill: #e69a8d; stroke: #000000"/>
    </g>
    <g clip-path="url(#p20077b1fc9)">
     <use xlink:href="#C0_0_1b5d1901f5" x="80.733418" y="192.786316" style="fill: #e69a8d; stroke: #000000"/>
    </g>
    <g clip-path="url(#p20077b1fc9)">
     <use xlink:href="#C0_0_1b5d1901f5" x="80.561546" y="202.808108" style="fill: #e69a8d; stroke: #000000"/>
    </g>
    <g clip-path="url(#p20077b1fc9)">
     <use xlink:href="#C0_0_1b5d1901f5" x="75.959134" y="194.834555" style="fill: #e69a8d; stroke: #000000"/>
    </g>
    <g clip-path="url(#p20077b1fc9)">
     <use xlink:href="#C0_0_1b5d1901f5" x="80.756632" y="191.215608" style="fill: #e69a8d; stroke: #000000"/>
    </g>
   </g>
   <g id="PathCollection_4">
    <defs>
     <path id="C1_0_c929d57fad" d="M 0 5 
C 1.326016 5 2.597899 4.473168 3.535534 3.535534 
C 4.473168 2.597899 5 1.326016 5 -0 
C 5 -1.326016 4.473168 -2.597899 3.535534 -3.535534 
C 2.597899 -4.473168 1.326016 -5 0 -5 
C -1.326016 -5 -2.597899 -4.473168 -3.535534 -3.535534 
C -4.473168 -2.597899 -5 -1.326016 -5 0 
C -5 1.326016 -4.473168 2.597899 -3.535534 3.535534 
C -2.597899 4.473168 -1.326016 5 0 5 
z
"/>
    </defs>
    <g clip-path="url(#p20077b1fc9)">
     <use xlink:href="#C1_0_c929d57fad" x="125.731583" y="222.486305" style="fill: #5f4b8b; stroke: #000000"/>
    </g>
    <g clip-path="url(#p20077b1fc9)">
     <use xlink:href="#C1_0_c929d57fad" x="129.743475" y="259.8751" style="fill: #5f4b8b; stroke: #000000"/>
    </g>
    <g clip-path="url(#p20077b1fc9)">
     <use xlink:href="#C1_0_c929d57fad" x="126.745112" y="78.101612" style="fill: #5f4b8b; stroke: #000000"/>
    </g>
    <g clip-path="url(#p20077b1fc9)">
     <use xlink:href="#C1_0_c929d57fad" x="122.231788" y="251.085668" style="fill: #5f4b8b; stroke: #000000"/>
    </g>
    <g clip-path="url(#p20077b1fc9)">
     <use xlink:href="#C1_0_c929d57fad" x="130.258127" y="73.620892" style="fill: #5f4b8b; stroke: #000000"/>
    </g>
    <g clip-path="url(#p20077b1fc9)">
     <use xlink:href="#C1_0_c929d57fad" x="122.514709" y="240.564195" style="fill: #5f4b8b; stroke: #000000"/>
    </g>
    <g clip-path="url(#p20077b1fc9)">
     <use xlink:href="#C1_0_c929d57fad" x="123.864757" y="258.870988" style="fill: #5f4b8b; stroke: #000000"/>
    </g>
    <g clip-path="url(#p20077b1fc9)">
     <use xlink:href="#C1_0_c929d57fad" x="130.121403" y="255.357071" style="fill: #5f4b8b; stroke: #000000"/>
    </g>
    <g clip-path="url(#p20077b1fc9)">
     <use xlink:href="#C1_0_c929d57fad" x="120.438627" y="245.427775" style="fill: #5f4b8b; stroke: #000000"/>
    </g>
    <g clip-path="url(#p20077b1fc9)">
     <use xlink:href="#C1_0_c929d57fad" x="124.637413" y="270.20147" style="fill: #5f4b8b; stroke: #000000"/>
    </g>
    <g clip-path="url(#p20077b1fc9)">
     <use xlink:href="#C1_0_c929d57fad" x="127.991518" y="268.948769" style="fill: #5f4b8b; stroke: #000000"/>
    </g>
    <g clip-path="url(#p20077b1fc9)">
     <use xlink:href="#C1_0_c929d57fad" x="124.065168" y="277.537177" style="fill: #5f4b8b; stroke: #000000"/>
    </g>
    <g clip-path="url(#p20077b1fc9)">
     <use xlink:href="#C1_0_c929d57fad" x="124.410463" y="268.816929" style="fill: #5f4b8b; stroke: #000000"/>
    </g>
    <g clip-path="url(#p20077b1fc9)">
     <use xlink:href="#C1_0_c929d57fad" x="127.913396" y="97.201086" style="fill: #5f4b8b; stroke: #000000"/>
    </g>
   </g>
   <g id="PathCollection_5">
    <defs>
     <path id="C2_0_8e63e48202" d="M 0 5 
C 1.326016 5 2.597899 4.473168 3.535534 3.535534 
C 4.473168 2.597899 5 1.326016 5 -0 
C 5 -1.326016 4.473168 -2.597899 3.535534 -3.535534 
C 2.597899 -4.473168 1.326016 -5 0 -5 
C -1.326016 -5 -2.597899 -4.473168 -3.535534 -3.535534 
C -4.473168 -2.597899 -5 -1.326016 -5 0 
C -5 1.326016 -4.473168 2.597899 -3.535534 3.535534 
C -2.597899 4.473168 -1.326016 5 0 5 
z
"/>
    </defs>
    <g clip-path="url(#p20077b1fc9)">
     <use xlink:href="#C2_0_8e63e48202" x="200.188044" y="79.343297" style="fill: #e69a8d; stroke: #000000"/>
    </g>
    <g clip-path="url(#p20077b1fc9)">
     <use xlink:href="#C2_0_8e63e48202" x="195.060669" y="72.30051" style="fill: #e69a8d; stroke: #000000"/>
    </g>
    <g clip-path="url(#p20077b1fc9)">
     <use xlink:href="#C2_0_8e63e48202" x="195.73398" y="52.991917" style="fill: #e69a8d; stroke: #000000"/>
    </g>
    <g clip-path="url(#p20077b1fc9)">
     <use xlink:href="#C2_0_8e63e48202" x="193.108343" y="60.407039" style="fill: #e69a8d; stroke: #000000"/>
    </g>
    <g clip-path="url(#p20077b1fc9)">
     <use xlink:href="#C2_0_8e63e48202" x="198.676002" y="129.690969" style="fill: #e69a8d; stroke: #000000"/>
    </g>
    <g clip-path="url(#p20077b1fc9)">
     <use xlink:href="#C2_0_8e63e48202" x="200.629909" y="167.446544" style="fill: #e69a8d; stroke: #000000"/>
    </g>
    <g clip-path="url(#p20077b1fc9)">
     <use xlink:href="#C2_0_8e63e48202" x="195.473494" y="149.390131" style="fill: #e69a8d; stroke: #000000"/>
    </g>
    <g clip-path="url(#p20077b1fc9)">
     <use xlink:href="#C2_0_8e63e48202" x="199.780204" y="100.876309" style="fill: #e69a8d; stroke: #000000"/>
    </g>
    <g clip-path="url(#p20077b1fc9)">
     <use xlink:href="#C2_0_8e63e48202" x="194.410021" y="43.279725" style="fill: #e69a8d; stroke: #000000"/>
    </g>
    <g clip-path="url(#p20077b1fc9)">
     <use xlink:href="#C2_0_8e63e48202" x="195.062699" y="148.539394" style="fill: #e69a8d; stroke: #000000"/>
    </g>
    <g clip-path="url(#p20077b1fc9)">
     <use xlink:href="#C2_0_8e63e48202" x="193.441816" y="171.491983" style="fill: #e69a8d; stroke: #000000"/>
    </g>
    <g clip-path="url(#p20077b1fc9)">
     <use xlink:href="#C2_0_8e63e48202" x="203.422978" y="166.684769" style="fill: #e69a8d; stroke: #000000"/>
    </g>
    <g clip-path="url(#p20077b1fc9)">
     <use xlink:href="#C2_0_8e63e48202" x="193.438693" y="125.157231" style="fill: #e69a8d; stroke: #000000"/>
    </g>
   </g>
   <g id="PathCollection_6">
    <defs>
     <path id="C3_0_af32d03f07" d="M 0 5 
C 1.326016 5 2.597899 4.473168 3.535534 3.535534 
C 4.473168 2.597899 5 1.326016 5 -0 
C 5 -1.326016 4.473168 -2.597899 3.535534 -3.535534 
C 2.597899 -4.473168 1.326016 -5 0 -5 
C -1.326016 -5 -2.597899 -4.473168 -3.535534 -3.535534 
C -4.473168 -2.597899 -5 -1.326016 -5 0 
C -5 1.326016 -4.473168 2.597899 -3.535534 3.535534 
C -2.597899 4.473168 -1.326016 5 0 5 
z
"/>
    </defs>
    <g clip-path="url(#p20077b1fc9)">
     <use xlink:href="#C3_0_af32d03f07" x="242.74214" y="239.960371" style="fill: #5f4b8b; stroke: #000000"/>
    </g>
    <g clip-path="url(#p20077b1fc9)">
     <use xlink:href="#C3_0_af32d03f07" x="248.066223" y="267.268274" style="fill: #5f4b8b; stroke: #000000"/>
    </g>
    <g clip-path="url(#p20077b1fc9)">
     <use xlink:href="#C3_0_af32d03f07" x="251.022244" y="262.929277" style="fill: #5f4b8b; stroke: #000000"/>
    </g>
    <g clip-path="url(#p20077b1fc9)">
     <use xlink:href="#C3_0_af32d03f07" x="245.874572" y="261.897358" style="fill: #5f4b8b; stroke: #000000"/>
    </g>
    <g clip-path="url(#p20077b1fc9)">
     <use xlink:href="#C3_0_af32d03f07" x="246.983806" y="268.715678" style="fill: #5f4b8b; stroke: #000000"/>
    </g>
    <g clip-path="url(#p20077b1fc9)">
     <use xlink:href="#C3_0_af32d03f07" x="245.160827" y="240.888129" style="fill: #5f4b8b; stroke: #000000"/>
    </g>
    <g clip-path="url(#p20077b1fc9)">
     <use xlink:href="#C3_0_af32d03f07" x="245.9545" y="210.307864" style="fill: #5f4b8b; stroke: #000000"/>
    </g>
    <g clip-path="url(#p20077b1fc9)">
     <use xlink:href="#C3_0_af32d03f07" x="239.813205" y="240.578764" style="fill: #5f4b8b; stroke: #000000"/>
    </g>
    <g clip-path="url(#p20077b1fc9)">
     <use xlink:href="#C3_0_af32d03f07" x="246.043988" y="214.600003" style="fill: #5f4b8b; stroke: #000000"/>
    </g>
    <g clip-path="url(#p20077b1fc9)">
     <use xlink:href="#C3_0_af32d03f07" x="239.809916" y="256.212076" style="fill: #5f4b8b; stroke: #000000"/>
    </g>
    <g clip-path="url(#p20077b1fc9)">
     <use xlink:href="#C3_0_af32d03f07" x="251.106097" y="242.145249" style="fill: #5f4b8b; stroke: #000000"/>
    </g>
    <g clip-path="url(#p20077b1fc9)">
     <use xlink:href="#C3_0_af32d03f07" x="243.404136" y="246.679539" style="fill: #5f4b8b; stroke: #000000"/>
    </g>
    <g clip-path="url(#p20077b1fc9)">
     <use xlink:href="#C3_0_af32d03f07" x="245.221173" y="276.974996" style="fill: #5f4b8b; stroke: #000000"/>
    </g>
   </g>
   <g id="PathCollection_7">
    <defs>
     <path id="C4_0_0021ccc14b" d="M 0 5 
C 1.326016 5 2.597899 4.473168 3.535534 3.535534 
C 4.473168 2.597899 5 1.326016 5 -0 
C 5 -1.326016 4.473168 -2.597899 3.535534 -3.535534 
C 2.597899 -4.473168 1.326016 -5 0 -5 
C -1.326016 -5 -2.597899 -4.473168 -3.535534 -3.535534 
C -4.473168 -2.597899 -5 -1.326016 -5 0 
C -5 1.326016 -4.473168 2.597899 -3.535534 3.535534 
C -2.597899 4.473168 -1.326016 5 0 5 
z
"/>
    </defs>
    <g clip-path="url(#p20077b1fc9)">
     <use xlink:href="#C4_0_0021ccc14b" x="312.551634" y="191.440064" style="fill: #e69a8d; stroke: #000000"/>
    </g>
    <g clip-path="url(#p20077b1fc9)">
     <use xlink:href="#C4_0_0021ccc14b" x="310.879203" y="175.405179" style="fill: #e69a8d; stroke: #000000"/>
    </g>
    <g clip-path="url(#p20077b1fc9)">
     <use xlink:href="#C4_0_0021ccc14b" x="316.810577" y="186.897934" style="fill: #e69a8d; stroke: #000000"/>
    </g>
    <g clip-path="url(#p20077b1fc9)">
     <use xlink:href="#C4_0_0021ccc14b" x="311.712801" y="226.415114" style="fill: #e69a8d; stroke: #000000"/>
    </g>
    <g clip-path="url(#p20077b1fc9)">
     <use xlink:href="#C4_0_0021ccc14b" x="317.301863" y="204.083017" style="fill: #e69a8d; stroke: #000000"/>
    </g>
    <g clip-path="url(#p20077b1fc9)">
     <use xlink:href="#C4_0_0021ccc14b" x="322.10957" y="174.686093" style="fill: #e69a8d; stroke: #000000"/>
    </g>
    <g clip-path="url(#p20077b1fc9)">
     <use xlink:href="#C4_0_0021ccc14b" x="321.338438" y="178.752478" style="fill: #e69a8d; stroke: #000000"/>
    </g>
   </g>
   <g id="PathCollection_8">
    <defs>
     <path id="C5_0_f9b3f8519e" d="M 0 5 
C 1.326016 5 2.597899 4.473168 3.535534 3.535534 
C 4.473168 2.597899 5 1.326016 5 -0 
C 5 -1.326016 4.473168 -2.597899 3.535534 -3.535534 
C 2.597899 -4.473168 1.326016 -5 0 -5 
C -1.326016 -5 -2.597899 -4.473168 -3.535534 -3.535534 
C -4.473168 -2.597899 -5 -1.326016 -5 0 
C -5 1.326016 -4.473168 2.597899 -3.535534 3.535534 
C -2.597899 4.473168 -1.326016 5 0 5 
z
"/>
    </defs>
    <g clip-path="url(#p20077b1fc9)">
     <use xlink:href="#C5_0_f9b3f8519e" x="360.801658" y="269.948245" style="fill: #5f4b8b; stroke: #000000"/>
    </g>
    <g clip-path="url(#p20077b1fc9)">
     <use xlink:href="#C5_0_f9b3f8519e" x="359.90329" y="245.412595" style="fill: #5f4b8b; stroke: #000000"/>
    </g>
    <g clip-path="url(#p20077b1fc9)">
     <use xlink:href="#C5_0_f9b3f8519e" x="365.007601" y="245.703347" style="fill: #5f4b8b; stroke: #000000"/>
    </g>
    <g clip-path="url(#p20077b1fc9)">
     <use xlink:href="#C5_0_f9b3f8519e" x="362.100167" y="285.199725" style="fill: #5f4b8b; stroke: #000000"/>
    </g>
    <g clip-path="url(#p20077b1fc9)">
     <use xlink:href="#C5_0_f9b3f8519e" x="367.352576" y="193.519828" style="fill: #5f4b8b; stroke: #000000"/>
    </g>
   </g>
   <g id="text_13">
    <text style="font: 10px 'DejaVu Sans', 'Bitstream Vera Sans', 'Computer Modern Sans Serif', 'Lucida Grande', 'Verdana', 'Geneva', 'Lucid', 'Arial', 'Helvetica', 'Avant Garde', sans-serif; text-anchor: middle" x="221.458438" y="14.798438" transform="rotate(-0 221.458438 14.798438)">****</text>
   </g>
   <g id="text_14">
    <text style="font: 10px 'DejaVu Sans', 'Bitstream Vera Sans', 'Computer Modern Sans Serif', 'Lucida Grande', 'Verdana', 'Geneva', 'Lucid', 'Arial', 'Helvetica', 'Avant Garde', sans-serif; text-anchor: middle" x="102.418438" y="14.798438" transform="rotate(-0 102.418438 14.798438)">**</text>
   </g>
   <g id="text_15">
    <text style="font: 10px 'DejaVu Sans', 'Bitstream Vera Sans', 'Computer Modern Sans Serif', 'Lucida Grande', 'Verdana', 'Geneva', 'Lucid', 'Arial', 'Helvetica', 'Avant Garde', sans-serif; text-anchor: middle" x="340.498438" y="14.798438" transform="rotate(-0 340.498438 14.798438)">*</text>
   </g>
   <g id="legend_1">
    <g id="patch_15">
     <path d="M 334.124688 112.57435 
L 393.018438 112.57435 
Q 395.018438 112.57435 395.018438 110.57435 
L 395.018438 38.183725 
Q 395.018438 36.183725 393.018438 36.183725 
L 334.124688 36.183725 
Q 332.124688 36.183725 332.124688 38.183725 
L 332.124688 110.57435 
Q 332.124688 112.57435 334.124688 112.57435 
z
" style="fill: #ffffff; opacity: 0.8; stroke: #cccccc; stroke-linejoin: miter"/>
    </g>
    <g id="text_16">
     <text style="font: 10px 'DejaVu Sans', 'Bitstream Vera Sans', 'Computer Modern Sans Serif', 'Lucida Grande', 'Verdana', 'Geneva', 'Lucid', 'Arial', 'Helvetica', 'Avant Garde', sans-serif; text-anchor: start" x="339.922344" y="47.782163" transform="rotate(-0 339.922344 47.782163)">genotype</text>
    </g>
    <g id="patch_16">
     <path d="M 336.124688 62.460288 
L 356.124688 62.460288 
L 356.124688 55.460288 
L 336.124688 55.460288 
z
" style="fill: #dba298; stroke: #404040; stroke-width: 0.75; stroke-linejoin: miter"/>
    </g>
    <g id="text_17">
     <text style="font: 10px 'DejaVu Sans', 'Bitstream Vera Sans', 'Computer Modern Sans Serif', 'Lucida Grande', 'Verdana', 'Geneva', 'Lucid', 'Arial', 'Helvetica', 'Avant Garde', sans-serif; text-anchor: start" x="364.124688" y="62.460288" transform="rotate(-0 364.124688 62.460288)">B6</text>
    </g>
    <g id="patch_17">
     <path d="M 336.124688 77.138413 
L 356.124688 77.138413 
L 356.124688 70.138413 
L 336.124688 70.138413 
z
" style="fill: #625383; stroke: #404040; stroke-width: 0.75; stroke-linejoin: miter"/>
    </g>
    <g id="text_18">
     <text style="font: 10px 'DejaVu Sans', 'Bitstream Vera Sans', 'Computer Modern Sans Serif', 'Lucida Grande', 'Verdana', 'Geneva', 'Lucid', 'Arial', 'Helvetica', 'Avant Garde', sans-serif; text-anchor: start" x="364.124688" y="77.138413" transform="rotate(-0 364.124688 77.138413)">3XTG</text>
    </g>
    <g id="PathCollection_9">
     <defs>
      <path id="mc835bc8354" d="M 0 3.872983 
C 1.027127 3.872983 2.012324 3.464901 2.738613 2.738613 
C 3.464901 2.012324 3.872983 1.027127 3.872983 0 
C 3.872983 -1.027127 3.464901 -2.012324 2.738613 -2.738613 
C 2.012324 -3.464901 1.027127 -3.872983 0 -3.872983 
C -1.027127 -3.872983 -2.012324 -3.464901 -2.738613 -2.738613 
C -3.464901 -2.012324 -3.872983 -1.027127 -3.872983 0 
C -3.872983 1.027127 -3.464901 2.012324 -2.738613 2.738613 
C -2.012324 3.464901 -1.027127 3.872983 0 3.872983 
z
" style="stroke: #e69a8d"/>
     </defs>
     <g>
      <use xlink:href="#mc835bc8354" x="346.124688" y="89.191538" style="fill: #e69a8d; stroke: #e69a8d"/>
     </g>
    </g>
    <g id="text_19">
     <text style="font: 10px 'DejaVu Sans', 'Bitstream Vera Sans', 'Computer Modern Sans Serif', 'Lucida Grande', 'Verdana', 'Geneva', 'Lucid', 'Arial', 'Helvetica', 'Avant Garde', sans-serif; text-anchor: start" x="364.124688" y="91.816538" transform="rotate(-0 364.124688 91.816538)">B6</text>
    </g>
    <g id="PathCollection_10">
     <defs>
      <path id="m5b80d2f2b1" d="M 0 3.872983 
C 1.027127 3.872983 2.012324 3.464901 2.738613 2.738613 
C 3.464901 2.012324 3.872983 1.027127 3.872983 0 
C 3.872983 -1.027127 3.464901 -2.012324 2.738613 -2.738613 
C 2.012324 -3.464901 1.027127 -3.872983 0 -3.872983 
C -1.027127 -3.872983 -2.012324 -3.464901 -2.738613 -2.738613 
C -3.464901 -2.012324 -3.872983 -1.027127 -3.872983 0 
C -3.872983 1.027127 -3.464901 2.012324 -2.738613 2.738613 
C -2.012324 3.464901 -1.027127 3.872983 0 3.872983 
z
" style="stroke: #5f4b8b"/>
     </defs>
     <g>
      <use xlink:href="#m5b80d2f2b1" x="346.124688" y="103.869663" style="fill: #5f4b8b; stroke: #5f4b8b"/>
     </g>
    </g>
    <g id="text_20">
     <text style="font: 10px 'DejaVu Sans', 'Bitstream Vera Sans', 'Computer Modern Sans Serif', 'Lucida Grande', 'Verdana', 'Geneva', 'Lucid', 'Arial', 'Helvetica', 'Avant Garde', sans-serif; text-anchor: start" x="364.124688" y="106.494663" transform="rotate(-0 364.124688 106.494663)">3XTG</text>
    </g>
   </g>
  </g>
 </g>
 <defs>
  <clipPath id="p20077b1fc9">
   <rect x="42.898438" y="31.183725" width="357.12" height="266.112"/>
  </clipPath>
 </defs>
</svg>
