<?xml version="1.0" encoding="utf-8" standalone="no"?>
<!DOCTYPE svg PUBLIC "-//W3C//DTD SVG 1.1//EN"
  "http://www.w3.org/Graphics/SVG/1.1/DTD/svg11.dtd">
<svg xmlns:xlink="http://www.w3.org/1999/xlink" width="475.112188pt" height="310.86825pt" viewBox="0 0 475.112188 310.86825" xmlns="http://www.w3.org/2000/svg" version="1.1">
 <metadata>
  <rdf:RDF xmlns:dc="http://purl.org/dc/elements/1.1/" xmlns:cc="http://creativecommons.org/ns#" xmlns:rdf="http://www.w3.org/1999/02/22-rdf-syntax-ns#">
   <cc:Work>
    <dc:type rdf:resource="http://purl.org/dc/dcmitype/StillImage"/>
    <dc:date>2024-10-14T23:05:20.706031</dc:date>
    <dc:format>image/svg+xml</dc:format>
    <dc:creator>
     <cc:Agent>
      <dc:title>Matplotlib v3.7.3, https://matplotlib.org/</dc:title>
     </cc:Agent>
    </dc:creator>
   </cc:Work>
  </rdf:RDF>
 </metadata>
 <defs>
  <style type="text/css">*{stroke-linejoin: round; stroke-linecap: butt}</style>
 </defs>
 <g id="figure_1">
  <g id="patch_1">
   <path d="M 0 310.86825 
L 475.112188 310.86825 
L 475.112188 0 
L 0 0 
z
" style="fill: #ffffff"/>
  </g>
  <g id="axes_1">
   <g id="patch_2">
    <path d="M 42.898438 273.312 
L 400.018438 273.312 
L 400.018438 7.2 
L 42.898438 7.2 
z
" style="fill: #ffffff"/>
   </g>
   <g id="PolyCollection_1">
    <defs>
     <path id="ma220465c63" d="M 59.131165 -80.271945 
L 59.131165 -62.910374 
L 82.320775 -89.323111 
L 105.510386 -51.61996 
L 128.699996 -72.069346 
L 151.889606 -74.288409 
L 175.079217 -100.961026 
L 198.268827 -57.830376 
L 221.458438 -103.840008 
L 244.648048 -60.800067 
L 267.837658 -74.545289 
L 291.027269 -57.399373 
L 314.216879 -49.65225 
L 337.406489 -77.691548 
L 360.5961 -76.281235 
L 383.78571 -77.729656 
L 383.78571 -113.018997 
L 383.78571 -113.018997 
L 360.5961 -127.426076 
L 337.406489 -118.385828 
L 314.216879 -68.293758 
L 291.027269 -97.119831 
L 267.837658 -102.155427 
L 244.648048 -88.735813 
L 221.458438 -153.294741 
L 198.268827 -78.211882 
L 175.079217 -128.880062 
L 151.889606 -100.018924 
L 128.699996 -91.470776 
L 105.510386 -68.322662 
L 82.320775 -109.553758 
L 59.131165 -80.271945 
z
" style="stroke: #5f4b8b; stroke-opacity: 0.2"/>
    </defs>
    <g clip-path="url(#p42ada9d3e3)">
     <use xlink:href="#ma220465c63" x="0" y="310.86825" style="fill: #5f4b8b; fill-opacity: 0.2; stroke: #5f4b8b; stroke-opacity: 0.2"/>
    </g>
   </g>
   <g id="PolyCollection_2">
    <defs>
     <path id="m841a3598ee" d="M 59.131165 -291.57225 
L 59.131165 -282.982989 
L 82.320775 -271.80321 
L 105.510386 -274.895501 
L 128.699996 -262.712489 
L 151.889606 -257.211484 
L 175.079217 -248.799467 
L 198.268827 -203.067502 
L 221.458438 -207.829461 
L 244.648048 -179.602456 
L 267.837658 -212.305727 
L 291.027269 -182.662765 
L 314.216879 -212.942266 
L 337.406489 -173.869574 
L 383.78571 -129.898372 
L 383.78571 -146.453793 
L 383.78571 -146.453793 
L 337.406489 -182.646842 
L 314.216879 -233.230888 
L 291.027269 -204.632866 
L 267.837658 -249.414113 
L 244.648048 -230.382905 
L 221.458438 -246.200264 
L 198.268827 -226.129603 
L 175.079217 -258.611421 
L 151.889606 -270.49494 
L 128.699996 -281.90923 
L 105.510386 -290.653359 
L 82.320775 -286.565221 
L 59.131165 -291.57225 
z
" style="stroke: #e69a8d; stroke-opacity: 0.2"/>
    </defs>
    <g clip-path="url(#p42ada9d3e3)">
     <use xlink:href="#m841a3598ee" x="0" y="310.86825" style="fill: #e69a8d; fill-opacity: 0.2; stroke: #e69a8d; stroke-opacity: 0.2"/>
    </g>
   </g>
   <g id="matplotlib.axis_1">
    <g id="xtick_1">
     <g id="line2d_1">
      <defs>
       <path id="ma67feca9e3" d="M 0 0 
L 0 3.5 
" style="stroke: #000000; stroke-width: 0.8"/>
      </defs>
      <g>
       <use xlink:href="#ma67feca9e3" x="82.320775" y="273.312" style="stroke: #000000; stroke-width: 0.8"/>
      </g>
     </g>
     <g id="text_1">
      <text style="font: 10px 'DejaVu Sans', 'Bitstream Vera Sans', 'Computer Modern Sans Serif', 'Lucida Grande', 'Verdana', 'Geneva', 'Lucid', 'Arial', 'Helvetica', 'Avant Garde', sans-serif; text-anchor: middle" x="82.320775" y="287.910437" transform="rotate(-0 82.320775 287.910437)">2</text>
     </g>
    </g>
    <g id="xtick_2">
     <g id="line2d_2">
      <g>
       <use xlink:href="#ma67feca9e3" x="128.699996" y="273.312" style="stroke: #000000; stroke-width: 0.8"/>
      </g>
     </g>
     <g id="text_2">
      <text style="font: 10px 'DejaVu Sans', 'Bitstream Vera Sans', 'Computer Modern Sans Serif', 'Lucida Grande', 'Verdana', 'Geneva', 'Lucid', 'Arial', 'Helvetica', 'Avant Garde', sans-serif; text-anchor: middle" x="128.699996" y="287.910437" transform="rotate(-0 128.699996 287.910437)">4</text>
     </g>
    </g>
    <g id="xtick_3">
     <g id="line2d_3">
      <g>
       <use xlink:href="#ma67feca9e3" x="175.079217" y="273.312" style="stroke: #000000; stroke-width: 0.8"/>
      </g>
     </g>
     <g id="text_3">
      <text style="font: 10px 'DejaVu Sans', 'Bitstream Vera Sans', 'Computer Modern Sans Serif', 'Lucida Grande', 'Verdana', 'Geneva', 'Lucid', 'Arial', 'Helvetica', 'Avant Garde', sans-serif; text-anchor: middle" x="175.079217" y="287.910437" transform="rotate(-0 175.079217 287.910437)">6</text>
     </g>
    </g>
    <g id="xtick_4">
     <g id="line2d_4">
      <g>
       <use xlink:href="#ma67feca9e3" x="221.458438" y="273.312" style="stroke: #000000; stroke-width: 0.8"/>
      </g>
     </g>
     <g id="text_4">
      <text style="font: 10px 'DejaVu Sans', 'Bitstream Vera Sans', 'Computer Modern Sans Serif', 'Lucida Grande', 'Verdana', 'Geneva', 'Lucid', 'Arial', 'Helvetica', 'Avant Garde', sans-serif; text-anchor: middle" x="221.458438" y="287.910437" transform="rotate(-0 221.458438 287.910437)">8</text>
     </g>
    </g>
    <g id="xtick_5">
     <g id="line2d_5">
      <g>
       <use xlink:href="#ma67feca9e3" x="267.837658" y="273.312" style="stroke: #000000; stroke-width: 0.8"/>
      </g>
     </g>
     <g id="text_5">
      <text style="font: 10px 'DejaVu Sans', 'Bitstream Vera Sans', 'Computer Modern Sans Serif', 'Lucida Grande', 'Verdana', 'Geneva', 'Lucid', 'Arial', 'Helvetica', 'Avant Garde', sans-serif; text-anchor: middle" x="267.837658" y="287.910437" transform="rotate(-0 267.837658 287.910437)">10</text>
     </g>
    </g>
    <g id="xtick_6">
     <g id="line2d_6">
      <g>
       <use xlink:href="#ma67feca9e3" x="314.216879" y="273.312" style="stroke: #000000; stroke-width: 0.8"/>
      </g>
     </g>
     <g id="text_6">
      <text style="font: 10px 'DejaVu Sans', 'Bitstream Vera Sans', 'Computer Modern Sans Serif', 'Lucida Grande', 'Verdana', 'Geneva', 'Lucid', 'Arial', 'Helvetica', 'Avant Garde', sans-serif; text-anchor: middle" x="314.216879" y="287.910437" transform="rotate(-0 314.216879 287.910437)">12</text>
     </g>
    </g>
    <g id="xtick_7">
     <g id="line2d_7">
      <g>
       <use xlink:href="#ma67feca9e3" x="360.5961" y="273.312" style="stroke: #000000; stroke-width: 0.8"/>
      </g>
     </g>
     <g id="text_7">
      <text style="font: 10px 'DejaVu Sans', 'Bitstream Vera Sans', 'Computer Modern Sans Serif', 'Lucida Grande', 'Verdana', 'Geneva', 'Lucid', 'Arial', 'Helvetica', 'Avant Garde', sans-serif; text-anchor: middle" x="360.5961" y="287.910437" transform="rotate(-0 360.5961 287.910437)">14</text>
     </g>
    </g>
    <g id="text_8">
     <text style="font: 10px 'DejaVu Sans', 'Bitstream Vera Sans', 'Computer Modern Sans Serif', 'Lucida Grande', 'Verdana', 'Geneva', 'Lucid', 'Arial', 'Helvetica', 'Avant Garde', sans-serif; text-anchor: middle" x="221.458438" y="301.588562" transform="rotate(-0 221.458438 301.588562)">Host Age (months)</text>
    </g>
   </g>
   <g id="matplotlib.axis_2">
    <g id="ytick_1">
     <g id="line2d_8">
      <defs>
       <path id="me091670af6" d="M 0 0 
L -3.5 0 
" style="stroke: #000000; stroke-width: 0.8"/>
      </defs>
      <g>
       <use xlink:href="#me091670af6" x="42.898438" y="233.475504" style="stroke: #000000; stroke-width: 0.8"/>
      </g>
     </g>
     <g id="text_9">
      <text style="font: 10px 'DejaVu Sans', 'Bitstream Vera Sans', 'Computer Modern Sans Serif', 'Lucida Grande', 'Verdana', 'Geneva', 'Lucid', 'Arial', 'Helvetica', 'Avant Garde', sans-serif; text-anchor: end" x="35.898438" y="237.274722" transform="rotate(-0 35.898438 237.274722)">−6</text>
     </g>
    </g>
    <g id="ytick_2">
     <g id="line2d_9">
      <g>
       <use xlink:href="#me091670af6" x="42.898438" y="193.233916" style="stroke: #000000; stroke-width: 0.8"/>
      </g>
     </g>
     <g id="text_10">
      <text style="font: 10px 'DejaVu Sans', 'Bitstream Vera Sans', 'Computer Modern Sans Serif', 'Lucida Grande', 'Verdana', 'Geneva', 'Lucid', 'Arial', 'Helvetica', 'Avant Garde', sans-serif; text-anchor: end" x="35.898438" y="197.033135" transform="rotate(-0 35.898438 197.033135)">−4</text>
     </g>
    </g>
    <g id="ytick_3">
     <g id="line2d_10">
      <g>
       <use xlink:href="#me091670af6" x="42.898438" y="152.992329" style="stroke: #000000; stroke-width: 0.8"/>
      </g>
     </g>
     <g id="text_11">
      <text style="font: 10px 'DejaVu Sans', 'Bitstream Vera Sans', 'Computer Modern Sans Serif', 'Lucida Grande', 'Verdana', 'Geneva', 'Lucid', 'Arial', 'Helvetica', 'Avant Garde', sans-serif; text-anchor: end" x="35.898438" y="156.791548" transform="rotate(-0 35.898438 156.791548)">−2</text>
     </g>
    </g>
    <g id="ytick_4">
     <g id="line2d_11">
      <g>
       <use xlink:href="#me091670af6" x="42.898438" y="112.750742" style="stroke: #000000; stroke-width: 0.8"/>
      </g>
     </g>
     <g id="text_12">
      <text style="font: 10px 'DejaVu Sans', 'Bitstream Vera Sans', 'Computer Modern Sans Serif', 'Lucida Grande', 'Verdana', 'Geneva', 'Lucid', 'Arial', 'Helvetica', 'Avant Garde', sans-serif; text-anchor: end" x="35.898438" y="116.54996" transform="rotate(-0 35.898438 116.54996)">0</text>
     </g>
    </g>
    <g id="ytick_5">
     <g id="line2d_12">
      <g>
       <use xlink:href="#me091670af6" x="42.898438" y="72.509154" style="stroke: #000000; stroke-width: 0.8"/>
      </g>
     </g>
     <g id="text_13">
      <text style="font: 10px 'DejaVu Sans', 'Bitstream Vera Sans', 'Computer Modern Sans Serif', 'Lucida Grande', 'Verdana', 'Geneva', 'Lucid', 'Arial', 'Helvetica', 'Avant Garde', sans-serif; text-anchor: end" x="35.898438" y="76.308373" transform="rotate(-0 35.898438 76.308373)">2</text>
     </g>
    </g>
    <g id="ytick_6">
     <g id="line2d_13">
      <g>
       <use xlink:href="#me091670af6" x="42.898438" y="32.267567" style="stroke: #000000; stroke-width: 0.8"/>
      </g>
     </g>
     <g id="text_14">
      <text style="font: 10px 'DejaVu Sans', 'Bitstream Vera Sans', 'Computer Modern Sans Serif', 'Lucida Grande', 'Verdana', 'Geneva', 'Lucid', 'Arial', 'Helvetica', 'Avant Garde', sans-serif; text-anchor: end" x="35.898438" y="36.066786" transform="rotate(-0 35.898438 36.066786)">4</text>
     </g>
    </g>
    <g id="text_15">
     <text style="font: 10px 'DejaVu Sans', 'Bitstream Vera Sans', 'Computer Modern Sans Serif', 'Lucida Grande', 'Verdana', 'Geneva', 'Lucid', 'Arial', 'Helvetica', 'Avant Garde', sans-serif; text-anchor: middle" x="14.798438" y="140.256" transform="rotate(-90 14.798438 140.256)">Current_Natural_Log_Ratio</text>
    </g>
   </g>
   <g id="line2d_14">
    <path d="M 59.131165 239.476382 
L 82.320775 211.099486 
L 105.510386 250.730757 
L 128.699996 229.329892 
L 151.889606 223.202244 
L 175.079217 195.180637 
L 198.268827 243.120456 
L 221.458438 181.457021 
L 244.648048 235.762088 
L 267.837658 221.764368 
L 291.027269 234.504879 
L 314.216879 251.80784 
L 337.406489 211.155852 
L 360.5961 209.014594 
L 383.78571 217.021036 
" clip-path="url(#p42ada9d3e3)" style="fill: none; stroke: #5f4b8b; stroke-width: 1.5; stroke-linecap: square"/>
   </g>
   <g id="line2d_15">
    <path d="M 59.131165 23.206469 
L 82.320775 31.497886 
L 105.510386 27.952576 
L 128.699996 38.762763 
L 151.889606 47.066187 
L 175.079217 57.172773 
L 198.268827 96.317407 
L 221.458438 83.456676 
L 244.648048 105.152842 
L 267.837658 79.940253 
L 291.027269 117.555544 
L 314.216879 88.039103 
L 337.406489 132.610042 
L 383.78571 172.9298 
" clip-path="url(#p42ada9d3e3)" style="fill: none; stroke: #e69a8d; stroke-width: 1.5; stroke-linecap: square"/>
   </g>
   <g id="line2d_16"/>
   <g id="line2d_17"/>
   <g id="patch_3">
    <path d="M 42.898438 273.312 
L 42.898438 7.2 
" style="fill: none; stroke: #000000; stroke-width: 0.8; stroke-linejoin: miter; stroke-linecap: square"/>
   </g>
   <g id="patch_4">
    <path d="M 400.018438 273.312 
L 400.018438 7.2 
" style="fill: none; stroke: #000000; stroke-width: 0.8; stroke-linejoin: miter; stroke-linecap: square"/>
   </g>
   <g id="patch_5">
    <path d="M 42.898438 273.312 
L 400.018438 273.312 
" style="fill: none; stroke: #000000; stroke-width: 0.8; stroke-linejoin: miter; stroke-linecap: square"/>
   </g>
   <g id="patch_6">
    <path d="M 42.898438 7.2 
L 400.018438 7.2 
" style="fill: none; stroke: #000000; stroke-width: 0.8; stroke-linejoin: miter; stroke-linecap: square"/>
   </g>
   <g id="legend_1">
    <g id="patch_7">
     <path d="M 407.018438 59.234375 
L 465.912188 59.234375 
Q 467.912188 59.234375 467.912188 57.234375 
L 467.912188 14.2 
Q 467.912188 12.2 465.912188 12.2 
L 407.018438 12.2 
Q 405.018438 12.2 405.018438 14.2 
L 405.018438 57.234375 
Q 405.018438 59.234375 407.018438 59.234375 
z
" style="fill: #ffffff; opacity: 0.8; stroke: #cccccc; stroke-linejoin: miter"/>
    </g>
    <g id="text_16">
     <text style="font: 10px 'DejaVu Sans', 'Bitstream Vera Sans', 'Computer Modern Sans Serif', 'Lucida Grande', 'Verdana', 'Geneva', 'Lucid', 'Arial', 'Helvetica', 'Avant Garde', sans-serif; text-anchor: start" x="412.816094" y="23.798437" transform="rotate(-0 412.816094 23.798437)">genotype</text>
    </g>
    <g id="line2d_18">
     <path d="M 409.018438 34.976562 
L 419.018438 34.976562 
L 429.018438 34.976562 
" style="fill: none; stroke: #5f4b8b; stroke-width: 1.5; stroke-linecap: square"/>
    </g>
    <g id="text_17">
     <text style="font: 10px 'DejaVu Sans', 'Bitstream Vera Sans', 'Computer Modern Sans Serif', 'Lucida Grande', 'Verdana', 'Geneva', 'Lucid', 'Arial', 'Helvetica', 'Avant Garde', sans-serif; text-anchor: start" x="437.018438" y="38.476562" transform="rotate(-0 437.018438 38.476562)">3XTG</text>
    </g>
    <g id="line2d_19">
     <path d="M 409.018438 49.654688 
L 419.018438 49.654688 
L 429.018438 49.654688 
" style="fill: none; stroke: #e69a8d; stroke-width: 1.5; stroke-linecap: square"/>
    </g>
    <g id="text_18">
     <text style="font: 10px 'DejaVu Sans', 'Bitstream Vera Sans', 'Computer Modern Sans Serif', 'Lucida Grande', 'Verdana', 'Geneva', 'Lucid', 'Arial', 'Helvetica', 'Avant Garde', sans-serif; text-anchor: start" x="437.018438" y="53.154688" transform="rotate(-0 437.018438 53.154688)">B6</text>
    </g>
   </g>
  </g>
 </g>
 <defs>
  <clipPath id="p42ada9d3e3">
   <rect x="42.898438" y="7.2" width="357.12" height="266.112"/>
  </clipPath>
 </defs>
</svg>
