<?xml version="1.0" encoding="utf-8" standalone="no"?>
<!DOCTYPE svg PUBLIC "-//W3C//DTD SVG 1.1//EN"
  "http://www.w3.org/Graphics/SVG/1.1/DTD/svg11.dtd">
<svg xmlns:xlink="http://www.w3.org/1999/xlink" width="511.123125pt" height="326.2645pt" viewBox="0 0 511.123125 326.2645" xmlns="http://www.w3.org/2000/svg" version="1.1">
 <metadata>
  <rdf:RDF xmlns:dc="http://purl.org/dc/elements/1.1/" xmlns:cc="http://creativecommons.org/ns#" xmlns:rdf="http://www.w3.org/1999/02/22-rdf-syntax-ns#">
   <cc:Work>
    <dc:type rdf:resource="http://purl.org/dc/dcmitype/StillImage"/>
    <dc:date>2024-12-10T17:23:43.946246</dc:date>
    <dc:format>image/svg+xml</dc:format>
    <dc:creator>
     <cc:Agent>
      <dc:title>Matplotlib v3.7.3, https://matplotlib.org/</dc:title>
     </cc:Agent>
    </dc:creator>
   </cc:Work>
  </rdf:RDF>
 </metadata>
 <defs>
  <style type="text/css">*{stroke-linejoin: round; stroke-linecap: butt}</style>
 </defs>
 <g id="figure_1">
  <g id="patch_1">
   <path d="M 0 326.2645 
L 511.123125 326.2645 
L 511.123125 0 
L 0 0 
z
" style="fill: #ffffff"/>
  </g>
  <g id="axes_1">
   <g id="patch_2">
    <path d="M 52.439063 288.430125 
L 409.559062 288.430125 
L 409.559062 22.318125 
L 52.439063 22.318125 
z
" style="fill: #ffffff"/>
   </g>
   <g id="PathCollection_1">
    <path d="M 201.901865 188.251229 
C 203.011289 188.251229 204.075423 187.81045 204.859904 187.025968 
C 205.644386 186.241487 206.085165 185.177353 206.085165 184.067929 
C 206.085165 182.958504 205.644386 181.89437 204.859904 181.109889 
C 204.075423 180.325407 203.011289 179.884628 201.901865 179.884628 
C 200.79244 179.884628 199.728306 180.325407 198.943825 181.109889 
C 198.159343 181.89437 197.718564 182.958504 197.718564 184.067929 
C 197.718564 185.177353 198.159343 186.241487 198.943825 187.025968 
C 199.728306 187.81045 200.79244 188.251229 201.901865 188.251229 
z
" clip-path="url(#pdad930cd07)" style="fill: #e69a8d; stroke: #ffffff; stroke-width: 0.669328"/>
    <path d="M 305.874461 237.433184 
C 306.983886 237.433184 308.04802 236.992405 308.832501 236.207923 
C 309.616983 235.423442 310.057762 234.359308 310.057762 233.249883 
C 310.057762 232.140459 309.616983 231.076325 308.832501 230.291844 
C 308.04802 229.507362 306.983886 229.066583 305.874461 229.066583 
C 304.765037 229.066583 303.700903 229.507362 302.916422 230.291844 
C 302.13194 231.076325 301.691161 232.140459 301.691161 233.249883 
C 301.691161 234.359308 302.13194 235.423442 302.916422 236.207923 
C 303.700903 236.992405 304.765037 237.433184 305.874461 237.433184 
z
" clip-path="url(#pdad930cd07)" style="fill: #e69a8d; stroke: #ffffff; stroke-width: 0.669328"/>
    <path d="M 326.504996 184.082033 
C 327.61442 184.082033 328.678554 183.641254 329.463035 182.856772 
C 330.247517 182.072291 330.688296 181.008157 330.688296 179.898733 
C 330.688296 178.789308 330.247517 177.725174 329.463035 176.940693 
C 328.678554 176.156211 327.61442 175.715432 326.504996 175.715432 
C 325.395571 175.715432 324.331437 176.156211 323.546956 176.940693 
C 322.762474 177.725174 322.321695 178.789308 322.321695 179.898733 
C 322.321695 181.008157 322.762474 182.072291 323.546956 182.856772 
C 324.331437 183.641254 325.395571 184.082033 326.504996 184.082033 
z
" clip-path="url(#pdad930cd07)" style="fill: #e69a8d; stroke: #ffffff; stroke-width: 0.669328"/>
    <path d="M 317.031723 241.866275 
C 318.141148 241.866275 319.205282 241.425496 319.989763 240.641015 
C 320.774245 239.856534 321.215024 238.792399 321.215024 237.682975 
C 321.215024 236.573551 320.774245 235.509417 319.989763 234.724935 
C 319.205282 233.940454 318.141148 233.499675 317.031723 233.499675 
C 315.922299 233.499675 314.858165 233.940454 314.073684 234.724935 
C 313.289202 235.509417 312.848423 236.573551 312.848423 237.682975 
C 312.848423 238.792399 313.289202 239.856534 314.073684 240.641015 
C 314.858165 241.425496 315.922299 241.866275 317.031723 241.866275 
z
" clip-path="url(#pdad930cd07)" style="fill: #e69a8d; stroke: #ffffff; stroke-width: 0.669328"/>
    <path d="M 262.767494 182.462136 
C 263.876918 182.462136 264.941052 182.021357 265.725534 181.236876 
C 266.510015 180.452394 266.950794 179.38826 266.950794 178.278836 
C 266.950794 177.169412 266.510015 176.105277 265.725534 175.320796 
C 264.941052 174.536315 263.876918 174.095536 262.767494 174.095536 
C 261.65807 174.095536 260.593935 174.536315 259.809454 175.320796 
C 259.024973 176.105277 258.584194 177.169412 258.584194 178.278836 
C 258.584194 179.38826 259.024973 180.452394 259.809454 181.236876 
C 260.593935 182.021357 261.65807 182.462136 262.767494 182.462136 
z
" clip-path="url(#pdad930cd07)" style="fill: #e69a8d; stroke: #ffffff; stroke-width: 0.669328"/>
    <path d="M 188.916862 196.451687 
C 190.026287 196.451687 191.090421 196.010908 191.874902 195.226426 
C 192.659384 194.441945 193.100162 193.377811 193.100162 192.268387 
C 193.100162 191.158962 192.659384 190.094828 191.874902 189.310347 
C 191.090421 188.525865 190.026287 188.085086 188.916862 188.085086 
C 187.807438 188.085086 186.743304 188.525865 185.958822 189.310347 
C 185.174341 190.094828 184.733562 191.158962 184.733562 192.268387 
C 184.733562 193.377811 185.174341 194.441945 185.958822 195.226426 
C 186.743304 196.010908 187.807438 196.451687 188.916862 196.451687 
z
" clip-path="url(#pdad930cd07)" style="fill: #5f4b8b; stroke: #ffffff; stroke-width: 0.669328"/>
    <path d="M 130.06629 196.595202 
C 131.175715 196.595202 132.239849 196.154423 133.02433 195.369942 
C 133.808812 194.58546 134.249591 193.521326 134.249591 192.411902 
C 134.249591 191.302478 133.808812 190.238343 133.02433 189.453862 
C 132.239849 188.669381 131.175715 188.228602 130.06629 188.228602 
C 128.956866 188.228602 127.892732 188.669381 127.108251 189.453862 
C 126.323769 190.238343 125.88299 191.302478 125.88299 192.411902 
C 125.88299 193.521326 126.323769 194.58546 127.108251 195.369942 
C 127.892732 196.154423 128.956866 196.595202 130.06629 196.595202 
z
" clip-path="url(#pdad930cd07)" style="fill: #e69a8d; stroke: #ffffff; stroke-width: 0.669328"/>
    <path d="M 180.849733 214.90543 
C 181.959157 214.90543 183.023291 214.464651 183.807773 213.68017 
C 184.592254 212.895688 185.033033 211.831554 185.033033 210.72213 
C 185.033033 209.612706 184.592254 208.548571 183.807773 207.76409 
C 183.023291 206.979609 181.959157 206.53883 180.849733 206.53883 
C 179.740309 206.53883 178.676174 206.979609 177.891693 207.76409 
C 177.107211 208.548571 176.666433 209.612706 176.666433 210.72213 
C 176.666433 211.831554 177.107211 212.895688 177.891693 213.68017 
C 178.676174 214.464651 179.740309 214.90543 180.849733 214.90543 
z
" clip-path="url(#pdad930cd07)" style="fill: #e69a8d; stroke: #ffffff; stroke-width: 0.669328"/>
    <path d="M 171.178169 178.35228 
C 172.287593 178.35228 173.351728 177.911502 174.136209 177.12702 
C 174.92069 176.342539 175.361469 175.278404 175.361469 174.16898 
C 175.361469 173.059556 174.92069 171.995422 174.136209 171.21094 
C 173.351728 170.426459 172.287593 169.98568 171.178169 169.98568 
C 170.068745 169.98568 169.004611 170.426459 168.220129 171.21094 
C 167.435648 171.995422 166.994869 173.059556 166.994869 174.16898 
C 166.994869 175.278404 167.435648 176.342539 168.220129 177.12702 
C 169.004611 177.911502 170.068745 178.35228 171.178169 178.35228 
z
" clip-path="url(#pdad930cd07)" style="fill: #e69a8d; stroke: #ffffff; stroke-width: 0.669328"/>
    <path d="M 315.545887 199.678917 
C 316.655311 199.678917 317.719446 199.238138 318.503927 198.453656 
C 319.288408 197.669175 319.729187 196.605041 319.729187 195.495617 
C 319.729187 194.386192 319.288408 193.322058 318.503927 192.537577 
C 317.719446 191.753095 316.655311 191.312316 315.545887 191.312316 
C 314.436463 191.312316 313.372328 191.753095 312.587847 192.537577 
C 311.803366 193.322058 311.362587 194.386192 311.362587 195.495617 
C 311.362587 196.605041 311.803366 197.669175 312.587847 198.453656 
C 313.372328 199.238138 314.436463 199.678917 315.545887 199.678917 
z
" clip-path="url(#pdad930cd07)" style="fill: #5f4b8b; stroke: #ffffff; stroke-width: 0.669328"/>
    <path d="M 246.907819 229.997968 
C 248.017243 229.997968 249.081377 229.55719 249.865859 228.772708 
C 250.65034 227.988227 251.091119 226.924093 251.091119 225.814668 
C 251.091119 224.705244 250.65034 223.64111 249.865859 222.856628 
C 249.081377 222.072147 248.017243 221.631368 246.907819 221.631368 
C 245.798395 221.631368 244.73426 222.072147 243.949779 222.856628 
C 243.165298 223.64111 242.724519 224.705244 242.724519 225.814668 
C 242.724519 226.924093 243.165298 227.988227 243.949779 228.772708 
C 244.73426 229.55719 245.798395 229.997968 246.907819 229.997968 
z
" clip-path="url(#pdad930cd07)" style="fill: #5f4b8b; stroke: #ffffff; stroke-width: 0.669328"/>
    <path d="M 152.663285 204.888418 
C 153.772709 204.888418 154.836843 204.447639 155.621324 203.663158 
C 156.405806 202.878677 156.846585 201.814542 156.846585 200.705118 
C 156.846585 199.595694 156.405806 198.531559 155.621324 197.747078 
C 154.836843 196.962597 153.772709 196.521818 152.663285 196.521818 
C 151.55386 196.521818 150.489726 196.962597 149.705245 197.747078 
C 148.920763 198.531559 148.479984 199.595694 148.479984 200.705118 
C 148.479984 201.814542 148.920763 202.878677 149.705245 203.663158 
C 150.489726 204.447639 151.55386 204.888418 152.663285 204.888418 
z
" clip-path="url(#pdad930cd07)" style="fill: #5f4b8b; stroke: #ffffff; stroke-width: 0.669328"/>
    <path d="M 268.035886 225.398172 
C 269.14531 225.398172 270.209445 224.957394 270.993926 224.172912 
C 271.778407 223.388431 272.219186 222.324296 272.219186 221.214872 
C 272.219186 220.105448 271.778407 219.041314 270.993926 218.256832 
C 270.209445 217.472351 269.14531 217.031572 268.035886 217.031572 
C 266.926462 217.031572 265.862328 217.472351 265.077846 218.256832 
C 264.293365 219.041314 263.852586 220.105448 263.852586 221.214872 
C 263.852586 222.324296 264.293365 223.388431 265.077846 224.172912 
C 265.862328 224.957394 266.926462 225.398172 268.035886 225.398172 
z
" clip-path="url(#pdad930cd07)" style="fill: #5f4b8b; stroke: #ffffff; stroke-width: 0.669328"/>
    <path d="M 252.387798 133.580154 
C 253.497222 133.580154 254.561356 133.139375 255.345838 132.354894 
C 256.130319 131.570413 256.571098 130.506278 256.571098 129.396854 
C 256.571098 128.28743 256.130319 127.223295 255.345838 126.438814 
C 254.561356 125.654333 253.497222 125.213554 252.387798 125.213554 
C 251.278374 125.213554 250.214239 125.654333 249.429758 126.438814 
C 248.645277 127.223295 248.204498 128.28743 248.204498 129.396854 
C 248.204498 130.506278 248.645277 131.570413 249.429758 132.354894 
C 250.214239 133.139375 251.278374 133.580154 252.387798 133.580154 
z
" clip-path="url(#pdad930cd07)" style="fill: #e69a8d; stroke: #ffffff; stroke-width: 0.669328"/>
    <path d="M 367.954032 199.673364 
C 369.063456 199.673364 370.12759 199.232585 370.912072 198.448104 
C 371.696553 197.663623 372.137332 196.599488 372.137332 195.490064 
C 372.137332 194.38064 371.696553 193.316506 370.912072 192.532024 
C 370.12759 191.747543 369.063456 191.306764 367.954032 191.306764 
C 366.844608 191.306764 365.780473 191.747543 364.995992 192.532024 
C 364.211511 193.316506 363.770732 194.38064 363.770732 195.490064 
C 363.770732 196.599488 364.211511 197.663623 364.995992 198.448104 
C 365.780473 199.232585 366.844608 199.673364 367.954032 199.673364 
z
" clip-path="url(#pdad930cd07)" style="fill: #e69a8d; stroke: #ffffff; stroke-width: 0.669328"/>
    <path d="M 299.842462 108.690241 
C 300.951886 108.690241 302.016021 108.249462 302.800502 107.464981 
C 303.584983 106.6805 304.025762 105.616365 304.025762 104.506941 
C 304.025762 103.397517 303.584983 102.333383 302.800502 101.548901 
C 302.016021 100.76442 300.951886 100.323641 299.842462 100.323641 
C 298.733038 100.323641 297.668903 100.76442 296.884422 101.548901 
C 296.099941 102.333383 295.659162 103.397517 295.659162 104.506941 
C 295.659162 105.616365 296.099941 106.6805 296.884422 107.464981 
C 297.668903 108.249462 298.733038 108.690241 299.842462 108.690241 
z
" clip-path="url(#pdad930cd07)" style="fill: #e69a8d; stroke: #ffffff; stroke-width: 0.669328"/>
    <path d="M 366.183982 157.352908 
C 367.293406 157.352908 368.357541 156.912129 369.142022 156.127647 
C 369.926503 155.343166 370.367282 154.279032 370.367282 153.169608 
C 370.367282 152.060183 369.926503 150.996049 369.142022 150.211568 
C 368.357541 149.427086 367.293406 148.986307 366.183982 148.986307 
C 365.074558 148.986307 364.010424 149.427086 363.225942 150.211568 
C 362.441461 150.996049 362.000682 152.060183 362.000682 153.169608 
C 362.000682 154.279032 362.441461 155.343166 363.225942 156.127647 
C 364.010424 156.912129 365.074558 157.352908 366.183982 157.352908 
z
" clip-path="url(#pdad930cd07)" style="fill: #5f4b8b; stroke: #ffffff; stroke-width: 0.669328"/>
    <path d="M 257.020404 185.160954 
C 258.129828 185.160954 259.193963 184.720175 259.978444 183.935694 
C 260.762926 183.151212 261.203704 182.087078 261.203704 180.977654 
C 261.203704 179.86823 260.762926 178.804095 259.978444 178.019614 
C 259.193963 177.235132 258.129828 176.794354 257.020404 176.794354 
C 255.91098 176.794354 254.846846 177.235132 254.062364 178.019614 
C 253.277883 178.804095 252.837104 179.86823 252.837104 180.977654 
C 252.837104 182.087078 253.277883 183.151212 254.062364 183.935694 
C 254.846846 184.720175 255.91098 185.160954 257.020404 185.160954 
z
" clip-path="url(#pdad930cd07)" style="fill: #e69a8d; stroke: #ffffff; stroke-width: 0.669328"/>
    <path d="M 334.783527 151.141154 
C 335.892951 151.141154 336.957086 150.700375 337.741567 149.915893 
C 338.526048 149.131412 338.966827 148.067278 338.966827 146.957854 
C 338.966827 145.848429 338.526048 144.784295 337.741567 143.999814 
C 336.957086 143.215332 335.892951 142.774553 334.783527 142.774553 
C 333.674103 142.774553 332.609969 143.215332 331.825487 143.999814 
C 331.041006 144.784295 330.600227 145.848429 330.600227 146.957854 
C 330.600227 148.067278 331.041006 149.131412 331.825487 149.915893 
C 332.609969 150.700375 333.674103 151.141154 334.783527 151.141154 
z
" clip-path="url(#pdad930cd07)" style="fill: #e69a8d; stroke: #ffffff; stroke-width: 0.669328"/>
    <path d="M 68.67179 153.210119 
C 69.781214 153.210119 70.845348 152.76934 71.62983 151.984859 
C 72.414311 151.200377 72.85509 150.136243 72.85509 149.026819 
C 72.85509 147.917394 72.414311 146.85326 71.62983 146.068779 
C 70.845348 145.284297 69.781214 144.843518 68.67179 144.843518 
C 67.562366 144.843518 66.498231 145.284297 65.71375 146.068779 
C 64.929269 146.85326 64.48849 147.917394 64.48849 149.026819 
C 64.48849 150.136243 64.929269 151.200377 65.71375 151.984859 
C 66.498231 152.76934 67.562366 153.210119 68.67179 153.210119 
z
" clip-path="url(#pdad930cd07)" style="fill: #e69a8d; stroke: #ffffff; stroke-width: 0.669328"/>
    <path d="M 180.284278 213.217133 
C 181.393702 213.217133 182.457837 212.776355 183.242318 211.991873 
C 184.026799 211.207392 184.467578 210.143257 184.467578 209.033833 
C 184.467578 207.924409 184.026799 206.860275 183.242318 206.075793 
C 182.457837 205.291312 181.393702 204.850533 180.284278 204.850533 
C 179.174854 204.850533 178.11072 205.291312 177.326238 206.075793 
C 176.541757 206.860275 176.100978 207.924409 176.100978 209.033833 
C 176.100978 210.143257 176.541757 211.207392 177.326238 211.991873 
C 178.11072 212.776355 179.174854 213.217133 180.284278 213.217133 
z
" clip-path="url(#pdad930cd07)" style="fill: #e69a8d; stroke: #ffffff; stroke-width: 0.669328"/>
    <path d="M 181.81106 179.597378 
C 182.920484 179.597378 183.984618 179.156599 184.769099 178.372117 
C 185.553581 177.587636 185.99436 176.523502 185.99436 175.414078 
C 185.99436 174.304653 185.553581 173.240519 184.769099 172.456038 
C 183.984618 171.671556 182.920484 171.230777 181.81106 171.230777 
C 180.701635 171.230777 179.637501 171.671556 178.85302 172.456038 
C 178.068538 173.240519 177.627759 174.304653 177.627759 175.414078 
C 177.627759 176.523502 178.068538 177.587636 178.85302 178.372117 
C 179.637501 179.156599 180.701635 179.597378 181.81106 179.597378 
z
" clip-path="url(#pdad930cd07)" style="fill: #e69a8d; stroke: #ffffff; stroke-width: 0.669328"/>
    <path d="M 356.483974 130.815245 
C 357.593398 130.815245 358.657533 130.374466 359.442014 129.589984 
C 360.226495 128.805503 360.667274 127.741369 360.667274 126.631945 
C 360.667274 125.52252 360.226495 124.458386 359.442014 123.673905 
C 358.657533 122.889423 357.593398 122.448644 356.483974 122.448644 
C 355.37455 122.448644 354.310416 122.889423 353.525934 123.673905 
C 352.741453 124.458386 352.300674 125.52252 352.300674 126.631945 
C 352.300674 127.741369 352.741453 128.805503 353.525934 129.589984 
C 354.310416 130.374466 355.37455 130.815245 356.483974 130.815245 
z
" clip-path="url(#pdad930cd07)" style="fill: #5f4b8b; stroke: #ffffff; stroke-width: 0.669328"/>
    <path d="M 393.326335 170.361883 
C 394.435759 170.361883 395.499894 169.921104 396.284375 169.136623 
C 397.068856 168.352142 397.509635 167.288007 397.509635 166.178583 
C 397.509635 165.069159 397.068856 164.005025 396.284375 163.220543 
C 395.499894 162.436062 394.435759 161.995283 393.326335 161.995283 
C 392.216911 161.995283 391.152777 162.436062 390.368295 163.220543 
C 389.583814 164.005025 389.143035 165.069159 389.143035 166.178583 
C 389.143035 167.288007 389.583814 168.352142 390.368295 169.136623 
C 391.152777 169.921104 392.216911 170.361883 393.326335 170.361883 
z
" clip-path="url(#pdad930cd07)" style="fill: #e69a8d; stroke: #ffffff; stroke-width: 0.669328"/>
    <path d="M 308.657881 280.517425 
C 309.767305 280.517425 310.83144 280.076646 311.615921 279.292165 
C 312.400403 278.507684 312.841181 277.443549 312.841181 276.334125 
C 312.841181 275.224701 312.400403 274.160566 311.615921 273.376085 
C 310.83144 272.591604 309.767305 272.150825 308.657881 272.150825 
C 307.548457 272.150825 306.484323 272.591604 305.699841 273.376085 
C 304.91536 274.160566 304.474581 275.224701 304.474581 276.334125 
C 304.474581 277.443549 304.91536 278.507684 305.699841 279.292165 
C 306.484323 280.076646 307.548457 280.517425 308.657881 280.517425 
z
" clip-path="url(#pdad930cd07)" style="fill: #e69a8d; stroke: #ffffff; stroke-width: 0.669328"/>
    <path d="M 385.037747 220.426689 
C 386.147171 220.426689 387.211306 219.98591 387.995787 219.201429 
C 388.780268 218.416948 389.221047 217.352813 389.221047 216.243389 
C 389.221047 215.133965 388.780268 214.069831 387.995787 213.285349 
C 387.211306 212.500868 386.147171 212.060089 385.037747 212.060089 
C 383.928323 212.060089 382.864188 212.500868 382.079707 213.285349 
C 381.295226 214.069831 380.854447 215.133965 380.854447 216.243389 
C 380.854447 217.352813 381.295226 218.416948 382.079707 219.201429 
C 382.864188 219.98591 383.928323 220.426689 385.037747 220.426689 
z
" clip-path="url(#pdad930cd07)" style="fill: #e69a8d; stroke: #ffffff; stroke-width: 0.669328"/>
    <path d="M 151.193243 197.646666 
C 152.302667 197.646666 153.366802 197.205887 154.151283 196.421405 
C 154.935764 195.636924 155.376543 194.57279 155.376543 193.463366 
C 155.376543 192.353941 154.935764 191.289807 154.151283 190.505326 
C 153.366802 189.720844 152.302667 189.280065 151.193243 189.280065 
C 150.083819 189.280065 149.019684 189.720844 148.235203 190.505326 
C 147.450722 191.289807 147.009943 192.353941 147.009943 193.463366 
C 147.009943 194.57279 147.450722 195.636924 148.235203 196.421405 
C 149.019684 197.205887 150.083819 197.646666 151.193243 197.646666 
z
" clip-path="url(#pdad930cd07)" style="fill: #e69a8d; stroke: #ffffff; stroke-width: 0.669328"/>
    <path d="M 113.824418 155.060785 
C 114.933842 155.060785 115.997977 154.620006 116.782458 153.835524 
C 117.56694 153.051043 118.007718 151.986909 118.007718 150.877484 
C 118.007718 149.76806 117.56694 148.703926 116.782458 147.919444 
C 115.997977 147.134963 114.933842 146.694184 113.824418 146.694184 
C 112.714994 146.694184 111.65086 147.134963 110.866378 147.919444 
C 110.081897 148.703926 109.641118 149.76806 109.641118 150.877484 
C 109.641118 151.986909 110.081897 153.051043 110.866378 153.835524 
C 111.65086 154.620006 112.714994 155.060785 113.824418 155.060785 
z
" clip-path="url(#pdad930cd07)" style="fill: #5f4b8b; stroke: #ffffff; stroke-width: 0.669328"/>
    <path d="M 131.713527 138.592662 
C 132.822951 138.592662 133.887085 138.151883 134.671567 137.367402 
C 135.456048 136.582921 135.896827 135.518786 135.896827 134.409362 
C 135.896827 133.299938 135.456048 132.235804 134.671567 131.451322 
C 133.887085 130.666841 132.822951 130.226062 131.713527 130.226062 
C 130.604103 130.226062 129.539968 130.666841 128.755487 131.451322 
C 127.971006 132.235804 127.530227 133.299938 127.530227 134.409362 
C 127.530227 135.518786 127.971006 136.582921 128.755487 137.367402 
C 129.539968 138.151883 130.604103 138.592662 131.713527 138.592662 
z
" clip-path="url(#pdad930cd07)" style="fill: #5f4b8b; stroke: #ffffff; stroke-width: 0.669328"/>
    <path d="M 90.005902 151.609938 
C 91.115326 151.609938 92.17946 151.169159 92.963941 150.384677 
C 93.748423 149.600196 94.189202 148.536062 94.189202 147.426638 
C 94.189202 146.317213 93.748423 145.253079 92.963941 144.468598 
C 92.17946 143.684116 91.115326 143.243337 90.005902 143.243337 
C 88.896477 143.243337 87.832343 143.684116 87.047862 144.468598 
C 86.26338 145.253079 85.822601 146.317213 85.822601 147.426638 
C 85.822601 148.536062 86.26338 149.600196 87.047862 150.384677 
C 87.832343 151.169159 88.896477 151.609938 90.005902 151.609938 
z
" clip-path="url(#pdad930cd07)" style="fill: #e69a8d; stroke: #ffffff; stroke-width: 0.669328"/>
    <path d="M 343.567472 196.237589 
C 344.676896 196.237589 345.74103 195.79681 346.525512 195.012328 
C 347.309993 194.227847 347.750772 193.163713 347.750772 192.054289 
C 347.750772 190.944864 347.309993 189.88073 346.525512 189.096249 
C 345.74103 188.311767 344.676896 187.870988 343.567472 187.870988 
C 342.458048 187.870988 341.393913 188.311767 340.609432 189.096249 
C 339.824951 189.88073 339.384172 190.944864 339.384172 192.054289 
C 339.384172 193.163713 339.824951 194.227847 340.609432 195.012328 
C 341.393913 195.79681 342.458048 196.237589 343.567472 196.237589 
z
" clip-path="url(#pdad930cd07)" style="fill: #e69a8d; stroke: #ffffff; stroke-width: 0.669328"/>
    <path d="M 158.616858 194.265725 
C 159.726282 194.265725 160.790416 193.824947 161.574898 193.040465 
C 162.359379 192.255984 162.800158 191.19185 162.800158 190.082425 
C 162.800158 188.973001 162.359379 187.908867 161.574898 187.124385 
C 160.790416 186.339904 159.726282 185.899125 158.616858 185.899125 
C 157.507433 185.899125 156.443299 186.339904 155.658818 187.124385 
C 154.874336 187.908867 154.433558 188.973001 154.433558 190.082425 
C 154.433558 191.19185 154.874336 192.255984 155.658818 193.040465 
C 156.443299 193.824947 157.507433 194.265725 158.616858 194.265725 
z
" clip-path="url(#pdad930cd07)" style="fill: #5f4b8b; stroke: #ffffff; stroke-width: 0.669328"/>
    <path d="M 236.62666 261.06009 
C 237.736084 261.06009 238.800219 260.619311 239.5847 259.83483 
C 240.369181 259.050349 240.80996 257.986214 240.80996 256.87679 
C 240.80996 255.767366 240.369181 254.703231 239.5847 253.91875 
C 238.800219 253.134269 237.736084 252.69349 236.62666 252.69349 
C 235.517236 252.69349 234.453101 253.134269 233.66862 253.91875 
C 232.884139 254.703231 232.44336 255.767366 232.44336 256.87679 
C 232.44336 257.986214 232.884139 259.050349 233.66862 259.83483 
C 234.453101 260.619311 235.517236 261.06009 236.62666 261.06009 
z
" clip-path="url(#pdad930cd07)" style="fill: #5f4b8b; stroke: #ffffff; stroke-width: 0.669328"/>
    <path d="M 169.661912 131.538632 
C 170.771336 131.538632 171.83547 131.097853 172.619952 130.313372 
C 173.404433 129.528891 173.845212 128.464756 173.845212 127.355332 
C 173.845212 126.245908 173.404433 125.181774 172.619952 124.397292 
C 171.83547 123.612811 170.771336 123.172032 169.661912 123.172032 
C 168.552487 123.172032 167.488353 123.612811 166.703872 124.397292 
C 165.91939 125.181774 165.478612 126.245908 165.478612 127.355332 
C 165.478612 128.464756 165.91939 129.528891 166.703872 130.313372 
C 167.488353 131.097853 168.552487 131.538632 169.661912 131.538632 
z
" clip-path="url(#pdad930cd07)" style="fill: #5f4b8b; stroke: #ffffff; stroke-width: 0.669328"/>
    <path d="M 84.783379 134.141351 
C 85.892803 134.141351 86.956938 133.700572 87.741419 132.916091 
C 88.5259 132.131609 88.966679 131.067475 88.966679 129.958051 
C 88.966679 128.848627 88.5259 127.784492 87.741419 127.000011 
C 86.956938 126.21553 85.892803 125.774751 84.783379 125.774751 
C 83.673955 125.774751 82.609821 126.21553 81.825339 127.000011 
C 81.040858 127.784492 80.600079 128.848627 80.600079 129.958051 
C 80.600079 131.067475 81.040858 132.131609 81.825339 132.916091 
C 82.609821 133.700572 83.673955 134.141351 84.783379 134.141351 
z
" clip-path="url(#pdad930cd07)" style="fill: #e69a8d; stroke: #ffffff; stroke-width: 0.669328"/>
    <path d="M 128.118473 162.050082 
C 129.227897 162.050082 130.292031 161.609303 131.076513 160.824821 
C 131.860994 160.04034 132.301773 158.976206 132.301773 157.866782 
C 132.301773 156.757357 131.860994 155.693223 131.076513 154.908742 
C 130.292031 154.12426 129.227897 153.683481 128.118473 153.683481 
C 127.009049 153.683481 125.944914 154.12426 125.160433 154.908742 
C 124.375952 155.693223 123.935173 156.757357 123.935173 157.866782 
C 123.935173 158.976206 124.375952 160.04034 125.160433 160.824821 
C 125.944914 161.609303 127.009049 162.050082 128.118473 162.050082 
z
" clip-path="url(#pdad930cd07)" style="fill: #e69a8d; stroke: #ffffff; stroke-width: 0.669328"/>
    <path d="M 383.51672 185.170492 
C 384.626144 185.170492 385.690279 184.729713 386.47476 183.945232 
C 387.259241 183.160751 387.70002 182.096616 387.70002 180.987192 
C 387.70002 179.877768 387.259241 178.813634 386.47476 178.029152 
C 385.690279 177.244671 384.626144 176.803892 383.51672 176.803892 
C 382.407296 176.803892 381.343162 177.244671 380.55868 178.029152 
C 379.774199 178.813634 379.33342 179.877768 379.33342 180.987192 
C 379.33342 182.096616 379.774199 183.160751 380.55868 183.945232 
C 381.343162 184.729713 382.407296 185.170492 383.51672 185.170492 
z
" clip-path="url(#pdad930cd07)" style="fill: #e69a8d; stroke: #ffffff; stroke-width: 0.669328"/>
    <path d="M 208.437155 136.40901 
C 209.546579 136.40901 210.610713 135.968231 211.395195 135.18375 
C 212.179676 134.399269 212.620455 133.335134 212.620455 132.22571 
C 212.620455 131.116286 212.179676 130.052152 211.395195 129.26767 
C 210.610713 128.483189 209.546579 128.04241 208.437155 128.04241 
C 207.327731 128.04241 206.263596 128.483189 205.479115 129.26767 
C 204.694634 130.052152 204.253855 131.116286 204.253855 132.22571 
C 204.253855 133.335134 204.694634 134.399269 205.479115 135.18375 
C 206.263596 135.968231 207.327731 136.40901 208.437155 136.40901 
z
" clip-path="url(#pdad930cd07)" style="fill: #5f4b8b; stroke: #ffffff; stroke-width: 0.669328"/>
    <path d="M 272.606514 98.88651 
C 273.715938 98.88651 274.780073 98.445731 275.564554 97.66125 
C 276.349035 96.876768 276.789814 95.812634 276.789814 94.70321 
C 276.789814 93.593786 276.349035 92.529651 275.564554 91.74517 
C 274.780073 90.960688 273.715938 90.51991 272.606514 90.51991 
C 271.49709 90.51991 270.432956 90.960688 269.648474 91.74517 
C 268.863993 92.529651 268.423214 93.593786 268.423214 94.70321 
C 268.423214 95.812634 268.863993 96.876768 269.648474 97.66125 
C 270.432956 98.445731 271.49709 98.88651 272.606514 98.88651 
z
" clip-path="url(#pdad930cd07)" style="fill: #e69a8d; stroke: #ffffff; stroke-width: 0.669328"/>
    <path d="M 167.9841 225.096834 
C 169.093525 225.096834 170.157659 224.656055 170.94214 223.871574 
C 171.726622 223.087092 172.167401 222.022958 172.167401 220.913534 
C 172.167401 219.80411 171.726622 218.739975 170.94214 217.955494 
C 170.157659 217.171012 169.093525 216.730234 167.9841 216.730234 
C 166.874676 216.730234 165.810542 217.171012 165.026061 217.955494 
C 164.241579 218.739975 163.8008 219.80411 163.8008 220.913534 
C 163.8008 222.022958 164.241579 223.087092 165.026061 223.871574 
C 165.810542 224.656055 166.874676 225.096834 167.9841 225.096834 
z
" clip-path="url(#pdad930cd07)" style="fill: #e69a8d; stroke: #ffffff; stroke-width: 0.669328"/>
    <path d="M 235.100449 169.444225 
C 236.209873 169.444225 237.274008 169.003446 238.058489 168.218964 
C 238.84297 167.434483 239.283749 166.370349 239.283749 165.260925 
C 239.283749 164.1515 238.84297 163.087366 238.058489 162.302885 
C 237.274008 161.518403 236.209873 161.077624 235.100449 161.077624 
C 233.991025 161.077624 232.926891 161.518403 232.142409 162.302885 
C 231.357928 163.087366 230.917149 164.1515 230.917149 165.260925 
C 230.917149 166.370349 231.357928 167.434483 232.142409 168.218964 
C 232.926891 169.003446 233.991025 169.444225 235.100449 169.444225 
z
" clip-path="url(#pdad930cd07)" style="fill: #5f4b8b; stroke: #ffffff; stroke-width: 0.669328"/>
    <path d="M 344.50797 193.179956 
C 345.617394 193.179956 346.681528 192.739177 347.46601 191.954695 
C 348.250491 191.170214 348.69127 190.10608 348.69127 188.996655 
C 348.69127 187.887231 348.250491 186.823097 347.46601 186.038616 
C 346.681528 185.254134 345.617394 184.813355 344.50797 184.813355 
C 343.398546 184.813355 342.334411 185.254134 341.54993 186.038616 
C 340.765448 186.823097 340.32467 187.887231 340.32467 188.996655 
C 340.32467 190.10608 340.765448 191.170214 341.54993 191.954695 
C 342.334411 192.739177 343.398546 193.179956 344.50797 193.179956 
z
" clip-path="url(#pdad930cd07)" style="fill: #e69a8d; stroke: #ffffff; stroke-width: 0.669328"/>
    <path d="M 297.460487 195.119528 
C 298.569912 195.119528 299.634046 194.678749 300.418527 193.894268 
C 301.203009 193.109787 301.643787 192.045652 301.643787 190.936228 
C 301.643787 189.826804 301.203009 188.76267 300.418527 187.978188 
C 299.634046 187.193707 298.569912 186.752928 297.460487 186.752928 
C 296.351063 186.752928 295.286929 187.193707 294.502447 187.978188 
C 293.717966 188.76267 293.277187 189.826804 293.277187 190.936228 
C 293.277187 192.045652 293.717966 193.109787 294.502447 193.894268 
C 295.286929 194.678749 296.351063 195.119528 297.460487 195.119528 
z
" clip-path="url(#pdad930cd07)" style="fill: #e69a8d; stroke: #ffffff; stroke-width: 0.669328"/>
    <path d="M 347.642725 222.695663 
C 348.752149 222.695663 349.816283 222.254884 350.600765 221.470402 
C 351.385246 220.685921 351.826025 219.621787 351.826025 218.512362 
C 351.826025 217.402938 351.385246 216.338804 350.600765 215.554323 
C 349.816283 214.769841 348.752149 214.329062 347.642725 214.329062 
C 346.533301 214.329062 345.469166 214.769841 344.684685 215.554323 
C 343.900204 216.338804 343.459425 217.402938 343.459425 218.512362 
C 343.459425 219.621787 343.900204 220.685921 344.684685 221.470402 
C 345.469166 222.254884 346.533301 222.695663 347.642725 222.695663 
z
" clip-path="url(#pdad930cd07)" style="fill: #5f4b8b; stroke: #ffffff; stroke-width: 0.669328"/>
    <path d="M 278.659554 239.250176 
C 279.768978 239.250176 280.833112 238.809397 281.617594 238.024916 
C 282.402075 237.240434 282.842854 236.1763 282.842854 235.066876 
C 282.842854 233.957452 282.402075 232.893317 281.617594 232.108836 
C 280.833112 231.324355 279.768978 230.883576 278.659554 230.883576 
C 277.55013 230.883576 276.485995 231.324355 275.701514 232.108836 
C 274.917032 232.893317 274.476254 233.957452 274.476254 235.066876 
C 274.476254 236.1763 274.917032 237.240434 275.701514 238.024916 
C 276.485995 238.809397 277.55013 239.250176 278.659554 239.250176 
z
" clip-path="url(#pdad930cd07)" style="fill: #e69a8d; stroke: #ffffff; stroke-width: 0.669328"/>
    <path d="M 339.895609 131.645731 
C 341.005034 131.645731 342.069168 131.204952 342.853649 130.42047 
C 343.638131 129.635989 344.07891 128.571855 344.07891 127.462431 
C 344.07891 126.353006 343.638131 125.288872 342.853649 124.504391 
C 342.069168 123.719909 341.005034 123.27913 339.895609 123.27913 
C 338.786185 123.27913 337.722051 123.719909 336.93757 124.504391 
C 336.153088 125.288872 335.712309 126.353006 335.712309 127.462431 
C 335.712309 128.571855 336.153088 129.635989 336.93757 130.42047 
C 337.722051 131.204952 338.786185 131.645731 339.895609 131.645731 
z
" clip-path="url(#pdad930cd07)" style="fill: #e69a8d; stroke: #ffffff; stroke-width: 0.669328"/>
    <path d="M 330.908941 109.915751 
C 332.018366 109.915751 333.0825 109.474973 333.866981 108.690491 
C 334.651463 107.90601 335.092242 106.841875 335.092242 105.732451 
C 335.092242 104.623027 334.651463 103.558893 333.866981 102.774411 
C 333.0825 101.98993 332.018366 101.549151 330.908941 101.549151 
C 329.799517 101.549151 328.735383 101.98993 327.950902 102.774411 
C 327.16642 103.558893 326.725641 104.623027 326.725641 105.732451 
C 326.725641 106.841875 327.16642 107.90601 327.950902 108.690491 
C 328.735383 109.474973 329.799517 109.915751 330.908941 109.915751 
z
" clip-path="url(#pdad930cd07)" style="fill: #e69a8d; stroke: #ffffff; stroke-width: 0.669328"/>
    <path d="M 250.531423 209.169999 
C 251.640847 209.169999 252.704981 208.72922 253.489463 207.944739 
C 254.273944 207.160257 254.714723 206.096123 254.714723 204.986699 
C 254.714723 203.877275 254.273944 202.81314 253.489463 202.028659 
C 252.704981 201.244177 251.640847 200.803399 250.531423 200.803399 
C 249.421999 200.803399 248.357864 201.244177 247.573383 202.028659 
C 246.788901 202.81314 246.348123 203.877275 246.348123 204.986699 
C 246.348123 206.096123 246.788901 207.160257 247.573383 207.944739 
C 248.357864 208.72922 249.421999 209.169999 250.531423 209.169999 
z
" clip-path="url(#pdad930cd07)" style="fill: #e69a8d; stroke: #ffffff; stroke-width: 0.669328"/>
    <path d="M 277.015906 132.590004 
C 278.12533 132.590004 279.189464 132.149225 279.973945 131.364743 
C 280.758427 130.580262 281.199206 129.516128 281.199206 128.406703 
C 281.199206 127.297279 280.758427 126.233145 279.973945 125.448664 
C 279.189464 124.664182 278.12533 124.223403 277.015906 124.223403 
C 275.906481 124.223403 274.842347 124.664182 274.057866 125.448664 
C 273.273384 126.233145 272.832605 127.297279 272.832605 128.406703 
C 272.832605 129.516128 273.273384 130.580262 274.057866 131.364743 
C 274.842347 132.149225 275.906481 132.590004 277.015906 132.590004 
z
" clip-path="url(#pdad930cd07)" style="fill: #e69a8d; stroke: #ffffff; stroke-width: 0.669328"/>
    <path d="M 317.459172 135.010825 
C 318.568597 135.010825 319.632731 134.570046 320.417212 133.785565 
C 321.201694 133.001083 321.642473 131.936949 321.642473 130.827525 
C 321.642473 129.718101 321.201694 128.653966 320.417212 127.869485 
C 319.632731 127.085004 318.568597 126.644225 317.459172 126.644225 
C 316.349748 126.644225 315.285614 127.085004 314.501132 127.869485 
C 313.716651 128.653966 313.275872 129.718101 313.275872 130.827525 
C 313.275872 131.936949 313.716651 133.001083 314.501132 133.785565 
C 315.285614 134.570046 316.349748 135.010825 317.459172 135.010825 
z
" clip-path="url(#pdad930cd07)" style="fill: #e69a8d; stroke: #ffffff; stroke-width: 0.669328"/>
    <path d="M 341.302672 131.299262 
C 342.412096 131.299262 343.47623 130.858484 344.260712 130.074002 
C 345.045193 129.289521 345.485972 128.225386 345.485972 127.115962 
C 345.485972 126.006538 345.045193 124.942404 344.260712 124.157922 
C 343.47623 123.373441 342.412096 122.932662 341.302672 122.932662 
C 340.193248 122.932662 339.129113 123.373441 338.344632 124.157922 
C 337.56015 124.942404 337.119372 126.006538 337.119372 127.115962 
C 337.119372 128.225386 337.56015 129.289521 338.344632 130.074002 
C 339.129113 130.858484 340.193248 131.299262 341.302672 131.299262 
z
" clip-path="url(#pdad930cd07)" style="fill: #5f4b8b; stroke: #ffffff; stroke-width: 0.669328"/>
    <path d="M 265.887752 78.244318 
C 266.997176 78.244318 268.061311 77.803539 268.845792 77.019057 
C 269.630273 76.234576 270.071052 75.170442 270.071052 74.061018 
C 270.071052 72.951593 269.630273 71.887459 268.845792 71.102978 
C 268.061311 70.318496 266.997176 69.877717 265.887752 69.877717 
C 264.778328 69.877717 263.714193 70.318496 262.929712 71.102978 
C 262.145231 71.887459 261.704452 72.951593 261.704452 74.061018 
C 261.704452 75.170442 262.145231 76.234576 262.929712 77.019057 
C 263.714193 77.803539 264.778328 78.244318 265.887752 78.244318 
z
" clip-path="url(#pdad930cd07)" style="fill: #e69a8d; stroke: #ffffff; stroke-width: 0.669328"/>
    <path d="M 338.683039 138.262975 
C 339.792463 138.262975 340.856597 137.822196 341.641079 137.037715 
C 342.42556 136.253234 342.866339 135.189099 342.866339 134.079675 
C 342.866339 132.970251 342.42556 131.906117 341.641079 131.121635 
C 340.856597 130.337154 339.792463 129.896375 338.683039 129.896375 
C 337.573615 129.896375 336.50948 130.337154 335.724999 131.121635 
C 334.940518 131.906117 334.499739 132.970251 334.499739 134.079675 
C 334.499739 135.189099 334.940518 136.253234 335.724999 137.037715 
C 336.50948 137.822196 337.573615 138.262975 338.683039 138.262975 
z
" clip-path="url(#pdad930cd07)" style="fill: #e69a8d; stroke: #ffffff; stroke-width: 0.669328"/>
    <path d="M 345.708304 209.934964 
C 346.817728 209.934964 347.881863 209.494185 348.666344 208.709703 
C 349.450825 207.925222 349.891604 206.861088 349.891604 205.751664 
C 349.891604 204.642239 349.450825 203.578105 348.666344 202.793624 
C 347.881863 202.009142 346.817728 201.568363 345.708304 201.568363 
C 344.59888 201.568363 343.534745 202.009142 342.750264 202.793624 
C 341.965783 203.578105 341.525004 204.642239 341.525004 205.751664 
C 341.525004 206.861088 341.965783 207.925222 342.750264 208.709703 
C 343.534745 209.494185 344.59888 209.934964 345.708304 209.934964 
z
" clip-path="url(#pdad930cd07)" style="fill: #5f4b8b; stroke: #ffffff; stroke-width: 0.669328"/>
    <path d="M 178.57187 126.2157 
C 179.681294 126.2157 180.745428 125.774921 181.529909 124.99044 
C 182.314391 124.205958 182.75517 123.141824 182.75517 122.0324 
C 182.75517 120.922976 182.314391 119.858841 181.529909 119.07436 
C 180.745428 118.289878 179.681294 117.8491 178.57187 117.8491 
C 177.462445 117.8491 176.398311 118.289878 175.61383 119.07436 
C 174.829348 119.858841 174.388569 120.922976 174.388569 122.0324 
C 174.388569 123.141824 174.829348 124.205958 175.61383 124.99044 
C 176.398311 125.774921 177.462445 126.2157 178.57187 126.2157 
z
" clip-path="url(#pdad930cd07)" style="fill: #5f4b8b; stroke: #ffffff; stroke-width: 0.669328"/>
    <path d="M 359.765831 139.019745 
C 360.875256 139.019745 361.93939 138.578966 362.723871 137.794485 
C 363.508353 137.010004 363.949131 135.945869 363.949131 134.836445 
C 363.949131 133.727021 363.508353 132.662887 362.723871 131.878405 
C 361.93939 131.093924 360.875256 130.653145 359.765831 130.653145 
C 358.656407 130.653145 357.592273 131.093924 356.807791 131.878405 
C 356.02331 132.662887 355.582531 133.727021 355.582531 134.836445 
C 355.582531 135.945869 356.02331 137.010004 356.807791 137.794485 
C 357.592273 138.578966 358.656407 139.019745 359.765831 139.019745 
z
" clip-path="url(#pdad930cd07)" style="fill: #e69a8d; stroke: #ffffff; stroke-width: 0.669328"/>
    <path d="M 327.310307 131.917006 
C 328.419731 131.917006 329.483865 131.476227 330.268347 130.691746 
C 331.052828 129.907264 331.493607 128.84313 331.493607 127.733706 
C 331.493607 126.624282 331.052828 125.560147 330.268347 124.775666 
C 329.483865 123.991185 328.419731 123.550406 327.310307 123.550406 
C 326.200883 123.550406 325.136748 123.991185 324.352267 124.775666 
C 323.567785 125.560147 323.127007 126.624282 323.127007 127.733706 
C 323.127007 128.84313 323.567785 129.907264 324.352267 130.691746 
C 325.136748 131.476227 326.200883 131.917006 327.310307 131.917006 
z
" clip-path="url(#pdad930cd07)" style="fill: #5f4b8b; stroke: #ffffff; stroke-width: 0.669328"/>
    <path d="M 352.943073 132.683894 
C 354.052497 132.683894 355.116631 132.243115 355.901113 131.458633 
C 356.685594 130.674152 357.126373 129.610018 357.126373 128.500594 
C 357.126373 127.391169 356.685594 126.327035 355.901113 125.542554 
C 355.116631 124.758072 354.052497 124.317293 352.943073 124.317293 
C 351.833649 124.317293 350.769514 124.758072 349.985033 125.542554 
C 349.200551 126.327035 348.759773 127.391169 348.759773 128.500594 
C 348.759773 129.610018 349.200551 130.674152 349.985033 131.458633 
C 350.769514 132.243115 351.833649 132.683894 352.943073 132.683894 
z
" clip-path="url(#pdad930cd07)" style="fill: #e69a8d; stroke: #ffffff; stroke-width: 0.669328"/>
    <path d="M 324.911918 165.376759 
C 326.021342 165.376759 327.085476 164.93598 327.869958 164.151499 
C 328.654439 163.367018 329.095218 162.302883 329.095218 161.193459 
C 329.095218 160.084035 328.654439 159.019901 327.869958 158.235419 
C 327.085476 157.450938 326.021342 157.010159 324.911918 157.010159 
C 323.802494 157.010159 322.738359 157.450938 321.953878 158.235419 
C 321.169397 159.019901 320.728618 160.084035 320.728618 161.193459 
C 320.728618 162.302883 321.169397 163.367018 321.953878 164.151499 
C 322.738359 164.93598 323.802494 165.376759 324.911918 165.376759 
z
" clip-path="url(#pdad930cd07)" style="fill: #5f4b8b; stroke: #ffffff; stroke-width: 0.669328"/>
    <path d="M 173.012376 149.339043 
C 174.1218 149.339043 175.185934 148.898264 175.970416 148.113782 
C 176.754897 147.329301 177.195676 146.265167 177.195676 145.155743 
C 177.195676 144.046318 176.754897 142.982184 175.970416 142.197703 
C 175.185934 141.413221 174.1218 140.972442 173.012376 140.972442 
C 171.902952 140.972442 170.838817 141.413221 170.054336 142.197703 
C 169.269855 142.982184 168.829076 144.046318 168.829076 145.155743 
C 168.829076 146.265167 169.269855 147.329301 170.054336 148.113782 
C 170.838817 148.898264 171.902952 149.339043 173.012376 149.339043 
z
" clip-path="url(#pdad930cd07)" style="fill: #e69a8d; stroke: #ffffff; stroke-width: 0.669328"/>
    <path d="M 276.930194 184.116979 
C 278.039618 184.116979 279.103752 183.6762 279.888234 182.891719 
C 280.672715 182.107237 281.113494 181.043103 281.113494 179.933679 
C 281.113494 178.824255 280.672715 177.76012 279.888234 176.975639 
C 279.103752 176.191158 278.039618 175.750379 276.930194 175.750379 
C 275.82077 175.750379 274.756635 176.191158 273.972154 176.975639 
C 273.187673 177.76012 272.746894 178.824255 272.746894 179.933679 
C 272.746894 181.043103 273.187673 182.107237 273.972154 182.891719 
C 274.756635 183.6762 275.82077 184.116979 276.930194 184.116979 
z
" clip-path="url(#pdad930cd07)" style="fill: #5f4b8b; stroke: #ffffff; stroke-width: 0.669328"/>
    <path d="M 283.561777 83.29083 
C 284.671201 83.29083 285.735336 82.850051 286.519817 82.06557 
C 287.304298 81.281089 287.745077 80.216954 287.745077 79.10753 
C 287.745077 77.998106 287.304298 76.933972 286.519817 76.14949 
C 285.735336 75.365009 284.671201 74.92423 283.561777 74.92423 
C 282.452353 74.92423 281.388219 75.365009 280.603737 76.14949 
C 279.819256 76.933972 279.378477 77.998106 279.378477 79.10753 
C 279.378477 80.216954 279.819256 81.281089 280.603737 82.06557 
C 281.388219 82.850051 282.452353 83.29083 283.561777 83.29083 
z
" clip-path="url(#pdad930cd07)" style="fill: #5f4b8b; stroke: #ffffff; stroke-width: 0.669328"/>
    <path d="M 268.004006 182.564568 
C 269.11343 182.564568 270.177564 182.12379 270.962046 181.339308 
C 271.746527 180.554827 272.187306 179.490692 272.187306 178.381268 
C 272.187306 177.271844 271.746527 176.20771 270.962046 175.423228 
C 270.177564 174.638747 269.11343 174.197968 268.004006 174.197968 
C 266.894582 174.197968 265.830447 174.638747 265.045966 175.423228 
C 264.261485 176.20771 263.820706 177.271844 263.820706 178.381268 
C 263.820706 179.490692 264.261485 180.554827 265.045966 181.339308 
C 265.830447 182.12379 266.894582 182.564568 268.004006 182.564568 
z
" clip-path="url(#pdad930cd07)" style="fill: #5f4b8b; stroke: #ffffff; stroke-width: 0.669328"/>
    <path d="M 343.132589 172.67932 
C 344.242013 172.67932 345.306148 172.238541 346.090629 171.454059 
C 346.875111 170.669578 347.315889 169.605444 347.315889 168.496019 
C 347.315889 167.386595 346.875111 166.322461 346.090629 165.53798 
C 345.306148 164.753498 344.242013 164.312719 343.132589 164.312719 
C 342.023165 164.312719 340.959031 164.753498 340.174549 165.53798 
C 339.390068 166.322461 338.949289 167.386595 338.949289 168.496019 
C 338.949289 169.605444 339.390068 170.669578 340.174549 171.454059 
C 340.959031 172.238541 342.023165 172.67932 343.132589 172.67932 
z
" clip-path="url(#pdad930cd07)" style="fill: #5f4b8b; stroke: #ffffff; stroke-width: 0.669328"/>
    <path d="M 242.357526 38.597425 
C 243.46695 38.597425 244.531084 38.156646 245.315565 37.372165 
C 246.100047 36.587684 246.540826 35.523549 246.540826 34.414125 
C 246.540826 33.304701 246.100047 32.240566 245.315565 31.456085 
C 244.531084 30.671604 243.46695 30.230825 242.357526 30.230825 
C 241.248101 30.230825 240.183967 30.671604 239.399486 31.456085 
C 238.615004 32.240566 238.174225 33.304701 238.174225 34.414125 
C 238.174225 35.523549 238.615004 36.587684 239.399486 37.372165 
C 240.183967 38.156646 241.248101 38.597425 242.357526 38.597425 
z
" clip-path="url(#pdad930cd07)" style="fill: #e69a8d; stroke: #ffffff; stroke-width: 0.669328"/>
    <path d="M 302.709656 49.539579 
C 303.81908 49.539579 304.883215 49.0988 305.667696 48.314318 
C 306.452177 47.529837 306.892956 46.465703 306.892956 45.356278 
C 306.892956 44.246854 306.452177 43.18272 305.667696 42.398239 
C 304.883215 41.613757 303.81908 41.172978 302.709656 41.172978 
C 301.600232 41.172978 300.536098 41.613757 299.751616 42.398239 
C 298.967135 43.18272 298.526356 44.246854 298.526356 45.356278 
C 298.526356 46.465703 298.967135 47.529837 299.751616 48.314318 
C 300.536098 49.0988 301.600232 49.539579 302.709656 49.539579 
z
" clip-path="url(#pdad930cd07)" style="fill: #e69a8d; stroke: #ffffff; stroke-width: 0.669328"/>
   </g>
   <g id="PathCollection_2"/>
   <g id="PathCollection_3"/>
   <g id="matplotlib.axis_1">
    <g id="xtick_1">
     <g id="line2d_1">
      <defs>
       <path id="md9cafbc334" d="M 0 0 
L 0 3.5 
" style="stroke: #000000; stroke-width: 0.8"/>
      </defs>
      <g>
       <use xlink:href="#md9cafbc334" x="54.684545" y="288.430125" style="stroke: #000000; stroke-width: 0.8"/>
      </g>
     </g>
     <g id="text_1">
      <text style="font: 10px 'DejaVu Sans', 'Bitstream Vera Sans', 'Computer Modern Sans Serif', 'Lucida Grande', 'Verdana', 'Geneva', 'Lucid', 'Arial', 'Helvetica', 'Avant Garde', sans-serif; text-anchor: middle" x="54.684545" y="303.028562" transform="rotate(-0 54.684545 303.028562)">−0.3</text>
     </g>
    </g>
    <g id="xtick_2">
     <g id="line2d_2">
      <g>
       <use xlink:href="#md9cafbc334" x="123.351925" y="288.430125" style="stroke: #000000; stroke-width: 0.8"/>
      </g>
     </g>
     <g id="text_2">
      <text style="font: 10px 'DejaVu Sans', 'Bitstream Vera Sans', 'Computer Modern Sans Serif', 'Lucida Grande', 'Verdana', 'Geneva', 'Lucid', 'Arial', 'Helvetica', 'Avant Garde', sans-serif; text-anchor: middle" x="123.351925" y="303.028562" transform="rotate(-0 123.351925 303.028562)">−0.2</text>
     </g>
    </g>
    <g id="xtick_3">
     <g id="line2d_3">
      <g>
       <use xlink:href="#md9cafbc334" x="192.019305" y="288.430125" style="stroke: #000000; stroke-width: 0.8"/>
      </g>
     </g>
     <g id="text_3">
      <text style="font: 10px 'DejaVu Sans', 'Bitstream Vera Sans', 'Computer Modern Sans Serif', 'Lucida Grande', 'Verdana', 'Geneva', 'Lucid', 'Arial', 'Helvetica', 'Avant Garde', sans-serif; text-anchor: middle" x="192.019305" y="303.028562" transform="rotate(-0 192.019305 303.028562)">−0.1</text>
     </g>
    </g>
    <g id="xtick_4">
     <g id="line2d_4">
      <g>
       <use xlink:href="#md9cafbc334" x="260.686685" y="288.430125" style="stroke: #000000; stroke-width: 0.8"/>
      </g>
     </g>
     <g id="text_4">
      <text style="font: 10px 'DejaVu Sans', 'Bitstream Vera Sans', 'Computer Modern Sans Serif', 'Lucida Grande', 'Verdana', 'Geneva', 'Lucid', 'Arial', 'Helvetica', 'Avant Garde', sans-serif; text-anchor: middle" x="260.686685" y="303.028562" transform="rotate(-0 260.686685 303.028562)">0.0</text>
     </g>
    </g>
    <g id="xtick_5">
     <g id="line2d_5">
      <g>
       <use xlink:href="#md9cafbc334" x="329.354065" y="288.430125" style="stroke: #000000; stroke-width: 0.8"/>
      </g>
     </g>
     <g id="text_5">
      <text style="font: 10px 'DejaVu Sans', 'Bitstream Vera Sans', 'Computer Modern Sans Serif', 'Lucida Grande', 'Verdana', 'Geneva', 'Lucid', 'Arial', 'Helvetica', 'Avant Garde', sans-serif; text-anchor: middle" x="329.354065" y="303.028562" transform="rotate(-0 329.354065 303.028562)">0.1</text>
     </g>
    </g>
    <g id="xtick_6">
     <g id="line2d_6">
      <g>
       <use xlink:href="#md9cafbc334" x="398.021445" y="288.430125" style="stroke: #000000; stroke-width: 0.8"/>
      </g>
     </g>
     <g id="text_6">
      <text style="font: 10px 'DejaVu Sans', 'Bitstream Vera Sans', 'Computer Modern Sans Serif', 'Lucida Grande', 'Verdana', 'Geneva', 'Lucid', 'Arial', 'Helvetica', 'Avant Garde', sans-serif; text-anchor: middle" x="398.021445" y="303.028562" transform="rotate(-0 398.021445 303.028562)">0.2</text>
     </g>
    </g>
    <g id="text_7">
     <text style="font: 10px 'DejaVu Sans', 'Bitstream Vera Sans', 'Computer Modern Sans Serif', 'Lucida Grande', 'Verdana', 'Geneva', 'Lucid', 'Arial', 'Helvetica', 'Avant Garde', sans-serif; text-anchor: middle" x="230.999063" y="316.706687" transform="rotate(-0 230.999063 316.706687)">Axis1_66.8</text>
    </g>
   </g>
   <g id="matplotlib.axis_2">
    <g id="ytick_1">
     <g id="line2d_7">
      <defs>
       <path id="mf441a9c201" d="M 0 0 
L -3.5 0 
" style="stroke: #000000; stroke-width: 0.8"/>
      </defs>
      <g>
       <use xlink:href="#mf441a9c201" x="52.439063" y="280.812858" style="stroke: #000000; stroke-width: 0.8"/>
      </g>
     </g>
     <g id="text_8">
      <text style="font: 10px 'DejaVu Sans', 'Bitstream Vera Sans', 'Computer Modern Sans Serif', 'Lucida Grande', 'Verdana', 'Geneva', 'Lucid', 'Arial', 'Helvetica', 'Avant Garde', sans-serif; text-anchor: end" x="45.439063" y="284.612077" transform="rotate(-0 45.439063 284.612077)">−0.3</text>
     </g>
    </g>
    <g id="ytick_2">
     <g id="line2d_8">
      <g>
       <use xlink:href="#mf441a9c201" x="52.439063" y="242.293827" style="stroke: #000000; stroke-width: 0.8"/>
      </g>
     </g>
     <g id="text_9">
      <text style="font: 10px 'DejaVu Sans', 'Bitstream Vera Sans', 'Computer Modern Sans Serif', 'Lucida Grande', 'Verdana', 'Geneva', 'Lucid', 'Arial', 'Helvetica', 'Avant Garde', sans-serif; text-anchor: end" x="45.439063" y="246.093045" transform="rotate(-0 45.439063 246.093045)">−0.2</text>
     </g>
    </g>
    <g id="ytick_3">
     <g id="line2d_9">
      <g>
       <use xlink:href="#mf441a9c201" x="52.439063" y="203.774795" style="stroke: #000000; stroke-width: 0.8"/>
      </g>
     </g>
     <g id="text_10">
      <text style="font: 10px 'DejaVu Sans', 'Bitstream Vera Sans', 'Computer Modern Sans Serif', 'Lucida Grande', 'Verdana', 'Geneva', 'Lucid', 'Arial', 'Helvetica', 'Avant Garde', sans-serif; text-anchor: end" x="45.439063" y="207.574014" transform="rotate(-0 45.439063 207.574014)">−0.1</text>
     </g>
    </g>
    <g id="ytick_4">
     <g id="line2d_10">
      <g>
       <use xlink:href="#mf441a9c201" x="52.439063" y="165.255763" style="stroke: #000000; stroke-width: 0.8"/>
      </g>
     </g>
     <g id="text_11">
      <text style="font: 10px 'DejaVu Sans', 'Bitstream Vera Sans', 'Computer Modern Sans Serif', 'Lucida Grande', 'Verdana', 'Geneva', 'Lucid', 'Arial', 'Helvetica', 'Avant Garde', sans-serif; text-anchor: end" x="45.439063" y="169.054982" transform="rotate(-0 45.439063 169.054982)">0.0</text>
     </g>
    </g>
    <g id="ytick_5">
     <g id="line2d_11">
      <g>
       <use xlink:href="#mf441a9c201" x="52.439063" y="126.736731" style="stroke: #000000; stroke-width: 0.8"/>
      </g>
     </g>
     <g id="text_12">
      <text style="font: 10px 'DejaVu Sans', 'Bitstream Vera Sans', 'Computer Modern Sans Serif', 'Lucida Grande', 'Verdana', 'Geneva', 'Lucid', 'Arial', 'Helvetica', 'Avant Garde', sans-serif; text-anchor: end" x="45.439063" y="130.53595" transform="rotate(-0 45.439063 130.53595)">0.1</text>
     </g>
    </g>
    <g id="ytick_6">
     <g id="line2d_12">
      <g>
       <use xlink:href="#mf441a9c201" x="52.439063" y="88.217699" style="stroke: #000000; stroke-width: 0.8"/>
      </g>
     </g>
     <g id="text_13">
      <text style="font: 10px 'DejaVu Sans', 'Bitstream Vera Sans', 'Computer Modern Sans Serif', 'Lucida Grande', 'Verdana', 'Geneva', 'Lucid', 'Arial', 'Helvetica', 'Avant Garde', sans-serif; text-anchor: end" x="45.439063" y="92.016918" transform="rotate(-0 45.439063 92.016918)">0.2</text>
     </g>
    </g>
    <g id="ytick_7">
     <g id="line2d_13">
      <g>
       <use xlink:href="#mf441a9c201" x="52.439063" y="49.698668" style="stroke: #000000; stroke-width: 0.8"/>
      </g>
     </g>
     <g id="text_14">
      <text style="font: 10px 'DejaVu Sans', 'Bitstream Vera Sans', 'Computer Modern Sans Serif', 'Lucida Grande', 'Verdana', 'Geneva', 'Lucid', 'Arial', 'Helvetica', 'Avant Garde', sans-serif; text-anchor: end" x="45.439063" y="53.497886" transform="rotate(-0 45.439063 53.497886)">0.3</text>
     </g>
    </g>
    <g id="text_15">
     <text style="font: 10px 'DejaVu Sans', 'Bitstream Vera Sans', 'Computer Modern Sans Serif', 'Lucida Grande', 'Verdana', 'Geneva', 'Lucid', 'Arial', 'Helvetica', 'Avant Garde', sans-serif; text-anchor: middle" x="14.798438" y="155.374125" transform="rotate(-90 14.798438 155.374125)">Axis2_31.8</text>
    </g>
   </g>
   <g id="patch_3">
    <path d="M 52.439063 288.430125 
L 52.439063 22.318125 
" style="fill: none; stroke: #000000; stroke-width: 0.8; stroke-linejoin: miter; stroke-linecap: square"/>
   </g>
   <g id="patch_4">
    <path d="M 409.559062 288.430125 
L 409.559062 22.318125 
" style="fill: none; stroke: #000000; stroke-width: 0.8; stroke-linejoin: miter; stroke-linecap: square"/>
   </g>
   <g id="patch_5">
    <path d="M 52.439063 288.430125 
L 409.559062 288.430125 
" style="fill: none; stroke: #000000; stroke-width: 0.8; stroke-linejoin: miter; stroke-linecap: square"/>
   </g>
   <g id="patch_6">
    <path d="M 52.439063 22.318125 
L 409.559062 22.318125 
" style="fill: none; stroke: #000000; stroke-width: 0.8; stroke-linejoin: miter; stroke-linecap: square"/>
   </g>
   <g id="text_16">
    <text style="font: 12px 'DejaVu Sans', 'Bitstream Vera Sans', 'Computer Modern Sans Serif', 'Lucida Grande', 'Verdana', 'Geneva', 'Lucid', 'Arial', 'Helvetica', 'Avant Garde', sans-serif; text-anchor: middle" x="230.999063" y="16.318125" transform="rotate(-0 230.999063 16.318125)">5XFAD</text>
   </g>
   <g id="legend_1">
    <g id="patch_7">
     <path d="M 416.559062 74.630625 
L 501.923125 74.630625 
Q 503.923125 74.630625 503.923125 72.630625 
L 503.923125 29.318125 
Q 503.923125 27.318125 501.923125 27.318125 
L 416.559062 27.318125 
Q 414.559062 27.318125 414.559062 29.318125 
L 414.559062 72.630625 
Q 414.559062 74.630625 416.559062 74.630625 
z
" style="fill: #ffffff; opacity: 0.8; stroke: #cccccc; stroke-linejoin: miter"/>
    </g>
    <g id="text_17">
     <text style="font: 10px 'DejaVu Sans', 'Bitstream Vera Sans', 'Computer Modern Sans Serif', 'Lucida Grande', 'Verdana', 'Geneva', 'Lucid', 'Arial', 'Helvetica', 'Avant Garde', sans-serif; text-anchor: start" x="425.719219" y="38.916562" transform="rotate(-0 425.719219 38.916562)">mouse_strain</text>
    </g>
    <g id="PathCollection_4">
     <defs>
      <path id="m7997a322ad" d="M 0 4.1833 
C 1.109424 4.1833 2.173559 3.742521 2.95804 2.95804 
C 3.742521 2.173559 4.1833 1.109424 4.1833 0 
C 4.1833 -1.109424 3.742521 -2.173559 2.95804 -2.95804 
C 2.173559 -3.742521 1.109424 -4.1833 0 -4.1833 
C -1.109424 -4.1833 -2.173559 -3.742521 -2.95804 -2.95804 
C -3.742521 -2.173559 -4.1833 -1.109424 -4.1833 0 
C -4.1833 1.109424 -3.742521 2.173559 -2.95804 2.95804 
C -2.173559 3.742521 -1.109424 4.1833 0 4.1833 
z
" style="stroke: #e69a8d"/>
     </defs>
     <g>
      <use xlink:href="#m7997a322ad" x="428.559062" y="51.247812" style="fill: #e69a8d; stroke: #e69a8d"/>
     </g>
    </g>
    <g id="text_18">
     <text style="font: 10px 'DejaVu Sans', 'Bitstream Vera Sans', 'Computer Modern Sans Serif', 'Lucida Grande', 'Verdana', 'Geneva', 'Lucid', 'Arial', 'Helvetica', 'Avant Garde', sans-serif; text-anchor: start" x="446.559062" y="53.872812" transform="rotate(-0 446.559062 53.872812)">WT 5XFAD</text>
    </g>
    <g id="PathCollection_5">
     <defs>
      <path id="m166119729b" d="M 0 4.1833 
C 1.109424 4.1833 2.173559 3.742521 2.95804 2.95804 
C 3.742521 2.173559 4.1833 1.109424 4.1833 0 
C 4.1833 -1.109424 3.742521 -2.173559 2.95804 -2.95804 
C 2.173559 -3.742521 1.109424 -4.1833 0 -4.1833 
C -1.109424 -4.1833 -2.173559 -3.742521 -2.95804 -2.95804 
C -3.742521 -2.173559 -4.1833 -1.109424 -4.1833 0 
C -4.1833 1.109424 -3.742521 2.173559 -2.95804 2.95804 
C -2.173559 3.742521 -1.109424 4.1833 0 4.1833 
z
" style="stroke: #5f4b8b"/>
     </defs>
     <g>
      <use xlink:href="#m166119729b" x="428.559062" y="65.925937" style="fill: #5f4b8b; stroke: #5f4b8b"/>
     </g>
    </g>
    <g id="text_19">
     <text style="font: 10px 'DejaVu Sans', 'Bitstream Vera Sans', 'Computer Modern Sans Serif', 'Lucida Grande', 'Verdana', 'Geneva', 'Lucid', 'Arial', 'Helvetica', 'Avant Garde', sans-serif; text-anchor: start" x="446.559062" y="68.550937" transform="rotate(-0 446.559062 68.550937)">Het 5XFAD</text>
    </g>
   </g>
  </g>
 </g>
 <defs>
  <clipPath id="pdad930cd07">
   <rect x="52.439063" y="22.318125" width="357.12" height="266.112"/>
  </clipPath>
 </defs>
</svg>
